<?xml version="1.0" encoding="utf-8"?>
<!-- Generator: Adobe Illustrator 19.0.0, SVG Export Plug-In . SVG Version: 6.00 Build 0)  -->
<svg version="1.1" id="Layer_1" xmlns="http://www.w3.org/2000/svg" xmlns:xlink="http://www.w3.org/1999/xlink" x="0px" y="0px"
	 viewBox="0 0 724.3 57" style="enable-background:new 0 0 724.3 57;" xml:space="preserve">
<style type="text/css">
	.st0{fill:#FFFFFF;}
	.st1{fill-rule:evenodd;clip-rule:evenodd;fill:#FFFFFF;}
</style>
<g>
	<g>
		<path class="st0" d="M78.2,37.3L70.6,22h-5.3l1.4,2.4C64.8,21.7,61.3,21,58,21c-9.5,0-10.1,5-10.1,6h4.7c0,0,0.2-3.1,5.1-3.1
			c3.1,0,5.5,1.4,5.5,4.1v1h-5.5c-6.2,0-9.9,1.5-10.9,4.6c0.1-0.7,0.2-1.4,0.2-2.1c0-5.8-3.9-10.6-10.5-10.6c-6.2,0-8.1,3.4-8.1,3.4
			V13h-5v17.1c0-3.7-2.3-9.3-10.8-9.3c-6.3,0-11.5,2.7-11.5,10.8c0,6.4,3.6,10.6,11.8,10.6c9.7,0,10.3-6.2,10.3-6.2h-4.7
			c0,0-1,3.4-5.9,3.4c-4,0-6.8-3.4-6.8-6.4h17.6v5c0,1.4,0.2,3,0.2,3h4.5c0,0,0.2-1.2,0.2-2.5c0,0,2.2,3.6,8.2,3.6
			c5.1,0,8.9-2.8,10.2-7.3c0,0.2,0,0.5,0,0.7c0,4.3,3.6,6.7,8.5,6.7c6.6,0,8.8-3.9,8.8-3.9c0,1.5,0.1,2.7,0.1,2.7H68
			c0,0,0.2-1.4,0.2-2.5v-9.8c0-1.3-0.4-2.4-0.8-3.3l8.4,16L71.7,49h5.1l13.9-27h-4.8L78.2,37.3z M5.8,30c0-4,3.4-5.8,6.7-5.8
			c3.8,0,6.4,1.8,6.4,5.8H5.8z M35.2,39c-4.6,0-7.1-3.6-7.1-7.5c0-3.7,2.2-7.5,7-7.5c4.3,0,7,3.2,7,7.5C42.2,36,39,39,35.2,39
			L35.2,39z M63.2,33.3c0,1.7-1,5.9-7.2,5.9c-3.4,0-4.8-1.7-4.8-3.6c0-3.6,5.1-3.6,12.1-3.6V33.3z M63.2,33.3"/>
	</g>
	<g>
		<g>
			<path class="st0" d="M394.8,28.3c-0.1-6.8,5.5-10,5.8-10.2c-3.1-4.6-8-5.2-9.8-5.3c-4.2-0.4-8.1,2.5-10.2,2.5
				c-2.1,0-5.4-2.4-8.8-2.3c-4.5,0.1-8.7,2.6-11.1,6.7c-4.7,8.2-1.2,20.3,3.4,26.9c2.2,3.2,4.9,6.9,8.4,6.8c3.4-0.1,4.7-2.2,8.8-2.2
				c4.1,0,5.2,2.2,8.8,2.1c3.6-0.1,5.9-3.3,8.2-6.6c2.6-3.8,3.6-7.4,3.7-7.6C401.9,39.1,394.8,36.4,394.8,28.3L394.8,28.3z M388,8.4
				c1.9-2.3,3.1-5.4,2.8-8.5c-2.7,0.1-5.9,1.8-7.9,4c-1.7,2-3.2,5.2-2.8,8.3C383.1,12.5,386.2,10.7,388,8.4L388,8.4z M388,8.4"/>
		</g>
	</g>
	<g>
		<path class="st1" d="M519.2,1h2c2.3,0,3,2.2,3,3.8v24.3c0,1.7-0.7,2.9-2.7,2.9h-2.3V1L519.2,1z M521.3,0h-9.1v1h2v55h-2v1h10v-1
			h-3V34h2.8c4.4,0,7.2-2.8,7.2-5.9V6.2C529.2,3.1,526.8,0,521.3,0L521.3,0z"/>
		<path class="st1" d="M472.2,1c0,0.9-0.6,0.8-1,0.5c-1.6-1-3.5-1.8-5.2-1.8c-2.7,0-6.8,1.4-6.8,7.1v41.8c0,7.3,3.7,8.7,7.1,8.7
			c2.7,0.1,4.1-1.3,5.1-1.8c0.6-0.2,1.3,0.5,1.3,1.5h1.5V30h2v-1h-10v1h3v23c0,1.9-0.9,3.3-2.6,3.3c-1.6,0-2.4-1.5-2.4-3.3v-48
			c0-1.3,0-4.3,2-4.3c3.9,0,5.7,11.3,5.7,17.3h1.2V0h-1V1L472.2,1z"/>
		<path class="st1" d="M489.1,33l2.7-24.4l2.8,24.4H489.1L489.1,33z M494.8,33l2.5,23h-2.1v1h9v-1h-2.5l-6.2-56h-3.9l-6,52.5
			c-0.3,1.9-0.3,3.2-3.3,3.2V57h7v-1.2c-2,0-2.8-1.5-2.6-2.8L489,33H494.8L494.8,33z"/>
	</g>
	<g>
		<path class="st0" d="M150.5,23.2c1.7-3.9,5.5-13.9,6.1-15.9c0.1-0.4,0.3-0.8,0.3-1.1c0-0.2-0.1-0.5-0.4-0.7
			c-0.3-0.1-0.8-0.1-1.1-0.1c-0.2,0-0.3,0-0.3-0.2c0-0.2,0.2-0.2,0.6-0.2c1.1,0,2.5,0.1,2.8,0.1c0.2,0,1.4-0.1,2.2-0.1
			c0.3,0,0.5,0.1,0.5,0.2c0,0.1-0.1,0.2-0.3,0.2c-0.2,0-0.8,0-1.4,0.3c-0.4,0.3-0.8,0.7-1.6,2.7c-0.3,0.8-1.8,4.3-3.2,7.8
			c-1.8,4.2-3,7.3-3.7,8.7c-0.8,1.7-0.9,2.2-1.2,2.2c-0.3,0-0.5-0.4-1-1.8l-7-17.6c-0.6-1.6-1.1-1.9-2.1-2.2
			c-0.4-0.1-0.9-0.1-1.1-0.1c-0.2,0-0.2-0.1-0.2-0.2c0-0.2,0.3-0.2,0.7-0.2c1.4,0,3,0.1,3.4,0.1c0.3,0,1.6-0.1,2.7-0.1
			c0.5,0,0.8,0.1,0.8,0.2c0,0.1-0.1,0.2-0.3,0.2c-0.3,0-0.8,0-1.1,0.1c-0.3,0.1-0.4,0.4-0.4,0.6c0,0.4,0.3,1.3,0.8,2.4L150.5,23.2z"
			/>
		<path class="st0" d="M168.2,19.2c0,2.5-0.2,4.5,0,5.6c0.1,0.7,0.1,1.3,0.9,1.4c0.4,0.1,0.9,0.1,1.1,0.1c0.2,0,0.2,0.1,0.2,0.2
			c0,0.1-0.1,0.2-0.4,0.2c-1.4,0-3-0.1-3.2-0.1c-0.1,0-1.8,0.1-2.5,0.1c-0.3,0-0.4-0.1-0.4-0.2c0-0.1,0.1-0.2,0.2-0.2
			c0.2,0,0.5-0.1,0.8-0.1c0.5-0.1,0.9-0.7,1-1.4c0.1-1.1,0.4-3.1,0.4-5.6v-4.5c0-4-0.2-4.7-0.3-5.6c-0.1-0.9-0.4-1.3-1-1.4
			c-0.3-0.1-0.7-0.1-0.9-0.1c-0.1,0-0.2-0.1-0.2-0.2c0-0.2,0.1-0.2,0.4-0.2c0.9,0,2.5,0.1,2.6,0.1c0.1,0,1.7-0.1,2.5-0.1
			c0.3,0,0.4,0.1,0.4,0.2c0,0.1-0.1,0.2-0.2,0.2c-0.2,0-0.3,0-0.6,0.1c-0.7,0.1-0.7,0.6-0.8,1.5c-0.1,0.8,0.1,1.5,0.1,5.6V19.2z"/>
		<path class="st0" d="M176.5,24.3c-2.5-2.2-3.1-5.2-3.1-7.6c0-1.7,0.6-4.7,2.9-7c1.5-1.5,3.9-2.8,7.9-2.8c1,0,2.5,0.1,3.7,0.3
			c1,0.2,1.8,0.3,2.6,0.4c0.3,0,0.3,0.1,0.3,0.3c0,0.2-0.1,0.5-0.1,1.4c-0.1,0.8-0.1,2.3-0.1,2.7c0,0.4-0.1,0.5-0.2,0.5
			c-0.2,0-0.2-0.2-0.2-0.5c0-1-0.4-2.1-1.1-2.6c-0.9-0.8-2.9-1.5-5.1-1.5c-3.4,0-5,1-5.9,1.9c-1.9,1.8-2.3,4.1-2.3,6.7
			c0,4.9,3.8,9.4,9.3,9.4c1.9,0,3.4-0.2,4.5-1.3c0.5-0.6,0.9-1.7,1-2.2c0.1-0.3,0.1-0.4,0.3-0.4c0.1,0,0.2,0.2,0.2,0.4
			c0,0.2-0.3,2.4-0.6,3.3c-0.2,0.5-0.2,0.5-0.7,0.7c-1,0.4-3,0.6-4.6,0.6C181.1,27.1,178.5,26.1,176.5,24.3z"/>
		<path class="st0" d="M203.2,19.2c0,2.5-0.1,4.5,0,5.6c0.1,0.7,0.2,1.3,0.9,1.4c0.4,0.1,0.9,0.1,1.1,0.1c0.2,0,0.2,0.1,0.2,0.2
			c0,0.1-0.1,0.2-0.4,0.2c-1.4,0-3-0.1-3.2-0.1c-0.1,0-1.8,0.1-2.5,0.1c-0.3,0-0.4-0.1-0.4-0.2c0-0.1,0.1-0.2,0.2-0.2
			c0.2,0,0.5-0.1,0.8-0.1c0.5-0.1,0.8-0.7,0.9-1.4c0.1-1.1,0.3-3.1,0.3-5.6V8.4l-4,0.1c-1.6,0-2.3,0.2-2.7,0.8
			c-0.3,0.4-0.4,0.6-0.5,0.8c-0.1,0.2-0.2,0.3-0.3,0.3c-0.1,0-0.1-0.1-0.1-0.2c0-0.3,0.5-2.5,0.6-2.7c0.1-0.2,0.2-0.5,0.3-0.5
			c0.2,0,0.4,0.1,1.1,0.1c0.7,0.1,1.7,0,2,0h9.7c0.8,0,1.4,0.1,1.8,0c0.4-0.1,0.6,0,0.7,0c0.1,0,0.1,0.2,0.1,0.3
			c0,0.8-0.1,2.6-0.1,2.9c0,0.2-0.1,0.3-0.2,0.3c-0.1,0-0.2-0.1-0.2-0.4l0-0.3c-0.1-0.8-0.6-1.4-3.1-1.4l-3.1-0.1V19.2z"/>
		<path class="st0" d="M222.9,6.9c5.8,0,10.1,3.7,10.1,9.7c0,5.8-4.1,10.5-10.3,10.5c-7.1,0-10-5.5-10-10.1
			C212.8,12.8,215.8,6.9,222.9,6.9z M223.4,26.1c2.3,0,7.1-1.3,7.1-8.8c0-6.2-3.8-9.5-7.8-9.5c-4.3,0-7.5,2.8-7.5,8.5
			C215.2,22.2,218.8,26.1,223.4,26.1z"/>
		<path class="st0" d="M238.2,14.7c0-4-0.1-4.7-0.1-5.6c-0.1-0.9-0.3-1.3-1.1-1.5c-0.2-0.1-0.7-0.1-0.9-0.1c-0.1,0-0.2-0.1-0.2-0.2
			c0-0.2,0.1-0.2,0.4-0.2c1.2,0,2.8,0.1,2.9,0.1c0.3,0,2.2-0.1,3-0.1c1.6,0,3.3,0.2,4.7,1.1c0.6,0.5,1.8,1.7,1.8,3.5
			c0,1.9-0.8,3.8-3.1,5.9c2.1,2.7,3.9,5,5.4,6.6c1.4,1.5,2.5,1.8,3.1,1.9c0.5,0.1,0.8,0.1,1,0.1c0.1,0,0.2,0.2,0.2,0.3
			c0,0.2-0.2,0.3-0.6,0.3h-1.8c-1.4,0-2.1-0.3-2.8-0.6c-1.1-0.6-2-1.9-3.5-3.9c-1.1-1.4-2.3-3.2-2.8-3.8c-0.1-0.1-0.2-0.2-0.3-0.2
			l-3.1-0.1c-0.1,0-0.1,0.1-0.1,0.2v0.6c0,2.5,0,4.5,0.1,5.6c0.1,0.7,0.2,1.3,1,1.4c0.4,0.1,0.9,0.1,1.1,0.1c0.2,0,0.2,0.1,0.2,0.2
			c0,0.1-0.1,0.2-0.4,0.2c-1.4,0-3-0.1-3.2-0.1c0,0-1.7,0.1-2.4,0.1c-0.3,0-0.4-0.1-0.4-0.2c0-0.1,0.1-0.2,0.2-0.2
			c0.2,0,0.5-0.1,0.8-0.1c0.5-0.1,0.7-0.7,0.8-1.4c0.1-1.1,0.2-3.1,0.2-5.6V14.7z M240.2,17c0,0.1,0,0.2,0.1,0.3
			c0.4,0.2,1.5,0.4,2.7,0.4c0.6,0,1.3-0.1,1.9-0.5c0.9-0.6,1.6-2,1.6-4c0-3.2-1.7-5.1-4.5-5.1c-0.8,0-1.4,0.1-1.7,0.2
			c-0.1,0.1-0.2,0.2-0.2,0.3V17z"/>
		<path class="st0" d="M261.2,19.2c0,2.5-0.2,4.5-0.1,5.6c0.1,0.7,0.1,1.3,0.9,1.4c0.4,0.1,0.9,0.1,1.1,0.1c0.2,0,0.2,0.1,0.2,0.2
			c0,0.1-0.1,0.2-0.4,0.2c-1.4,0-3-0.1-3.2-0.1c-0.1,0-1.8,0.1-2.5,0.1c-0.3,0-0.4-0.1-0.4-0.2c0-0.1,0.1-0.2,0.2-0.2
			c0.2,0,0.5-0.1,0.8-0.1c0.5-0.1,0.4-0.7,0.5-1.4c0.1-1.1-0.1-3.1-0.1-5.6v-4.5c0-4,0.2-4.7,0.2-5.6c-0.1-0.9-0.2-1.3-0.8-1.4
			c-0.3-0.1-0.6-0.1-0.7-0.1c-0.1,0-0.2-0.1-0.2-0.2c0-0.2,0.1-0.2,0.4-0.2c0.8,0,2.5,0.1,2.6,0.1c0.1,0,1.8-0.1,2.5-0.1
			c0.3,0,0.4,0.1,0.4,0.2c0,0.1-0.1,0.2-0.2,0.2c-0.2,0-0.3,0-0.6,0.1c-0.7,0.1-0.7,0.6-0.7,1.5c-0.1,0.8,0.2,1.5,0.2,5.6V19.2z"/>
		<path class="st0" d="M275.4,7.9c0.3-0.8,0.4-1,0.6-1c0.2,0,0.3,0.1,0.6,0.9c0.4,1,4.4,11.6,6,15.5c0.9,2.3,1.7,2.7,2.2,2.9
			c0.4,0.1,0.8,0.2,1,0.2c0.2,0,0.3,0,0.3,0.2c0,0.2-0.2,0.2-0.5,0.2c-0.4,0-2.3,0-4-0.1c-0.5,0-0.8,0-0.8-0.2
			c0-0.1,0.1-0.2,0.2-0.2c0.2-0.1,0.3-0.3,0.2-0.7l-2.4-6.4c-0.1-0.1-0.1-0.2-0.2-0.2h-5.5c-0.1,0-0.2,0.1-0.3,0.3l-1.5,4.6
			c-0.2,0.6-0.4,1.1-0.4,1.6c0,0.5,0.5,0.6,1,0.6h0.3c0.2,0,0.3,0.2,0.3,0.3c0,0.2-0.2,0.3-0.4,0.3c-0.6,0-1.7,0-2,0
			c-0.3,0-1.7,0.1-2.9,0.1c-0.3,0-0.5,0-0.5-0.2c0-0.1,0.1-0.1,0.2-0.1c0.2,0,0.5,0,0.7,0c1.2-0.2,1.7-1.1,2.2-2.4L275.4,7.9z
			 M278,18c0.1,0,0.1,0,0.1-0.1l-2.4-6.9c-0.1-0.4-0.3-0.4-0.4,0l-2.3,6.9c-0.1,0.1,0,0.1,0.1,0.1H278z"/>
		<path class="st0" d="M292.9,26.4c-0.4-0.2-0.4-0.3-0.4-1c0-1.3,0.1-2.3,0.1-2.7c0-0.3,0.1-0.4,0.2-0.4c0.2,0,0.2,0.1,0.2,0.3
			c0,0.2,0,0.6,0.1,1c0.4,1.9,2.1,2.6,3.8,2.6c2.5,0,3.7-1.8,3.7-3.4c0-1.8-0.7-2.8-3-4.6l-1.2-1c-2.7-2.2-3.3-3.8-3.3-5.6
			c0-2.8,2.1-4.6,5.3-4.6c1,0,1.8,0.1,2.4,0.3c0.5,0.1,0.7,0.1,0.9,0.1c0.2,0,0.3,0.1,0.3,0.2c0,0.1-0.1,1-0.1,2.7
			c0,0.4-0.1,0.6-0.2,0.6c-0.2,0-0.2-0.1-0.2-0.3c0-0.3-0.2-1-0.3-1.3c-0.2-0.3-0.8-1.4-3.2-1.4c-1.8,0-3.2,1.1-3.2,3
			c0,1.5,0.7,2.4,3.1,4.3l0.7,0.6c3,2.4,3.8,4,3.8,6c0,1.1-0.4,3-2.2,4.3c-1.1,0.8-2.5,1.1-3.9,1.1C295.1,27.1,294,26.9,292.9,26.4z
			"/>
		<path class="st0" d="M173.1,54.5c-0.4-0.2-0.4-0.3-0.4-1.1c0-1.4,0.1-2.6,0.1-3c0-0.3,0.1-0.5,0.2-0.5c0.2,0,0.2,0.1,0.2,0.3
			c0,0.3,0,0.7,0.1,1.1c0.4,2.1,2.3,2.9,4.3,2.9c2.8,0,4.1-2,4.1-3.8c0-2-0.8-3.1-3.3-5.2l-1.3-1.1c-3-2.5-3.7-4.3-3.7-6.2
			c0-3.1,2.3-5.2,5.9-5.2c1.1,0,2,0.1,2.7,0.3c0.5,0.1,0.8,0.1,1,0.1c0.2,0,0.3,0.1,0.3,0.2c0,0.1-0.1,1.1-0.1,3
			c0,0.5-0.1,0.7-0.2,0.7c-0.2,0-0.2-0.1-0.2-0.4c0-0.3-0.2-1.1-0.4-1.4c-0.2-0.3-0.9-1.5-3.6-1.5c-2,0-3.5,1.2-3.5,3.3
			c0,1.6,0.7,2.7,3.5,4.8l0.8,0.6c3.4,2.7,4.2,4.5,4.2,6.8c0,1.2-0.5,3.4-2.4,4.8c-1.2,0.9-2.8,1.2-4.3,1.2
			C175.6,55.3,174.3,55.1,173.1,54.5z"/>
		<path class="st0" d="M191.2,42.9c0-4,0.2-4.7,0.1-5.6c-0.1-0.9-0.2-1.3-1-1.5c-0.2-0.1-0.6-0.1-0.8-0.1c-0.1,0-0.2-0.1-0.2-0.2
			c0-0.2,0.1-0.2,0.4-0.2c0.6,0,1.3,0,1.9,0l1.1,0.1c0.2,0,5.3,0,5.9,0c0.5,0,0.9-0.1,1.1-0.1c0.1,0,0.2-0.1,0.4-0.1
			c0.1,0,0.1,0.1,0.1,0.2c0,0.2-0.1,0.5-0.2,1.2c0,0.3-0.1,1.4-0.1,1.7c0,0.1-0.1,0.3-0.2,0.3c-0.2,0-0.2-0.1-0.2-0.3
			c0-0.2,0-0.6-0.2-0.9c-0.2-0.4-0.4-0.7-1.8-0.9c-0.4-0.1-3.5-0.1-3.8-0.1c-0.1,0-0.4,0.1-0.4,0.3v7.1c0,0.2,0.3,0.3,0.4,0.3
			c0.3,0,3.6,0,4.2-0.1c0.6-0.1,1-0.1,1.3-0.4c0.2-0.2,0.3-0.3,0.4-0.3c0.1,0,0.1,0.1,0.1,0.2c0,0.2-0.1,0.6-0.2,1.4
			c-0.1,0.5-0.1,1.5-0.1,1.6c0,0.2,0,0.5-0.2,0.5c-0.1,0-0.2-0.1-0.2-0.2c0-0.3,0-0.5-0.1-0.8c-0.1-0.4-0.3-0.8-1.3-0.9
			c-0.7-0.1-3.5-0.1-3.9-0.1c-0.1,0-0.4,0.1-0.4,0.2v2.3c0,0.9,0.2,3.9,0.2,4.4c0.1,1.8,0.6,2.1,3.1,2.1c0.7,0,1.9,0,2.5-0.3
			c0.7-0.3,1-0.8,1.2-1.9c0.1-0.3,0.1-0.4,0.2-0.4c0.2,0,0.2,0.2,0.2,0.4c0,0.2-0.2,2-0.3,2.5C200.2,55,200,55,199,55
			c-1.9,0-3.3-0.1-4.4-0.1c-1-0.1-1.6-0.1-2-0.1c-0.1,0-0.5,0-1,0c-0.5,0-1.1,0.1-1.5,0.1c-0.3,0-0.4-0.1-0.4-0.2
			c0-0.1,0.1-0.2,0.2-0.2c0.2,0,0.5-0.1,0.8-0.1c0.5-0.1,0.5-0.7,0.6-1.4c0.1-1.1,0-3.1,0-5.6V42.9z"/>
		<path class="st0" d="M208,52.5c-2.5-2.2-3.1-5.2-3.1-7.6c0-1.7,0.6-4.7,2.9-7c1.5-1.5,3.9-2.8,7.9-2.8c1,0,2.5,0.1,3.7,0.3
			c1,0.2,1.8,0.3,2.6,0.4c0.3,0,0.3,0.1,0.3,0.3c0,0.2-0.1,0.5-0.1,1.4c-0.1,0.8-0.1,2.3-0.1,2.7c0,0.4-0.1,0.5-0.2,0.5
			c-0.2,0-0.2-0.2-0.2-0.5c0-1-0.4-2.1-1.1-2.6c-0.9-0.8-2.9-1.5-5.2-1.5c-3.4,0-5,1-5.9,1.9c-1.9,1.8-2.3,4.1-2.3,6.7
			c0,4.9,3.8,9.4,9.3,9.4c1.9,0,3.4-0.2,4.5-1.3c0.5-0.6,0.9-1.7,1-2.2c0.1-0.3,0.1-0.4,0.3-0.4c0.1,0,0.2,0.2,0.2,0.4
			c0,0.2-0.3,2.4-0.6,3.3c-0.2,0.5-0.2,0.5-0.7,0.7c-1,0.4-3,0.6-4.6,0.6C212.7,55.3,210.1,54.3,208,52.5z"/>
		<path class="st0" d="M227.2,42.9c0-4,0.2-4.7,0.2-5.6c-0.1-0.9-0.1-1.3-1-1.5c-0.2-0.1-0.6-0.1-0.8-0.1c-0.1,0-0.2-0.1-0.2-0.2
			c0-0.2,0.1-0.2,0.4-0.2c1.2,0,2.8,0.1,2.9,0.1c0.3,0,2.2-0.1,3-0.1c1.6,0,3.3,0.2,4.7,1.1c0.6,0.5,1.8,1.7,1.8,3.5
			c0,1.9-0.8,3.8-3.1,5.9c2.1,2.7,3.9,5,5.4,6.6c1.4,1.5,2.5,1.8,3.1,1.9c0.5,0.1,0.8,0.1,1,0.1c0.1,0,0.2,0.1,0.2,0.2
			c0,0.2-0.2,0.2-0.6,0.2h-1.8c-1.4,0-2.1-0.2-2.8-0.5c-1.1-0.6-2-1.9-3.5-3.8c-1.1-1.4-2.3-3.2-2.8-3.8c-0.1-0.1-0.2-0.2-0.3-0.2
			l-2.9-0.1c-0.1,0,0.1,0.1,0.1,0.2v0.6c0,2.5-0.2,4.5-0.1,5.6c0.1,0.7,0.1,1.3,0.9,1.4c0.4,0.1,0.9,0.1,1.1,0.1
			c0.2,0,0.2,0.1,0.2,0.2c0,0.1-0.1,0.2-0.4,0.2c-1.4,0-3-0.1-3.2-0.1c0,0-1.7,0.1-2.4,0.1c-0.3,0-0.4-0.1-0.4-0.2
			c0-0.1,0.1-0.2,0.2-0.2c0.2,0,0.5-0.1,0.8-0.1c0.5-0.1,0.4-0.7,0.5-1.4c0.1-1.1-0.1-3.1-0.1-5.6V42.9z M230.2,45.2
			c0,0.1-0.2,0.2-0.1,0.3c0.4,0.2,1.5,0.4,2.6,0.4c0.6,0,1.3-0.1,1.9-0.5c0.9-0.6,1.5-2,1.5-4c0-3.2-1.7-5.1-4.5-5.1
			c-0.8,0-1.2,0.1-1.5,0.2c-0.1,0.1,0,0.2,0,0.3V45.2z"/>
		<path class="st0" d="M248.2,42.9c0-4,0-4.7,0-5.6c-0.1-0.9-0.2-1.3-1.1-1.5c-0.2-0.1-0.6-0.1-0.9-0.1c-0.1,0-0.2-0.1-0.2-0.2
			c0-0.2,0.1-0.2,0.4-0.2c0.6,0,1.3,0,1.9,0l1.1,0.1c0.2,0,5.3,0,5.9,0c0.5,0,0.9-0.1,1.1-0.1c0.1,0,0.2-0.1,0.4-0.1
			c0.1,0,0.1,0.1,0.1,0.2c0,0.2-0.1,0.5-0.2,1.2c0,0.3-0.1,1.4-0.1,1.7c0,0.1-0.1,0.3-0.2,0.3c-0.2,0-0.2-0.1-0.2-0.3
			c0-0.2,0-0.6-0.2-0.9c-0.2-0.4-0.4-0.7-1.8-0.9c-0.4-0.1-3.3-0.1-3.6-0.1c-0.1,0-0.3,0.1-0.3,0.3v7.1c0,0.2,0.1,0.3,0.3,0.3
			c0.3,0,3.6,0,4.1-0.1c0.6-0.1,1-0.1,1.2-0.4c0.2-0.2,0.3-0.3,0.4-0.3c0.1,0,0.1,0.1,0.1,0.2c0,0.2-0.1,0.6-0.2,1.4
			c-0.1,0.5-0.1,1.5-0.1,1.6c0,0.2,0,0.5-0.2,0.5c-0.1,0-0.2-0.1-0.2-0.2c0-0.3,0-0.5-0.1-0.8c-0.1-0.4-0.3-0.8-1.3-0.9
			c-0.7-0.1-3.3-0.1-3.8-0.1c-0.1,0-0.3,0.1-0.3,0.2v2.3c0,0.9,0.1,3.9,0.1,4.4c0.1,1.8,0.5,2.1,3,2.1c0.7,0,1.8,0,2.5-0.3
			c0.7-0.3,1-0.8,1.2-1.9c0-0.3,0.1-0.4,0.2-0.4c0.2,0,0.2,0.2,0.2,0.4c0,0.2-0.2,2-0.3,2.5c-0.2,0.7-0.4,0.7-1.4,0.7
			c-1.9,0-3.3-0.1-4.4-0.1c-1-0.1-1.6-0.1-2-0.1c-0.1,0-0.5,0-1,0c-0.5,0-1.1,0.1-1.5,0.1c-0.3,0-0.4-0.1-0.4-0.2
			c0-0.1,0.1-0.2,0.2-0.2c0.2,0,0.5-0.1,0.8-0.1c0.5-0.1,0.6-0.7,0.7-1.4c0.1-1.1,0.1-3.1,0.1-5.6V42.9z"/>
		<path class="st0" d="M270.2,47.4c0,2.5-0.1,4.5,0.1,5.6c0.1,0.7,0.2,1.3,1,1.4c0.4,0.1,0.9,0.1,1.1,0.1c0.2,0,0.2,0.1,0.2,0.2
			c0,0.1-0.1,0.2-0.4,0.2c-1.4,0-3-0.1-3.2-0.1c-0.1,0-1.8,0.1-2.5,0.1c-0.3,0-0.4-0.1-0.4-0.2c0-0.1,0.1-0.2,0.2-0.2
			c0.2,0,0.5-0.1,0.8-0.1c0.5-0.1,0.8-0.7,0.9-1.4c0.1-1.1,0.3-3.1,0.3-5.6V36.6l-4,0.1c-1.6,0-2.3,0.2-2.7,0.8
			c-0.3,0.4-0.4,0.6-0.5,0.8c-0.1,0.2-0.2,0.3-0.3,0.3c-0.1,0-0.1-0.1-0.1-0.2c0-0.3,0.5-2.5,0.6-2.7c0-0.2,0.2-0.5,0.3-0.5
			c0.2,0,0.4,0.5,1.1,0.5c0.7,0.1,1.7,0.4,2,0.4h9.7c0.8,0,1.4-0.3,1.8-0.4c0.4-0.1,0.6-0.2,0.7-0.2c0.1,0,0.1,0.1,0.1,0.3
			c0,0.8-0.1,2.5-0.1,2.8c0,0.2-0.1,0.3-0.2,0.3c-0.1,0-0.2-0.1-0.2-0.4l0-0.3c-0.1-0.8-0.6-1.4-3.1-1.4l-3.2-0.1V47.4z"/>
	</g>
	<g>
		<path class="st1" d="M718.4,28.4c-2.2-0.3-4.1-0.4-4.1-1.6c0-0.4,0.3-0.9,0.7-1.2c0.4-0.3,1.3-0.4,2-0.4c0.7,0,1.4,0.2,1.8,0.6
			c0.3,0.3,0.6,1.2,0.6,1.2h3.5c-0.1-1-0.6-2.4-1.6-3.1c-1-0.7-2.2-1.5-4-1.5c-1.7,0-3.3,0.1-4.4,0.9c-1.1,0.8-1.9,2.2-1.9,3.4
			c0,0.7-0.1,1.5,0.2,2c0.3,0.5,1.1,1.5,1.8,1.9c0.9,0.5,3.1,0.7,4.2,1.1c1,0.2,2.2,0.3,2.4,1.3c0.2,0.6,0,1.1-0.6,1.4
			c-0.5,0.3-1.3,0.6-2.1,0.6c-0.9,0-1.7-0.5-2.1-1c-0.4-0.5-0.6-0.9-0.9-1.9h-3.5c0.1,2,1,3.4,2.1,4.3c1.1,0.9,2.5,1.4,4.4,1.4
			c1.8,0,3.4-0.3,4.6-1.1c1.2-0.8,1.8-2.4,1.8-3.7c0-1.1-0.3-2-0.8-2.6C721.5,28.9,719.7,28.6,718.4,28.4"/>
		<polygon class="st1" points="672.2,37 676.2,37 676.2,23 672.2,23 672.2,37 		"/>
		<polygon class="st1" points="672.2,22 676.2,22 676.2,18 672.2,18 672.2,22 		"/>
		<path class="st1" d="M667.2,24.6c0-1-2.9-1.6-4.8-1.6c-0.1,0-0.1,0-0.2,0c-4.1,0-7.4,3.4-7.4,7.5c0,4.1,3.3,7.5,7.4,7.5
			c0.1,0,0.1,0,0.2,0c1.8,0,3.5-1.2,4.8-2.4l0,1.4h2.9V18h-3V24.6L667.2,24.6z M662.2,35h0.2c-2.4,0-4.4-2.1-4.4-4.5
			c0-2.4,2-4.5,4.4-4.5h0c2.4,0,4.4,2.1,4.4,4.5c0,2.4-2,4.5-4.4,4.5"/>
		<path class="st1" d="M689.3,24.6c-1.3-1-3-1.6-4.8-1.6c-0.1,0-0.1,0-0.2,0c-4.1,0-7.4,3.4-7.4,7.5c0,4.1,3.3,7.5,7.4,7.5
			c0.1,0,0.1,0,0.2,0c1.8-1,3.8-1.2,4.8-2.5V37h3V18h-3L689.3,24.6L689.3,24.6z M684.5,34.5c-2.4,0-4.4-2-4.4-4.4
			c0-2.4,2-4.4,4.4-4.4c2.4,0,4.4,2,4.4,4.4C688.9,32.5,686.9,34.5,684.5,34.5"/>
		<path class="st1" d="M651.2,22.7v1.4c-1-0.7-1.1-1.1-1.9-1.4c-0.7-0.3-1.8-0.7-2.7-0.7c-0.1,0-0.1,0-0.2,0c-1.1,0-2.1,0.3-3,0.7
			c-0.9,0.4-1.7,1-2.4,1.8c-0.7,0.7-1.2,1.6-1.6,2.5c-0.3,0.9-0.5,1.9-0.5,2.9c0,2.2,0.7,4.3,2.2,5.7c1.4,1.5,3.3,2.4,5.5,2.4
			c0,0,0,0,0,0c0.9,0,2-0.4,2.8-0.7c0.8-0.3,0.9-0.7,1.9-1.2v1.3l3.3,0l0-14.7L651.2,22.7L651.2,22.7z M646.2,34h0.3
			c-2.4,0-4.4-1.6-4.4-4c0-2.4,1.9-4,4.4-4c0,0,0,0,0,0c2.4,0,4.4,1.6,4.4,4c0,2.4-2,4-4.4,4"/>
		<path class="st1" d="M705.3,23l0,1.2c-0.7-0.7-1-1.2-1.8-1.5c-0.7-0.3-1.7-0.7-2.6-0.7c-0.1,0-0.1,0-0.2,0c-1.1,0-2.1,0.3-3,0.7
			c-0.9,0.4-1.7,1-2.4,1.8c-0.7,0.7-1.2,1.6-1.6,2.5c-0.3,0.9-0.6,1.9-0.6,2.9c0,2.2,0.8,4.1,2.2,5.5c1.4,1.4,3.3,2.2,5.5,2.2
			c0.9,0,1.8-0.2,2.6-0.5c0.8-0.3,1.7-0.5,1.7-1v1.3l3.5,0.2l0-14.5H705.3L705.3,23z M700.9,34.3c-2.4,0-4.4-2-4.4-4.4
			c0-2.4,2-4.3,4.4-4.4c2.4,0,4.4,2,4.4,4.4C705.3,32.3,703.3,34.3,700.9,34.3"/>
		<polygon class="st1" points="632.2,22 587.2,22 587.2,16 632.2,16 632.2,22 		"/>
		<polygon class="st1" points="632.2,31 587.2,31 587.2,26 632.2,26 632.2,31 		"/>
		<polygon class="st1" points="632.2,41 587.2,41 587.2,36 632.2,36 632.2,41 		"/>
	</g>
</g>
</svg>
