<?xml version="1.0" encoding="utf-8"?>
<!-- Generator: Adobe Illustrator 19.0.0, SVG Export Plug-In . SVG Version: 6.00 Build 0)  -->
<svg version="1.1" id="Layer_1" xmlns="http://www.w3.org/2000/svg" xmlns:xlink="http://www.w3.org/1999/xlink" x="0px" y="0px"
	 viewBox="0 -0.5 190 161.5" style="enable-background:new 0 -0.5 190 161.5;" xml:space="preserve">
<style type="text/css">
	
		.st0{fill-rule:evenodd;clip-rule:evenodd;fill:#78CF29;fill-opacity:8.000000e-02;stroke:#78CF29;stroke-miterlimit:10;stroke-opacity:0.3;}
	.st1{fill-rule:evenodd;clip-rule:evenodd;fill:#45CF29;}
	.st2{fill:#FFFFFF;}
	.st3{fill:#662D91;}
	.st4{fill:#92D2C5;}
	.st5{fill:#006299;}
	.st6{fill:#72BDB8;}
	.st7{fill:#FFD100;}
	.st8{fill:#702727;}
	.st9{fill:#E61A4B;}
	.st10{fill:#FE5917;}
	.st11{fill:#0071BC;}
	.st12{fill:#8CC63F;}
	.st13{fill:#600816;}
</style>
<g>
	<circle class="st0" cx="95.2" cy="73.9" r="73.7"/>
	<circle class="st1" cx="96.5" cy="146.5" r="14.5"/>
	<g>
		<g>
			<path class="st2" d="M99.8,152h-7.5v-1.6l2.7-2.7c0.8-0.8,1.3-1.4,1.6-1.7c0.2-0.3,0.4-0.6,0.5-0.9c0.1-0.3,0.2-0.5,0.2-0.8
				c0-0.4-0.1-0.8-0.4-1S96.4,143,96,143c-0.4,0-0.8,0.1-1.2,0.3c-0.4,0.2-0.8,0.5-1.2,0.8l-1.2-1.5c0.5-0.4,1-0.8,1.3-1
				s0.7-0.3,1.1-0.4c0.4-0.1,0.9-0.1,1.4-0.1c0.7,0,1.3,0.1,1.8,0.4c0.5,0.2,0.9,0.6,1.2,1s0.4,0.9,0.4,1.5c0,0.5-0.1,1-0.3,1.4
				c-0.2,0.4-0.4,0.9-0.8,1.3s-1,1.1-1.9,1.9l-1.4,1.3v0.1h4.7V152z"/>
		</g>
	</g>
	<g>
		<circle class="st3" cx="42.8" cy="99.1" r="20.3"/>
		<g>
			<path class="st2" d="M32,104.4c0.9-0.2,2-0.7,3.3-1.7c0,0,2.7,1.8,4.9-0.9c2.2-2.6,4.7-7.7,6.2-9.7c1.5-2,5.2-5,6.7-4.4
				c0,0,0.8,4.8-0.2,6.7c-1.1,1.9-4.6,2.4-6,4.5c-1.4,2-2.7,7.2-4.5,8c-1.8,0.8-10.8,0.3-11.8,0.3C29.9,107.2,23.8,106.5,32,104.4z"
				/>
			<path class="st2" d="M48.1,98.3c3.5-0.7,2.2,8.8,2.2,8.8h0.6c0,0,0.5-5.1,0.8-6.8c0.3-1.7,1.4-5.3,1.4-5.3
				C52,96.4,49.6,97,48.1,98.3z"/>
			<path class="st2" d="M37.3,102.8c0.4-0.2,0.8-0.5,1.2-0.9c2.5-2.6,5.3-7.6,7-9.5c1.1-1.3,3.3-3,5.3-3.9c-2.1,0.6-5.2,2.6-6.6,4.1
				c-1.8,1.9-4.8,6.8-7.4,9.3c-0.3,0.2-0.5,0.4-0.8,0.6C36.3,102.6,36.7,102.8,37.3,102.8z"/>
		</g>
		<rect x="63.7" y="35.9" class="st4" width="73.1" height="78.6"/>
		<polygon class="st5" points="124,40.1 136.8,35.9 136.8,114.6 124,118.7 		"/>
		<polygon class="st6" points="124,118.7 129.3,125 129,45.7 124,40.1 		"/>
		<polygon class="st5" points="74,40.1 63.7,35.9 63.7,114.6 74,118.7 		"/>
		<polygon class="st6" points="74,118.7 56.5,124.3 56.5,45.7 74,40.1 		"/>
		<g>
			<circle class="st7" cx="48.8" cy="20.8" r="16.2"/>
			<g>
				<g>
					<path class="st8" d="M49.1,13.9c0.9-0.2,1.6-1.1,1.6-2.1c0-1.2-1-2.1-2.1-2.1c-1.2,0-2.1,0.9-2.1,2.1c0,0.3,0.2,0.5,0.5,0.5
						c0.3,0,0.5-0.2,0.5-0.5c0-0.6,0.5-1.1,1.1-1.1c0.6,0,1.1,0.5,1.1,1.1c0,0.6-0.5,1.1-1.1,1.1c-0.3,0-0.5,0.2-0.5,0.5
						c0,0,0,0.1,0,0.1c0,0,0,0.1,0,0.1v0.9c-0.8,0-1.5,0.1-2.2,0.2c0.3,0.8,0.6,1.4,0.8,1.9c0.6,0,1.2,0,1.9,0c0.7,0,1.3,0,1.9,0
						c0.3-0.5,0.6-1.1,0.8-1.9c-0.7-0.1-1.5-0.2-2.2-0.2V13.9z"/>
					<path class="st8" d="M41,17.4c-0.2,0.3-0.1,0.7,0.2,0.9c0.3,0.2,0.7,0.1,0.9-0.2c0.1-0.1,0.1-0.1,0.2-0.2
						c-0.1-0.6-0.3-1.1-0.4-1.4C41.5,16.8,41.3,17.1,41,17.4z"/>
					<path class="st8" d="M56.2,17.4c-0.2-0.3-0.5-0.6-0.8-0.9c-0.1,0.3-0.3,0.8-0.4,1.4c0.1,0.1,0.1,0.1,0.2,0.2
						c0.1,0.2,0.3,0.3,0.5,0.3c0.1,0,0.3,0,0.4-0.1C56.4,18.1,56.5,17.7,56.2,17.4z"/>
				</g>
				<path class="st9" d="M54.8,15.8l-2.5-1.3c-1.1,3.8-2.6,4.3-3.7,4.6c-1.1-0.4-2.6-0.8-3.7-4.6l-2.5,1.3c0,0,1.8,3.6-0.3,6.5
					l0.3,7.2h1h10.4h1l0.3-7.2C53,19.4,54.8,15.8,54.8,15.8z"/>
			</g>
		</g>
		<circle class="st10" cx="99.7" cy="37.4" r="16.2"/>
		<g>
			<polygon class="st2" points="94.4,28.2 99.4,30.6 104.4,28.2 			"/>
			<polygon class="st2" points="98.5,31.2 94,29 93.7,29.8 96,33 			"/>
			<polygon class="st2" points="102.8,33 105.1,29.8 104.8,29 100.3,31.2 			"/>
			<polygon class="st2" points="92.7,29.9 92.7,29.8 92.2,29.8 92.2,46.9 98.7,46.9 98.7,32.2 95.8,34.3 			"/>
			<path class="st2" d="M106.1,29.8L106.1,29.8l-3.1,4.5l-3.5-2.7v15.2h7.1v-17H106.1z M100.9,45.9c-0.4,0-0.7-0.3-0.7-0.7
				c0-0.4,0.3-0.7,0.7-0.7c0.4,0,0.7,0.3,0.7,0.7C101.5,45.6,101.2,45.9,100.9,45.9z M100.9,42.3c-0.4,0-0.7-0.3-0.7-0.7
				c0-0.4,0.3-0.7,0.7-0.7c0.4,0,0.7,0.3,0.7,0.7C101.5,42,101.2,42.3,100.9,42.3z M100.9,38.8c-0.4,0-0.7-0.3-0.7-0.7
				c0-0.4,0.3-0.7,0.7-0.7c0.4,0,0.7,0.3,0.7,0.7C101.5,38.5,101.2,38.8,100.9,38.8z M100.9,35.2c-0.4,0-0.7-0.3-0.7-0.7
				c0-0.4,0.3-0.7,0.7-0.7c0.4,0,0.7,0.3,0.7,0.7C101.5,34.9,101.2,35.2,100.9,35.2z"/>
		</g>
		<g>
			<rect x="56.5" y="45.7" class="st11" width="73.1" height="78.6"/>
			<circle class="st5" cx="75.5" cy="55.4" r="2.7"/>
			<circle class="st5" cx="112.6" cy="55.4" r="2.7"/>
			<g>
				<path class="st5" d="M97.2,83.8h-6.5c-9.3,0-16.8-8.3-16.8-18.6v-9.8c0-0.8,0.7-1.5,1.5-1.5c0.8,0,1.5,0.7,1.5,1.5v9.8
					c0,8.6,6.2,15.6,13.8,15.6h6.5c7.6,0,13.8-7,13.8-15.6v-9.8c0-0.8,0.7-1.5,1.5-1.5s1.5,0.7,1.5,1.5v9.8
					C114,75.4,106.4,83.8,97.2,83.8L97.2,83.8z"/>
			</g>
			<g>
				<path class="st2" d="M97.2,80.9h-6.5c-9.2,0-16.7-7.5-16.7-16.7v-8.8c0-0.8,0.6-1.4,1.4-1.4c0.8,0,1.4,0.6,1.4,1.4v8.8
					c0,7.7,6.2,13.9,13.9,13.9h6.5c7.7,0,13.9-6.2,13.9-13.9v-8.8c0-0.8,0.6-1.4,1.4-1.4c0.8,0,1.4,0.6,1.4,1.4v8.8
					C113.9,73.4,106.4,80.9,97.2,80.9L97.2,80.9z"/>
			</g>
		</g>
		<g>
			<circle class="st12" cx="133" cy="102.9" r="16.2"/>
			<path d="M143.8,102.6c0.2-0.3,0.4-0.6,0.4-1v-1.3c0-0.8-0.6-1.4-1.4-1.4c-0.1,0-0.2,0-0.3,0c-0.7-0.6-1.7-0.9-2.8-0.9
				c-0.3,0-0.7,0-1.1,0.1c-2,0.3-3.6,1.2-4.4,2.4c-0.1,0.1-0.2,0.3-0.2,0.4c0,0,0,0,0,0c-0.7,0.2-1.3,0.2-2,0c0,0,0,0,0,0
				c-0.1-0.1-0.2-0.3-0.2-0.4c-0.8-1.2-2.4-2.1-4.4-2.4c-0.4-0.1-0.7-0.1-1.1-0.1c-1.1,0-2.1,0.3-2.8,0.9c-0.1,0-0.2,0-0.3,0
				c-0.8,0-1.4,0.6-1.4,1.4v1.3c0,0.4,0.1,0.7,0.4,1c0,0,0,0,0,0c0.3,2.8,2.4,5,4.6,5c0.2,0,0.4,0,0.6,0c2.3-0.4,4.5-2.4,4.9-4.6
				c0.5-0.1,1-0.1,1.5,0c0.5,2.2,2.7,4.2,5,4.6c0.2,0,0.4,0,0.6,0C141.4,107.6,143.5,105.4,143.8,102.6
				C143.8,102.6,143.8,102.6,143.8,102.6z"/>
			<path class="st8" d="M127,107.1c-2.1,0.3-4.2-1.7-4.5-4.3c-0.3-2.6,1.7-4.1,4.5-3.7c0.5,0.1,1,0.2,1.5,0.4
				c-0.4-0.1-0.8-0.2-1.3-0.3c-2.8-0.4-4.7,1-4.4,3.5c0.3,2.5,2.3,4.5,4.4,4.1c1-0.1,2-0.7,2.7-1.3C129.1,106.4,128.1,107,127,107.1
				z"/>
			<path class="st2" d="M127.8,106.4C127.7,106.4,127.7,106.4,127.8,106.4c-2,0.3-3.9-1.4-4.3-3.7c0.4,0.2,0.9,0.3,1.4,0.2
				C125.2,104.6,126.4,106,127.8,106.4z"/>
			<path class="st8" d="M138.8,107.1c-2.1-0.3-4.1-2.2-4.5-4.1c-0.4-1.8,1.6-3.4,4.5-3.9c0.4-0.1,0.8-0.1,1.2-0.1
				c-0.3,0-0.5,0-0.8,0.1c-2.8,0.5-4.8,2-4.4,3.9c0.4,1.8,2.4,3.7,4.5,4c0.4,0.1,0.7,0,1.1,0C139.7,107.1,139.3,107.2,138.8,107.1z"
				/>
			<path class="st2" d="M139.3,106.4c-1.8-0.3-3.5-1.9-3.8-3.4c0,0,0-0.1,0-0.1c0.4,0,0.7,0,1.1-0.1c0,0.1,0,0.1,0,0.2
				c0.3,1.5,1.9,3.1,3.7,3.4C139.9,106.4,139.6,106.5,139.3,106.4z"/>
			<path class="st13" d="M121.9,105.6c-0.4,0.2-0.5,0.6-0.3,1c0.2,0.4,0.6,0.5,1,0.3l0.8-0.4c-0.3-0.3-0.6-0.7-0.9-1.2L121.9,105.6z
				"/>
			<path class="st13" d="M143.9,105.6l-0.5-0.2c-0.3,0.4-0.6,0.8-0.9,1.2l0.8,0.4c0.4,0.2,0.8,0,1-0.3
				C144.4,106.2,144.2,105.8,143.9,105.6z"/>
		</g>
		<g>
			<g>
				<path class="st9" d="M169.8,30l-9.8-17.4c-0.4-0.7-1.2-0.9-1.9-0.5l-32.4,18.2c-0.4,0.2-0.7,0.7-0.7,1.2L124.9,43
					c0,0.5,0.3,1,0.7,1.2l9.9,5.9c0.4,0.3,1,0.3,1.4,0l32.4-18.2C170,31.6,170.2,30.7,169.8,30z M134.2,41.3
					c-1.1,0.6-2.6,0.2-3.2-0.9c-0.6-1.1-0.2-2.6,0.9-3.2c1.1-0.6,2.6-0.2,3.2,0.9C135.7,39.2,135.3,40.7,134.2,41.3z"/>
				<path class="st2" d="M141.9,40.3c-0.7,0.4-1.4,0.6-1.8,0.6l-0.5-1.5c0.4,0,1.1-0.2,1.5-0.4c0.7-0.4,0.9-1,0.6-1.6
					c-0.3-0.6-0.9-0.7-1.8-0.8c-1.5-0.1-2.4-0.7-2.9-1.4c-0.7-1.3-0.5-2.9,1.2-3.9c0.6-0.3,1.2-0.5,1.5-0.4l0.5,1.5
					c-0.3,0-0.8,0-1.2,0.3c-0.7,0.4-0.8,1-0.5,1.4c0.3,0.5,0.7,0.6,1.9,0.7c1.5,0,2.3,0.7,2.8,1.5C144.1,37.8,143.5,39.4,141.9,40.3
					z"/>
				<polygon class="st2" points="154.9,32.9 151.2,35 146.5,26.7 148.1,25.8 152,32.7 154.1,31.6 				"/>
				<polygon class="st2" points="159.6,30.3 155.8,32.4 151.2,24.1 154.8,22.1 155.6,23.5 153.6,24.6 154.7,26.5 156.5,25.5 
					157.3,26.8 155.4,27.8 156.7,30.1 158.8,28.9 				"/>
				<path class="st2" d="M144,28.1l-1.9,1.1l2.9,9.3l1.6-0.9l-0.7-2.1l1.5-0.8l1.4,1.7l1.6-0.9L144,28.1z M145.3,34.2l-0.7-1.9
					c-0.2-0.5-0.5-1.4-0.8-2l0,0c0.4,0.5,1,1.3,1.3,1.7l1.2,1.6L145.3,34.2z"/>
			</g>
		</g>
	</g>
</g>
</svg>
