<?xml version="1.0" encoding="utf-8"?>
<!-- Generator: Adobe Illustrator 19.0.0, SVG Export Plug-In . SVG Version: 6.00 Build 0)  -->
<svg version="1.1" id="Layer_1" xmlns="http://www.w3.org/2000/svg" xmlns:xlink="http://www.w3.org/1999/xlink" x="0px" y="0px"
	 viewBox="0 0 23.2 23" style="enable-background:new 0 0 23.2 23;" xml:space="preserve">
<style type="text/css">
	.st0{opacity:0.42;fill:#FFFFFF;}
	.st1{fill:#FFFFFF;}
</style>
<g>
	<path id="XMLID_2_" class="st0" d="M11.5,23C5.2,23,0,17.8,0,11.5C0,5.2,5.2,0,11.5,0c1.8,0,3.6,0.4,5.2,1.3l-0.5,0.9
		C14.8,1.4,13.2,1,11.5,1C5.7,1,1,5.7,1,11.5C1,17.3,5.7,22,11.5,22C17.3,22,22,17.3,22,11.5h1C23,17.8,17.8,23,11.5,23z"/>
	<polygon id="XMLID_3_" class="st1" points="11.5,15.9 6.8,11.2 8.2,9.8 11.5,13.1 21.8,2.8 23.2,4.2 	"/>
</g>
</svg>
