<?xml version="1.0" encoding="utf-8"?>
<!-- Generator: Adobe Illustrator 19.0.0, SVG Export Plug-In . SVG Version: 6.00 Build 0)  -->
<svg version="1.1" id="Layer_1" xmlns="http://www.w3.org/2000/svg" xmlns:xlink="http://www.w3.org/1999/xlink" x="0px" y="0px"
	 viewBox="0 0 960 70" style="enable-background:new 0 0 960 70;" xml:space="preserve">
<style type="text/css">
	.st0{fill:#FFFFFF;}
	.st1{fill-rule:evenodd;clip-rule:evenodd;fill:#FFFFFF;}
</style>
<g>
	<g>
		<path class="st0" d="M82.1,45l-7.6-15.3h-5.3l1.4,2.5c-1.8-2.7-5.4-3.4-8.6-3.4c-9.5,0-10.1,5.2-10.1,6h4.7c0,0,0.2-3,5.1-3
			c3.1,0,5.6,1.4,5.6,4.2v1h-5.6c-6.2,0-9.9,1.5-10.9,4.5c0.1-0.7,0.2-1.4,0.2-2.1c0-5.8-3.9-10.6-10.6-10.6c-6.2,0-8.2,3.4-8.2,3.4
			V21h-4.6v17.1c-0.1-3.7-2.5-9.3-10.9-9.3c-6.3,0-11.6,2.7-11.6,10.8c0,6.4,3.5,10.4,11.8,10.4c9.7,0,10.3-6.4,10.3-6.4h-4.7
			c0,0-1,3.4-5.9,3.4c-4,0-6.8-2.7-6.8-6.5h17.9V46c0,1.4-0.1,3.4-0.1,3.4h4.5c0,0,0.2-1.4,0.2-2.7c0,0,2.2,3.5,8.2,3.5
			c5.1,0,8.9-2.9,10.2-7.3c0,0.2,0,0.5,0,0.7c0,4.3,3.6,6.7,8.5,6.7c6.6,0,8.8-3.7,8.8-3.7c0,1.5,0.1,2.9,0.1,2.9h4.2
			c0,0-0.2-1.8-0.2-2.9v-9.8c0-1.3-0.2-2.4-0.6-3.3l8.5,16l-4,7.6h5.1l13.9-27.3h-4.8L82.1,45z M9.7,37.7c0-3.7,3.4-5.8,6.7-5.8
			c3.8,0,6.4,2.3,6.4,5.8H9.7z M39.1,47c-4.6,0-7.1-3.6-7.1-7.5c0-3.7,2.2-7.5,7-7.5c4.3,0,7,3.2,7,7.5C46.1,44,42.9,47,39.1,47
			L39.1,47z M67.1,41.3c0,1.7-1.1,5.9-7.2,5.9c-3.4,0-4.8-1.7-4.8-3.6C55.1,40,60,40,67.1,40V41.3z M67.1,41.3"/>
	</g>
	<g>
		<g>
			<path class="st0" d="M398.7,36.3c-0.1-6.8,5.5-10,5.8-10.2c-3.1-4.6-8-5.2-9.8-5.3c-4.2-0.4-8.1,2.5-10.2,2.5
				c-2.1,0-5.4-2.4-8.8-2.3c-4.5,0.1-8.7,2.6-11.1,6.7c-4.7,8.2-1.2,20.3,3.4,26.9c2.2,3.2,4.9,6.9,8.4,6.8c3.4-0.1,4.7-2.2,8.8-2.2
				c4.1,0,5.2,2.2,8.8,2.1c3.6-0.1,5.9-3.3,8.2-6.6c2.6-3.8,3.6-7.4,3.7-7.6C405.8,47.1,398.7,44.4,398.7,36.3L398.7,36.3z
				 M391.9,16.4c1.9-2.3,3.1-5.4,2.8-8.5c-2.7,0.1-5.9,1.8-7.9,4c-1.7,2-3.2,5.2-2.8,8.3C387,20.5,390.1,18.7,391.9,16.4L391.9,16.4
				z M391.9,16.4"/>
		</g>
	</g>
	<g>
		<path class="st0" d="M154.4,31.2c1.7-3.9,5.5-13.9,6.1-15.9c0.1-0.4,0.3-0.8,0.3-1.1c0-0.2-0.1-0.5-0.4-0.7
			c-0.3-0.1-0.8-0.1-1.1-0.1c-0.2,0-0.3,0-0.3-0.2c0-0.2,0.2-0.2,0.6-0.2c1.1,0,2.5,0.1,2.8,0.1c0.2,0,1.4-0.1,2.2-0.1
			c0.3,0,0.5,0.1,0.5,0.2c0,0.1-0.1,0.2-0.3,0.2c-0.2,0-0.8,0-1.4,0.3c-0.4,0.3-0.8,0.7-1.6,2.7c-0.3,0.8-1.8,4.3-3.2,7.8
			c-1.8,4.2-3,7.3-3.7,8.7c-0.8,1.7-0.9,2.2-1.2,2.2c-0.3,0-0.5-0.4-1-1.8l-7-17.6c-0.6-1.6-1.1-1.9-2.1-2.2
			c-0.4-0.1-0.9-0.1-1.1-0.1c-0.2,0-0.2-0.1-0.2-0.2c0-0.2,0.3-0.2,0.7-0.2c1.4,0,3,0.1,3.4,0.1c0.3,0,1.6-0.1,2.7-0.1
			c0.5,0,0.8,0.1,0.8,0.2c0,0.1-0.1,0.2-0.3,0.2c-0.3,0-0.8,0-1.1,0.1c-0.3,0.1-0.4,0.4-0.4,0.6c0,0.4,0.3,1.3,0.8,2.4L154.4,31.2z"
			/>
		<path class="st0" d="M171.8,27.2c0,2.5,0,4.5,0.1,5.6c0.1,0.7,0.2,1.3,1,1.4c0.4,0.1,0.9,0.1,1.2,0.1c0.2,0,0.2,0.1,0.2,0.2
			c0,0.1-0.1,0.2-0.4,0.2c-1.4,0-3-0.1-3.2-0.1c-0.1,0-1.7,0.1-2.5,0.1c-0.3,0-0.4-0.1-0.4-0.2c0-0.1,0.1-0.2,0.2-0.2
			c0.2,0,0.5-0.1,0.8-0.1c0.5-0.1,0.6-0.7,0.7-1.4c0.1-1.1,0.1-3.1,0.1-5.6v-4.5c0-4,0-4.7-0.1-5.6c-0.1-0.9-0.3-1.3-0.9-1.4
			c-0.3-0.1-0.6-0.1-0.8-0.1c-0.1,0-0.2-0.1-0.2-0.2c0-0.2,0.1-0.2,0.4-0.2c0.9,0,2.5,0.1,2.6,0.1c0.1,0,1.8-0.1,2.5-0.1
			c0.3,0,0.4,0.1,0.4,0.2c0,0.1-0.1,0.2-0.2,0.2c-0.2,0-0.3,0-0.6,0.1c-0.7,0.1-0.9,0.6-1,1.5c-0.1,0.8-0.1,1.5-0.1,5.6V27.2z"/>
		<path class="st0" d="M180.4,32.3c-2.5-2.2-3.1-5.2-3.1-7.6c0-1.7,0.6-4.7,2.9-7c1.5-1.5,3.9-2.8,7.9-2.8c1,0,2.5,0.1,3.7,0.3
			c1,0.2,1.8,0.3,2.6,0.4c0.3,0,0.3,0.1,0.3,0.3c0,0.2-0.1,0.5-0.1,1.4c-0.1,0.8-0.1,2.3-0.1,2.7c0,0.4-0.1,0.5-0.2,0.5
			c-0.2,0-0.2-0.2-0.2-0.5c0-1-0.4-2.1-1.1-2.6c-0.9-0.8-2.9-1.5-5.1-1.5c-3.4,0-5,1-5.9,1.9c-1.9,1.8-2.3,4.1-2.3,6.7
			c0,4.9,3.8,9.4,9.3,9.4c1.9,0,3.4-0.2,4.5-1.3c0.5-0.6,0.9-1.7,1-2.2c0.1-0.3,0.1-0.4,0.3-0.4c0.1,0,0.2,0.2,0.2,0.4
			c0,0.2-0.3,2.4-0.6,3.3c-0.2,0.5-0.2,0.5-0.7,0.7c-1,0.4-3,0.6-4.6,0.6C185,35.1,182.4,34.1,180.4,32.3z"/>
		<path class="st0" d="M206.9,27.2c0,2.5,0,4.5,0.1,5.6c0.1,0.7,0.2,1.3,1,1.4c0.4,0.1,0.9,0.1,1.2,0.1c0.2,0,0.2,0.1,0.2,0.2
			c0,0.1-0.1,0.2-0.4,0.2c-1.4,0-3-0.1-3.2-0.1c-0.1,0-1.8,0.1-2.5,0.1c-0.3,0-0.4-0.1-0.4-0.2c0-0.1,0.1-0.2,0.2-0.2
			c0.2,0,0.5-0.1,0.8-0.1c0.5-0.1,0.6-0.7,0.7-1.4c0.1-1.1,0.1-3.1,0.1-5.6V16.4l-3.8,0.1c-1.6,0-2.2,0.2-2.6,0.8
			c-0.3,0.4-0.4,0.6-0.4,0.8c-0.1,0.2-0.2,0.3-0.3,0.3c-0.1,0-0.1-0.1-0.1-0.2c0-0.3,0.5-2.5,0.6-2.7c0.1-0.2,0.2-0.5,0.3-0.5
			c0.2,0,0.4,0.3,1.1,0.3c0.7,0.1,1.7,0.1,2,0.1h9.7c0.8,0,1.4-0.1,1.8-0.1c0.4-0.1,0.6-0.1,0.7-0.1c0.1,0,0.1,0.2,0.1,0.3
			c0,0.8-0.1,2.5-0.1,2.8c0,0.2-0.1,0.3-0.2,0.3c-0.1,0-0.2-0.1-0.2-0.4l0-0.3c-0.1-0.8-0.7-1.4-3.2-1.4l-3.2-0.1V27.2z"/>
		<path class="st0" d="M226.8,14.9c5.8,0,10.1,3.7,10.1,9.7c0,5.8-4.1,10.5-10.3,10.5c-7.1,0-10-5.5-10-10.1
			C216.7,20.8,219.7,14.9,226.8,14.9z M227.3,34.1c2.3,0,7.1-1.3,7.1-8.8c0-6.2-3.8-9.5-7.8-9.5c-4.3,0-7.5,2.8-7.5,8.5
			C219.1,30.2,222.7,34.1,227.3,34.1z"/>
		<path class="st0" d="M242,22.7c0-4,0-4.7-0.1-5.6c-0.1-0.9-0.3-1.3-1.1-1.5c-0.2-0.1-0.6-0.1-0.9-0.1c-0.1,0-0.2-0.1-0.2-0.2
			c0-0.2,0.1-0.2,0.4-0.2c1.2,0,2.8,0.1,2.9,0.1c0.3,0,2.2-0.1,3-0.1c1.6,0,3.3,0.2,4.7,1.1c0.6,0.5,1.8,1.7,1.8,3.5
			c0,1.9-0.8,3.8-3.1,5.9c2.1,2.7,3.9,5,5.4,6.6c1.4,1.5,2.5,1.8,3.1,1.9c0.5,0.1,0.8,0.1,1,0.1c0.1,0,0.2,0.1,0.2,0.2
			c0,0.2-0.2,0.2-0.6,0.2h-1.8c-1.4,0-2.1-0.1-2.8-0.5c-1.1-0.6-2-1.9-3.5-3.8c-1.1-1.4-2.3-3.1-2.8-3.8c-0.1-0.1-0.2-0.2-0.3-0.2
			l-3.2-0.1c-0.1,0-0.2,0.1-0.2,0.2v0.6c0,2.5,0,4.5,0.1,5.6c0.1,0.7,0.2,1.3,1,1.4c0.4,0.1,0.9,0.1,1.2,0.1c0.2,0,0.2,0.1,0.2,0.2
			c0,0.1-0.1,0.2-0.4,0.2c-1.4,0-3-0.1-3.2-0.1c0,0-1.6,0.1-2.4,0.1c-0.3,0-0.4-0.1-0.4-0.2c0-0.1,0.1-0.2,0.2-0.2
			c0.2,0,0.5-0.1,0.8-0.1c0.5-0.1,0.6-0.7,0.7-1.4c0.1-1.1,0.1-3.1,0.1-5.6V22.7z M244,25c0,0.1,0.1,0.2,0.2,0.3
			c0.4,0.2,1.6,0.4,2.7,0.4c0.6,0,1.3-0.1,1.9-0.5c0.9-0.6,1.6-2,1.6-4c0-3.2-1.7-5.1-4.5-5.1c-0.8,0-1.5,0.1-1.7,0.2
			c-0.1,0.1-0.2,0.2-0.2,0.3V25z"/>
		<path class="st0" d="M264.7,27.2c0,2.5,0,4.5,0.1,5.6c0.1,0.7,0.2,1.3,1,1.4c0.4,0.1,0.9,0.1,1.2,0.1c0.2,0,0.2,0.1,0.2,0.2
			c0,0.1-0.1,0.2-0.4,0.2c-1.4,0-3-0.1-3.2-0.1c-0.1,0-1.8,0.1-2.5,0.1c-0.3,0-0.4-0.1-0.4-0.2c0-0.1,0.1-0.2,0.2-0.2
			c0.2,0,0.5-0.1,0.8-0.1c0.5-0.1,0.6-0.7,0.7-1.4c0.1-1.1,0.1-3.1,0.1-5.6v-4.5c0-4,0-4.7-0.1-5.6c-0.1-0.9-0.3-1.3-0.9-1.4
			c-0.3-0.1-0.6-0.1-0.8-0.1c-0.1,0-0.2-0.1-0.2-0.2c0-0.2,0.1-0.2,0.4-0.2c0.8,0,2.5,0.1,2.6,0.1c0.1,0,1.8-0.1,2.5-0.1
			c0.3,0,0.4,0.1,0.4,0.2c0,0.1-0.1,0.2-0.2,0.2c-0.2,0-0.3,0-0.6,0.1c-0.7,0.1-0.9,0.6-1,1.5c-0.1,0.8-0.1,1.5-0.1,5.6V27.2z"/>
		<path class="st0" d="M279.3,15.9c0.3-0.8,0.4-1,0.6-1c0.2,0,0.3,0.1,0.6,0.9c0.4,1,4.4,11.6,6,15.5c0.9,2.3,1.7,2.7,2.2,2.9
			c0.4,0.1,0.8,0.2,1,0.2c0.2,0,0.3,0,0.3,0.2c0,0.2-0.2,0.2-0.5,0.2c-0.4,0-2.3,0-4-0.1c-0.5,0-0.8,0-0.8-0.2
			c0-0.1,0.1-0.2,0.2-0.2c0.2-0.1,0.3-0.3,0.2-0.7l-2.4-6.3c-0.1-0.1-0.1-0.2-0.2-0.2h-5.5c-0.1,0-0.2,0.1-0.3,0.2l-1.5,4.6
			c-0.2,0.6-0.4,1.3-0.4,1.7c0,0.5,0.5,0.7,1,0.7h0.3c0.2,0,0.3,0.1,0.3,0.2c0,0.2-0.2,0.2-0.4,0.2c-0.6,0-1.7-0.1-2-0.1
			c-0.3,0-1.7,0.1-2.9,0.1c-0.3,0-0.5-0.1-0.5-0.2c0-0.1,0.1-0.2,0.2-0.2c0.2,0,0.5,0,0.7-0.1c1.2-0.2,1.7-1.1,2.2-2.4L279.3,15.9z
			 M281.9,26.2c0.1,0,0.1-0.1,0.1-0.2l-2.4-7c-0.1-0.4-0.3-0.4-0.4,0l-2.3,7c-0.1,0.1,0,0.2,0.1,0.2H281.9z"/>
		<path class="st0" d="M296.8,34.4c-0.4-0.2-0.4-0.3-0.4-1c0-1.3,0.1-2.3,0.1-2.7c0-0.3,0.1-0.4,0.2-0.4c0.2,0,0.2,0.1,0.2,0.3
			c0,0.2,0,0.6,0.1,1c0.4,1.9,2.1,2.6,3.8,2.6c2.5,0,3.7-1.8,3.7-3.4c0-1.8-0.7-2.8-3-4.6l-1.2-1c-2.7-2.2-3.3-3.8-3.3-5.6
			c0-2.8,2.1-4.6,5.3-4.6c1,0,1.8,0.1,2.4,0.3c0.5,0.1,0.7,0.1,0.9,0.1c0.2,0,0.3,0.1,0.3,0.2c0,0.1-0.1,1-0.1,2.7
			c0,0.4-0.1,0.6-0.2,0.6c-0.2,0-0.2-0.1-0.2-0.3c0-0.3-0.2-1-0.3-1.3c-0.2-0.3-0.8-1.4-3.2-1.4c-1.8,0-3.2,1.1-3.2,3
			c0,1.5,0.7,2.4,3.1,4.3l0.7,0.6c3,2.4,3.8,4,3.8,6c0,1.1-0.4,3-2.2,4.3c-1.1,0.8-2.5,1.1-3.9,1.1
			C299.1,35.1,297.9,34.9,296.8,34.4z"/>
		<path class="st0" d="M177,62.5c-0.4-0.2-0.4-0.3-0.4-1.1c0-1.4,0.1-2.6,0.1-3c0-0.3,0.1-0.5,0.2-0.5c0.2,0,0.2,0.1,0.2,0.3
			c0,0.3,0,0.7,0.1,1.1c0.4,2.1,2.3,2.9,4.3,2.9c2.8,0,4.1-2,4.1-3.8c0-2-0.8-3.1-3.3-5.2l-1.3-1.1c-3-2.5-3.7-4.3-3.7-6.2
			c0-3.1,2.3-5.2,5.9-5.2c1.1,0,2,0.1,2.7,0.3c0.5,0.1,0.8,0.1,1,0.1c0.2,0,0.3,0.1,0.3,0.2c0,0.1-0.1,1.1-0.1,3
			c0,0.5-0.1,0.7-0.2,0.7c-0.2,0-0.2-0.1-0.2-0.4c0-0.3-0.2-1.1-0.4-1.4c-0.2-0.3-0.9-1.5-3.6-1.5c-2,0-3.5,1.2-3.5,3.3
			c0,1.6,0.7,2.7,3.5,4.8l0.8,0.6c3.4,2.7,4.2,4.5,4.2,6.8c0,1.2-0.5,3.4-2.4,4.8c-1.2,0.9-2.8,1.2-4.3,1.2
			C179.5,63.3,178.2,63.1,177,62.5z"/>
		<path class="st0" d="M195.4,50.9c0-4,0-4.7-0.1-5.6c-0.1-0.9-0.3-1.3-1.1-1.5c-0.2-0.1-0.6-0.1-0.9-0.1c-0.1,0-0.2-0.1-0.2-0.2
			c0-0.2,0.1-0.2,0.4-0.2c0.6,0,1.3,0,1.9,0l1.1,0.1c0.2,0,5.3,0,5.9,0c0.5,0,0.9-0.1,1.1-0.1c0.1,0,0.2-0.1,0.4-0.1
			c0.1,0,0.1,0.1,0.1,0.2c0,0.2-0.1,0.5-0.2,1.2c0,0.3-0.1,1.4-0.1,1.7c0,0.1-0.1,0.3-0.2,0.3c-0.2,0-0.2-0.1-0.2-0.3
			c0-0.2,0-0.6-0.2-0.9c-0.2-0.4-0.4-0.7-1.8-0.9c-0.4-0.1-3.2-0.1-3.5-0.1c-0.1,0-0.2,0.1-0.2,0.3v7.1c0,0.2,0,0.3,0.2,0.3
			c0.3,0,3.5,0,4.1-0.1c0.6-0.1,1-0.1,1.2-0.4c0.2-0.2,0.3-0.3,0.4-0.3c0.1,0,0.1,0.1,0.1,0.2c0,0.2-0.1,0.6-0.2,1.4
			c-0.1,0.5-0.1,1.5-0.1,1.6c0,0.2,0,0.5-0.2,0.5c-0.1,0-0.2-0.1-0.2-0.2c0-0.3,0-0.5-0.1-0.8c-0.1-0.4-0.3-0.8-1.3-0.9
			c-0.7-0.1-3.2-0.1-3.7-0.1c-0.1,0-0.2,0.1-0.2,0.2v2.3c0,0.9,0,3.9,0,4.4c0.1,1.8,0.5,2.1,3,2.1c0.7,0,1.8,0,2.5-0.3
			c0.7-0.3,1-0.8,1.2-1.9c0.1-0.3,0.1-0.4,0.2-0.4c0.2,0,0.2,0.2,0.2,0.4c0,0.2-0.2,2-0.3,2.5c-0.2,0.7-0.4,0.7-1.4,0.7
			c-1.9,0-3.3-0.1-4.4-0.1c-1-0.1-1.6-0.1-2-0.1c-0.1,0-0.5,0-1,0c-0.5,0-1.1,0.1-1.5,0.1c-0.3,0-0.4-0.1-0.4-0.2
			c0-0.1,0.1-0.2,0.2-0.2c0.2,0,0.5-0.1,0.8-0.1c0.5-0.1,0.6-0.7,0.7-1.4c0.1-1.1,0.1-3.1,0.1-5.6V50.9z"/>
		<path class="st0" d="M212,60.5c-2.5-2.2-3.1-5.2-3.1-7.6c0-1.7,0.6-4.7,2.9-7c1.5-1.5,3.9-2.8,7.9-2.8c1,0,2.5,0.1,3.7,0.3
			c1,0.2,1.8,0.3,2.6,0.4c0.3,0,0.3,0.1,0.3,0.3c0,0.2-0.1,0.5-0.1,1.4c-0.1,0.8-0.1,2.3-0.1,2.7c0,0.4-0.1,0.5-0.2,0.5
			c-0.2,0-0.2-0.2-0.2-0.5c0-1-0.4-2.1-1.1-2.6c-0.9-0.8-2.9-1.5-5.2-1.5c-3.4,0-5,1-5.9,1.9c-1.9,1.8-2.3,4.1-2.3,6.7
			c0,4.9,3.8,9.4,9.3,9.4c1.9,0,3.4-0.2,4.5-1.3c0.5-0.6,0.9-1.7,1-2.2c0.1-0.3,0.1-0.4,0.3-0.4c0.1,0,0.2,0.2,0.2,0.4
			c0,0.2-0.3,2.4-0.6,3.3c-0.2,0.5-0.2,0.5-0.7,0.7c-1,0.4-3,0.6-4.6,0.6C216.6,63.3,214,62.3,212,60.5z"/>
		<path class="st0" d="M231.6,50.9c0-4,0-4.7-0.1-5.6c-0.1-0.9-0.3-1.3-1.1-1.5c-0.2-0.1-0.6-0.1-0.9-0.1c-0.1,0-0.2-0.1-0.2-0.2
			c0-0.2,0.1-0.2,0.4-0.2c1.2,0,2.8,0.1,2.9,0.1c0.3,0,2.2-0.1,3-0.1c1.6,0,3.3,0.2,4.7,1.1c0.6,0.5,1.8,1.7,1.8,3.5
			c0,1.9-0.8,3.8-3.1,5.9c2.1,2.7,3.9,5,5.4,6.6c1.4,1.5,2.5,1.8,3.1,1.9c0.5,0.1,0.8,0.1,1,0.1c0.1,0,0.2,0.1,0.2,0.2
			c0,0.2-0.2,0.2-0.6,0.2h-1.8c-1.4,0-2.1-0.1-2.8-0.5c-1.1-0.6-2-1.9-3.5-3.8c-1.1-1.4-2.3-3.1-2.8-3.8c-0.1-0.1-0.2-0.2-0.3-0.2
			l-3.2-0.1c-0.1,0-0.2,0.1-0.2,0.2v0.6c0,2.5,0,4.5,0.1,5.6c0.1,0.7,0.2,1.3,1,1.4c0.4,0.1,0.9,0.1,1.2,0.1c0.2,0,0.2,0.1,0.2,0.2
			c0,0.1-0.1,0.2-0.4,0.2c-1.4,0-3-0.1-3.2-0.1c0,0-1.6,0.1-2.4,0.1c-0.3,0-0.4-0.1-0.4-0.2c0-0.1,0.1-0.2,0.2-0.2
			c0.2,0,0.5-0.1,0.8-0.1c0.5-0.1,0.6-0.7,0.7-1.4c0.1-1.1,0.1-3.1,0.1-5.6V50.9z M233.7,53.2c0,0.1,0.1,0.2,0.2,0.3
			c0.4,0.2,1.6,0.4,2.7,0.4c0.6,0,1.3-0.1,1.9-0.5c0.9-0.6,1.6-2,1.6-4c0-3.2-1.7-5.1-4.5-5.1c-0.8,0-1.5,0.1-1.7,0.2
			c-0.1,0.1-0.2,0.2-0.2,0.3V53.2z"/>
		<path class="st0" d="M252.2,50.9c0-4,0-4.7-0.1-5.6c-0.1-0.9-0.3-1.3-1.1-1.5c-0.2-0.1-0.6-0.1-0.9-0.1c-0.1,0-0.2-0.1-0.2-0.2
			c0-0.2,0.1-0.2,0.4-0.2c0.6,0,1.3,0,1.9,0l1.1,0.1c0.2,0,5.3,0,5.9,0c0.5,0,0.9-0.1,1.1-0.1c0.1,0,0.2-0.1,0.4-0.1
			c0.1,0,0.1,0.1,0.1,0.2c0,0.2-0.1,0.5-0.2,1.2c0,0.3-0.1,1.4-0.1,1.7c0,0.1-0.1,0.3-0.2,0.3c-0.2,0-0.2-0.1-0.2-0.3
			c0-0.2,0-0.6-0.2-0.9c-0.2-0.4-0.4-0.7-1.8-0.9c-0.4-0.1-3.2-0.1-3.5-0.1c-0.1,0-0.2,0.1-0.2,0.3v7.1c0,0.2,0,0.3,0.2,0.3
			c0.3,0,3.5,0,4.1-0.1c0.6-0.1,1-0.1,1.2-0.4c0.2-0.2,0.3-0.3,0.4-0.3c0.1,0,0.1,0.1,0.1,0.2c0,0.2-0.1,0.6-0.2,1.4
			c-0.1,0.5-0.1,1.5-0.1,1.6c0,0.2,0,0.5-0.2,0.5c-0.1,0-0.2-0.1-0.2-0.2c0-0.3,0-0.5-0.1-0.8c-0.1-0.4-0.3-0.8-1.3-0.9
			c-0.7-0.1-3.2-0.1-3.7-0.1c-0.1,0-0.2,0.1-0.2,0.2v2.3c0,0.9,0,3.9,0,4.4c0.1,1.8,0.5,2.1,3,2.1c0.7,0,1.8,0,2.5-0.3
			c0.7-0.3,1-0.8,1.2-1.9c0-0.3,0.1-0.4,0.2-0.4c0.2,0,0.2,0.2,0.2,0.4c0,0.2-0.2,2-0.3,2.5c-0.2,0.7-0.4,0.7-1.4,0.7
			c-1.9,0-3.3-0.1-4.4-0.1c-1-0.1-1.6-0.1-2-0.1c-0.1,0-0.5,0-1,0c-0.5,0-1.1,0.1-1.5,0.1c-0.3,0-0.4-0.1-0.4-0.2
			c0-0.1,0.1-0.2,0.2-0.2c0.2,0,0.5-0.1,0.8-0.1c0.5-0.1,0.6-0.7,0.7-1.4c0.1-1.1,0.1-3.1,0.1-5.6V50.9z"/>
		<path class="st0" d="M274,55.4c0,2.5,0,4.5,0.1,5.6c0.1,0.7,0.2,1.3,1,1.4c0.4,0.1,0.9,0.1,1.2,0.1c0.2,0,0.2,0.1,0.2,0.2
			c0,0.1-0.1,0.2-0.4,0.2c-1.4,0-3-0.1-3.2-0.1c-0.1,0-1.8,0.1-2.5,0.1c-0.3,0-0.4-0.1-0.4-0.2c0-0.1,0.1-0.2,0.2-0.2
			c0.2,0,0.5-0.1,0.8-0.1c0.5-0.1,0.6-0.7,0.7-1.4c0.1-1.1,0.1-3.1,0.1-5.6V44.6l-3.8,0.1c-1.6,0-2.2,0.2-2.6,0.8
			c-0.3,0.4-0.4,0.6-0.4,0.8c-0.1,0.2-0.2,0.3-0.3,0.3c-0.1,0-0.1-0.1-0.1-0.2c0-0.3,0.5-2.5,0.6-2.7c0-0.2,0.2-0.5,0.3-0.5
			c0.2,0,0.4,0.3,1.1,0.3c0.7,0.1,1.7,0.1,2,0.1h9.7c0.8,0,1.4-0.1,1.8-0.1c0.4-0.1,0.6-0.1,0.7-0.1c0.1,0,0.1,0.2,0.1,0.3
			c0,0.8-0.1,2.5-0.1,2.8c0,0.2-0.1,0.3-0.2,0.3c-0.1,0-0.2-0.1-0.2-0.4l0-0.3c-0.1-0.8-0.7-1.4-3.2-1.4l-3.2-0.1V55.4z"/>
	</g>
	<g>
		<g>
			<g>
				<path class="st0" d="M877.5,22.2c0-4-8.1-6.6-10.7-0.8c-2-4.6-8.5-4.4-10.2,0l0-2.3c0-0.4-0.3-0.7-0.7-0.7h-3.6
					c-0.4,0-0.7,0.3-0.7,0.7v19.7c0,0.4,0.3,0.7,0.7,0.7h3.9c0.4,0,0.7-0.3,0.7-0.7V26.4c0-1.4,0.6-3,2.1-3.3c1.6-0.4,3,0.5,3,2.4
					l0,13.4c0,0.4,0.3,0.7,0.7,0.7h4c0.4,0,0.7-0.3,0.7-0.7l0-13.3c0-3,5-3.8,5,0v13.3c0,0.4,0.3,0.7,0.7,0.7h3.9
					c0.4,0,0.7-0.3,0.7-0.7V22.2z"/>
				<path class="st0" d="M916.4,19.2c0-0.4-0.3-0.7-0.7-0.7h-12.9c-0.2,0-0.4,0.1-0.5,0.2c-0.1,0.1-0.2,0.3-0.2,0.5V22
					c0,0.4,0.3,0.7,0.7,0.7h6.8L902,33.9c-0.4,0.6-0.4,1-0.4,1.2l0,3.1c0,0.7,0.2,1,1,0.6c4.7-2,9.8-2.1,13.5,0.2
					c0.3,0.2,0.7,0,0.7-0.5l0-3.5c0-0.2-0.1-0.5-0.3-0.6c-2.2-1.4-5-1.8-7.7-1.7l7.2-10c0.3-0.5,0.4-1,0.4-1.1L916.4,19.2z"/>
				<path class="st0" d="M930.5,29.1c0,3.8-0.1,6.9-3,6.9c-2.7,0-3-3.1-3-6.9c0-3.8,0.2-7,3-6.9C930.2,22.2,930.5,25.3,930.5,29.1z
					 M936.3,29c0-6.3-3.7-11.1-8.8-11c-5.2,0.1-8.8,4.9-8.8,11.1c0,6.3,3.8,11.2,8.9,11C932.7,39.9,936.3,35.1,936.3,29z"/>
				<path class="st0" d="M955.1,23.7c0-3.1-1.9-5.7-6.3-5.6c-2.1,0.1-3.7,1.6-4.5,3.8v-2.8c0-0.4-0.3-0.7-0.7-0.7h-3.8
					c-0.4,0-0.7,0.3-0.7,0.7v19.8c0,0.4,0.3,0.7,0.7,0.7h4c0.4,0,0.7-0.3,0.7-0.7V26.5c0-1.9,1.6-3.4,3.1-3.5c1.2,0,2.4,1.1,2.4,2.4
					v13.5c0,0.4,0.3,0.7,0.7,0.7h3.9c0.4,0,0.7-0.3,0.7-0.7V23.7z"/>
				<path class="st0" d="M892.3,29.4v2.6c0,2-1.3,3.7-2.4,4c-2.1,0.6-3.5-1-3.5-2.8c0.1-2.3,2-3.6,3.7-3.7L892.3,29.4z M897.6,23.3
					c0-3.3-2.9-5.4-8.5-5.2c-3.4,0.1-6.6,1.4-7.5,5.5c0,0.2,0,0.4,0.1,0.5c0.1,0.2,0.3,0.3,0.5,0.3l3.5,0.4c0.3,0,0.7-0.2,0.7-0.5
					c0.3-1.3,1.2-2.3,2.7-2.3c2.2,0,3.1,1.1,3.1,2.6v1.9l-4.3,0.3c-3.6,0.3-7,2.6-7.1,7.2c-0.1,4.2,2.7,6.2,6.5,6
					c2.3-0.1,4.2-1.1,5.7-2.7l2.1,2.4c0.1,0.1,0.3,0.2,0.5,0.2c0.2,0,0.4-0.1,0.5-0.2l2.8-2.7c0.2-0.2,0.3-0.6,0.1-0.9l-1-1.4
					c-0.2-0.3-0.4-1.5-0.4-2.2V23.3z"/>
				<path class="st0" d="M841.5,29.4v2.6c0,2-1.3,3.7-2.4,4c-2.1,0.6-3.5-1-3.5-2.8c0.1-2.3,2-3.6,3.7-3.7L841.5,29.4z M846.9,23.3
					c0-3.3-2.9-5.4-8.5-5.3c-3.4,0.1-6.6,1.4-7.5,5.5c0,0.2,0,0.4,0.1,0.5c0.1,0.2,0.3,0.3,0.5,0.3l3.5,0.4c0.3,0,0.7-0.2,0.7-0.5
					c0.2-1.3,1.2-2.3,2.7-2.3c2.2,0,3.1,1.1,3.1,2.6v1.9l-4.3,0.3c-3.6,0.3-7,2.6-7.1,7.2c-0.1,4.2,2.7,6.2,6.5,6
					c2.3-0.1,4.2-1.1,5.7-2.7l2.1,2.4c0.1,0.1,0.3,0.2,0.5,0.2c0.2,0,0.4-0.1,0.5-0.2l2.8-2.7c0.2-0.2,0.3-0.6,0.1-0.9l-1-1.3
					c-0.2-0.3-0.4-1.5-0.4-2.2V23.3z"/>
			</g>
		</g>
		<g>
			<g>
				<path class="st0" d="M909,51.5c-0.8,1.9,1.1,0.7,1.4,0.4c2.6-2.4,4.5-9.4,3.3-10.5c-1.5-1.4-8.4-1.4-11.5,0.9
					c-1.3,0.9-0.6,1.1,0.8,1c2.4-0.1,4.5-0.3,6.3-0.1c1.7,0.1,1.8,1,1.4,2.8C910.2,48.1,909.9,49.4,909,51.5z"/>
				<path class="st0" d="M906.1,45.8c-17.8,7.3-38.4,6.3-55.3-2.7c-0.2-0.1-1.1-0.6-2-1.1c-0.7-0.4-0.9-0.2-1-0.1
					c-0.2,0.2-0.1,0.5,0.2,0.7c9.9,9,21.9,13.3,34.9,12.7c10-0.4,19.2-4.1,24.5-8c0.8-0.6,1.1-1.3,0.7-1.7
					C907.9,45.4,907,45.5,906.1,45.8z"/>
			</g>
		</g>
	</g>
	<g>
		<path class="st1" d="M732.9,31.2c-0.3-0.1-0.7-0.2-1-0.5c-2.9-2.8,0.8-6.1,5-7.9v-5.3c1,0.6,1.5,0.6,1.6,0.8l3.2-3.2l-1.1-2.7
			c9.4-3.3,13.2-4.6,20.9-5.9l-1.4-1.3l2.3-1.3c5.1,1.7,10,2.2,9.1,6.6c0.2-2.9-3.4-4.1-9-5.7l-1.1,0.7l2.1,1.7
			c-9.2,1.6-14.9,3.4-21.6,5.8l0.9,2.4l-3.4,3.4c0.6,0.1,6.4,2.2,12.6-2.2c0.1,0,0.1-0.1,0.1-0.1c-0.2-0.3-0.6-0.6-1.1-1.1
			c1.7,0.1,2.9,1.7,2.7,3.4H753c0.1-0.5,0-1.1-0.2-1.5c-4.7,3.5-10.2,4-14.9,2.4v4.1c-2.2,0.8-6.4,3.3-6.3,5.7
			C731.7,30.5,732.3,30.9,732.9,31.2L732.9,31.2z"/>
		<path class="st1" d="M752.1,30.2c-5.1,2.6-10,4.7-17.5,5c-9.7-0.2-11.3-6.7-6.7-13.6c4.4-6.9,11.3-13.1,22.4-17
			c3.2-1.1,7.9-2.4,12.4-2.5c6.6-0.1,12.9,2,12.5,8.3c-0.2,4.8-7.2,11.6-10.8,16.5c-1.6,2.1-1.8,3.5,0.8,3.4
			c9.7-0.6,18.4-4,26.5-7.5c-5.5,3.7-33.9,18-34,8.2c0.1-1.2,0.6-2.5,1.5-3.9c0.9-1.4,2.2-2.9,3.5-4.3c1.9-2.2,6.7-7.6,8.3-10.8
			c2.7-6.1-3.4-6.4-8.6-8.2l-2.3,1.3l1.4,1.3c-7.7,1.3-11.5,2.6-20.9,5.9l1.1,2.7l-3.2,3.2c-0.1-0.1-0.6-0.2-1.6-0.8v5.3
			c-4.2,1.9-7.9,5.1-5,7.9c0.3,0.2,0.7,0.4,1,0.5l0,0C738,34.2,752.1,30.2,752.1,30.2L752.1,30.2z"/>
		<path class="st1" d="M666.1,44.7v-3.2h4.7v3.2H666.1L666.1,44.7z M666.2,57.8V46.4h4.4v11.4H666.2L666.2,57.8z M717.9,51.8
			c0-1.1-0.2-1.9-0.8-2.5c-0.6-0.6-1.4-0.9-2.3-0.9c0,0,0,0-0.1,0c-1,0.1-1.7,0.3-2.3,0.9c-0.6,0.6-0.8,1.5-0.8,2.6
			c0,1.1,0.2,2,0.8,2.6c0.6,0.6,1.3,0.9,2.3,0.9c1,0,1.8-0.3,2.4-0.9C717.6,53.9,717.9,53,717.9,51.8L717.9,51.8z M714.7,46.3
			c0.6-0.1,1.2-0.2,1.8-0.2c1.8,0,3.2,0.5,4.3,1.6c1,1.1,1.6,2.5,1.6,4.3c0,1.9-0.5,3.4-1.6,4.5c-1,1.1-2.4,1.6-4.2,1.6
			c-0.6,0-1.2-0.1-1.9-0.2c-0.3-0.1-0.6-0.2-0.9-0.4c-0.8-0.4-1.6-1-2.2-1.8v0.4c0,0.3,0,0.6,0,0.9c0,0.3-0.1,0.6-0.1,0.9h-4.4
			c0.1-0.4,0.1-0.9,0.1-1.3c0-0.4,0.1-0.9,0.1-1.2V41.5h4.3V48c0.7-0.6,1.4-1.1,2.2-1.4C714.1,46.5,714.4,46.4,714.7,46.3
			L714.7,46.3z M764.4,47.8c2.3,0,4.2,1.9,4.2,4.2c0,2.3-1.9,4.2-4.2,4.2c-2.3,0-4.2-1.9-4.2-4.2C760.2,49.7,762.1,47.8,764.4,47.8
			L764.4,47.8z M764.4,58.1c3.4,0,6.1-2.7,6.1-6.1c0-3.4-2.7-6.2-6.1-6.2c-3.4,0-6.2,2.7-6.2,6.2C758.2,55.4,761,58.1,764.4,58.1
			L764.4,58.1z M741.9,56.1h1.9v1.7h-1.9V56.1L741.9,56.1z M756.7,56.4c-0.6,0.5-1.9,1.7-4.3,1.7c-3.1,0-6.1-2.4-6.1-6.1
			c0-3.7,3-6.2,6.1-6.2c2.3,0,3.7,1.2,4.3,1.7c-0.4,0.6-0.7,1.6-0.8,2c-1.2-1.6-2.6-1.8-3.5-1.8c-2.3,0-4.2,1.9-4.2,4.2
			c0,2.2,1.9,4.2,4.2,4.2c1.3,0,2.6-0.6,3.5-1.8C756.1,55.4,756.5,56,756.7,56.4L756.7,56.4z M773.3,57.8V46.4h1.7V48
			c0.4-0.6,0.9-1,1.4-1.4c0.6-0.3,1.3-0.5,2.1-0.5c0.8,0,1.5,0.2,2.1,0.5c0.6,0.4,0.9,0.9,1.2,1.5c0.9-1.3,2.1-2,3.5-2
			c1.1,0,2,0.3,2.6,0.9c0.6,0.6,0.9,1.6,0.9,2.9v7.8h-1.9v-7.2c0-0.8-0.1-1.3-0.2-1.7c-0.1-0.3-0.4-0.6-0.7-0.8
			c-0.3-0.2-0.7-0.3-1.2-0.3c-0.8,0-1.4,0.2-2,0.8c-0.5,0.5-0.8,1.4-0.8,2.6v6.6h-1.9v-7.4c0-0.9-0.1-1.5-0.4-1.9
			c-0.3-0.4-0.9-0.6-1.6-0.6c-0.6,0-1.1,0.1-1.5,0.4c-0.5,0.2-0.8,0.7-1,1.2c-0.2,0.6-0.3,1.4-0.3,2.4v5.9H773.3L773.3,57.8z
			 M788.1,43.9v-2.2h-0.8v-0.2h2v0.2h-0.8v2.2H788.1L788.1,43.9z M789.6,43.9v-2.4h0.5l0.6,1.7c0.1,0.1,0.1,0.3,0.1,0.3
			c0-0.1,0.1-0.2,0.1-0.4l0.6-1.7h0.4v2.4h-0.3v-2.1l-0.7,2.1h-0.3l-0.7-2.1v2.1H789.6L789.6,43.9z M733.7,56.1
			c-0.4,0.7-1.1,1.1-2.1,1.5c-0.2,0.1-0.4,0.1-0.6,0.2c-0.8,0.2-1.6,0.3-2.6,0.3c-1.4,0-2.6-0.3-3.4-0.9c-0.8-0.6-1.2-1.4-1.2-2.6
			c0-0.7,0.2-1.3,0.5-1.9c0.3-0.5,0.8-0.9,1.3-1.3c0.4-0.3,1.1-0.5,1.9-0.6c0.8-0.1,1.9-0.2,3.4-0.2c0.1,0,0.3,0,0.5,0h2.1
			c0-0.1,0-0.1,0-0.2c0-0.1,0-0.1,0-0.1c0-0.6-0.2-1.1-0.6-1.4c-0.4-0.3-0.9-0.5-1.6-0.5c-0.2,0-0.4,0.1-0.5,0.1
			c-0.6,0-1,0.1-1.3,0.3c-0.4,0.2-0.6,0.6-0.7,1.1h-4.4c0.1-1.2,0.8-2.2,1.9-2.8c1-0.6,2.5-0.8,4.5-0.9c0.2,0,0.4,0,0.6,0
			c2.1,0,3.7,0.4,4.7,1.1c1,0.7,1.5,1.8,1.5,3.3v5.8c0,0.3,0.1,0.6,0.1,0.9c0.1,0.2,0.1,0.4,0.2,0.6H734c-0.1-0.2-0.2-0.4-0.2-0.7
			c0-0.2-0.1-0.5-0.1-0.7V56.1L733.7,56.1z M731,55.6c0.8-0.1,1.4-0.3,1.8-0.7c0.5-0.4,0.8-1.1,0.8-1.9v-0.2h-0.4
			c-0.9,0-1.6,0-2.2,0.1c-0.7,0.1-1.2,0.1-1.6,0.3c-0.7,0.2-1.1,0.6-1.1,1.2c0,0.4,0.2,0.7,0.6,0.9c0.4,0.2,0.9,0.3,1.6,0.3
			C730.8,55.6,730.9,55.6,731,55.6L731,55.6z M700.1,56.1c-0.5,0.7-1.2,1.1-2.1,1.5c-0.2,0.1-0.4,0.1-0.6,0.2
			c-0.7,0.2-1.6,0.3-2.6,0.3c-1.4,0-2.6-0.3-3.3-0.9c-0.8-0.6-1.2-1.4-1.2-2.6c0-0.7,0.1-1.3,0.4-1.9c0.3-0.5,0.7-0.9,1.3-1.3
			c0.5-0.3,1.1-0.5,1.9-0.6c0.7-0.1,1.9-0.2,3.4-0.2c0.2,0,0.3,0,0.5,0h2.1c0-0.1,0-0.1,0-0.2c0-0.1,0-0.1,0-0.1
			c0-0.6-0.2-1.1-0.6-1.4c-0.4-0.3-0.9-0.5-1.6-0.5c-0.2,0-0.3,0.1-0.5,0.1c-0.6,0-1,0.1-1.3,0.3c-0.4,0.2-0.6,0.6-0.7,1.1H691
			c0.2-1.2,0.8-2.2,1.9-2.8c1.1-0.6,2.6-0.8,4.5-0.9c0.2,0,0.4,0,0.6,0c2.1,0,3.7,0.4,4.7,1.1c1,0.7,1.6,1.8,1.6,3.3v5.8
			c0,0.3,0,0.6,0,0.9c0.1,0.2,0.1,0.4,0.2,0.6h-4.1c-0.1-0.2-0.2-0.4-0.2-0.7c-0.1-0.2-0.1-0.5-0.1-0.7V56.1L700.1,56.1z
			 M697.4,55.6c0.8-0.1,1.4-0.3,1.8-0.7c0.6-0.4,0.8-1.1,0.8-1.9v-0.2h-0.4c-0.9,0-1.6,0-2.2,0.1c-0.6,0.1-1.1,0.1-1.5,0.3
			c-0.8,0.2-1.1,0.6-1.1,1.2c0,0.4,0.2,0.7,0.5,0.9c0.4,0.2,0.9,0.3,1.7,0.3C697.1,55.6,697.3,55.6,697.4,55.6L697.4,55.6z
			 M684.2,51.8c0-1.1-0.2-1.9-0.8-2.5c-0.6-0.6-1.3-0.9-2.3-0.9c-1.1,0.1-1.8,0.3-2.4,0.9c-0.6,0.6-0.8,1.5-0.8,2.6
			c0,1.1,0.2,2,0.8,2.6c0.6,0.6,1.4,0.9,2.3,0.9h0.1c1,0,1.7-0.3,2.3-0.9C684,53.9,684.2,53,684.2,51.8L684.2,51.8z M681.1,46.3
			c0.6-0.1,1.1-0.2,1.7-0.2c1.8,0,3.2,0.5,4.3,1.6c1.1,1.1,1.6,2.5,1.6,4.3c0,1.9-0.5,3.4-1.5,4.5c-1.1,1.1-2.4,1.6-4.2,1.6
			c-0.7,0-1.3-0.1-1.9-0.2c-0.4-0.1-0.7-0.2-0.9-0.4c-0.9-0.4-1.6-1-2.2-1.8v0.4c0,0.3,0,0.6-0.1,0.9c0,0.3-0.1,0.6-0.1,0.9h-4.4
			c0.1-0.4,0.1-0.9,0.1-1.3c0.1-0.4,0.1-0.9,0.1-1.2V41.5h4.4V48c0.6-0.6,1.4-1.1,2.2-1.4C680.5,46.5,680.8,46.4,681.1,46.3
			L681.1,46.3z M647.1,41.5h3.2l8,16.4H653l-1.4-3.3h-4.5h-4.4l-1.6,3.3h-4.9l8.6-16.4H647.1L647.1,41.5z M647.1,51.3h3l-2.8-6.3
			l-0.2,0.3l-2.9,6H647.1L647.1,51.3z M659,57.8V41.5h4.4v16.4H659L659,57.8z"/>
		<path class="st1" d="M647.7,17.6h-1.1V22h1.1h1.2v-4.4H647.7L647.7,17.6z M710.1,27.2h2.1c0.7,0,1.2-0.2,1.4-0.6
			c0.2-0.3,0.4-1.1,0.6-2.4c0.4,0.6,1.1,0.9,1.9,1.1c-0.4,1.6-0.9,2.6-1.2,2.8c-0.4,0.3-1.1,0.4-2.1,0.4h-2.6h-5.9h-1.1
			c-1.8,0-2.7-0.7-2.7-2.2V15.4c0-0.8-0.1-1.7-0.1-2.8h3.9h5.9h3.8c-0.1,1.1-0.1,2.6-0.1,4.5c0,1.9,0,3.4,0.1,4.6h-1.6v-1.2h-2.2
			h-5.9h-2.2v5.1c0,1.1,0.6,1.7,1.8,1.7h0.4H710.1L710.1,27.2z M710.1,19h2.2v-4.9h-2.2h-2.2V19H710.1L710.1,19z M704.2,19h2.2v-4.9
			h-2.2h-2.2V19H704.2L704.2,19z M689.8,27.2h2.1c0.7,0,1.2-0.2,1.4-0.6c0.2-0.3,0.4-1.1,0.6-2.4c0.5,0.6,1.1,0.9,1.9,1.1
			c-0.4,1.6-0.9,2.6-1.2,2.8c-0.4,0.3-1.1,0.4-2.1,0.4h-2.6h-5.9h-1.1c-1.8,0-2.7-0.7-2.7-2.2V15.4c0-0.8-0.1-1.7-0.1-2.8h3.9h5.9
			h3.8c-0.1,1.1-0.1,2.6-0.1,4.5c0,1.9,0,3.4,0.1,4.6H692v-1.2h-2.2h-5.9h-2.2v5.1c0,1.1,0.6,1.7,1.8,1.7h0.4H689.8L689.8,27.2z
			 M689.8,19h2.2v-4.9h-2.2h-2.2V19H689.8L689.8,19z M683.9,19h2.2v-4.9h-2.2h-2.2V19H683.9L683.9,19z M669.5,27.2h3.2
			c0.9-0.1,1.8-0.1,2.9-0.1v1.5c-1.1-0.1-2-0.2-2.9-0.2h-3.2h-5.9h-2.7c-0.9,0-2.1,0.1-3.2,0.2v-1.5c1.2,0,2.3,0,3.2,0.1h2.7h2.1
			v-2.6h-2.1h-1.4c-0.8,0-1.7,0-2.7,0.1v-1.4c1.1,0.1,2,0.1,2.7,0.2h1.4h2.1v-2.2h-2.1h-3.8c0.1-1.1,0.1-2.4,0.1-3.9
			c0-1.4,0-3.1-0.1-4.9h3.8h5.9h3.9c-0.1,1.1-0.1,2.6-0.1,4.4c0,1.8,0,3.3,0.1,4.4h-3.9h-2.3v2.2h2.3h1.5c0.7-0.1,1.7-0.1,2.8-0.2
			v1.4c-1.1-0.1-2.1-0.1-2.8-0.1h-1.5h-2.3v2.6H669.5L669.5,27.2z M669.5,20h2.3v-2.5h-2.3h-2.3V20H669.5L669.5,20z M669.5,16.4h2.3
			v-2.7h-2.3h-2.3v2.7H669.5L669.5,16.4z M663.6,20h2.1v-2.5h-2.1h-2.1V20H663.6L663.6,20z M663.6,16.4h2.1v-2.7h-2.1h-2.1v2.7
			H663.6L663.6,16.4z M647.7,23.4h-1.1v1.9h-1.5c0.1-0.8,0.1-2.3,0.1-4.5c0-2.2,0-3.7-0.1-4.5h2.6h2.7c-0.1,1-0.1,2.4-0.1,4.1
			c0,1.7,0,3.1,0.1,4.1h-1.5v-1.2H647.7L647.7,23.4z M647.7,13.7h4.2V26c0,0.6-0.1,1-0.4,1.1c-0.2,0.1-0.9,0.1-1.8,0.1
			c0.4,0.6,0.6,1.2,0.7,1.8c1.1-0.1,1.9-0.3,2.4-0.6c0.5-0.3,0.7-0.9,0.7-1.9V13.7c0.5,0,1.2,0,2.2,0.1v-1.5c-1,0.1-1.7,0.1-2,0.1
			h-5.9h-0.9c-0.6,0-1.4,0-2.4-0.1v1.5c1.2-0.1,2-0.1,2.4-0.1H647.7L647.7,13.7z M640.7,18.5c1.1,1.6,1.7,2.7,1.9,3.4
			c0.2,0.8,0.1,1.3-0.2,1.5c-0.3,0.2-0.9,0.4-1.8,0.5c0.3,0.6,0.6,1.1,0.7,1.7c0.8-0.2,1.5-0.5,2.1-0.9c0.6-0.5,0.9-1.2,0.9-2.2
			c-0.1-0.9-0.7-2.3-2.1-4.1c0.6-2.1,1.2-4.1,1.7-6.1h-5.6c0.1,1.1,0.1,3.7,0.1,7.9c0,4.2,0,7.2-0.1,8.9h1.6V13.7h2.1
			C641.6,15.6,641.1,17.2,640.7,18.5L640.7,18.5L640.7,18.5z"/>
	</g>
	<g>
		<path class="st1" d="M466.5,19l0.5,0.5c0.1,0.1,0.2-0.4,0.2-0.3c0.1,0.1,0.3-0.4,0.4-0.5c0.3-0.4,0.6-0.6,0.9-0.9
			c1-1,0.6-0.7,1.9-1.4c1.5-0.8,2.9-1.6,5.1-1.6h0.9c4.1,0,9.2,3.1,10.9,5.8l0.4-0.6c0,0-3.2-3.5-3.7-3.9c-1.3-1.2-3.4-2.2-5.8-2.2
			H476C471.2,13.8,469.2,17.2,466.5,19L466.5,19z M468.4,22.3l2.4-0.5l-1.4-0.5l-0.9,0.5V22.3z M490.1,27v-0.5
			c-5.9-3.1-10.4-4.7-19.4-4.7l-2.4,0.5H467l1.4-0.5l0.9-0.5l4.7-0.6c1.4-0.1,7.5,0.8,8.9,1.1c0.8,0.2,2.6,1,3.7,1.4
			c0.7,0.3,1,0.3,1.7,0.7c0.3,0.2,0.4,0.3,0.8,0.6c0.1,0.1,0.3,0.6,0.5,0.4l0.5-0.4c-4.4-3-8.9-5.3-16.1-5.3h-0.9
			c-1.8,0-8.9,2.5-8.5,2.8l0.4,0.6l2-0.6l-2.5,1.7l4.4-0.4l8,0.1C483.1,23.7,486,26,490.1,27L490.1,27z M490.1,26.5V27l0.9,0.5
			L490.1,26.5z M485.4,48.7c-1.4-2.7-2.6-6.1-3.7-9c-2.2-6.1-4.2-12.7-12.3-12.7h-2.8l0-1.9l-2.4,2.8c12.3,0,12.5,2.4,15.6,11.9
			c2,6.1,4.2,15.4,11.4,16C489.2,53,487.3,52.5,485.4,48.7L485.4,48.7z M489.7,27.9c0.3,1.2,7.1,13.7,8.3,16.2
			c1.7,3.4,2.5,4.7,4.7,7.6c0.8,1,6,5.9,6.3,5.5l0.5-0.4C501,51,496.7,32.7,489.7,27.9L489.7,27.9z M472.6,64.9
			c1.4-2.6,2.9-4.7,2.9-8.6V53c0-2.6-0.9-3.2-1.4-5.2c2.5-0.6,4.5-1.8,4.7-4.7h-0.9c-0.7,2.7-5.9,5.2-9.4,5.2
			c-1.2,0-1.6-3.4-1.8-4.4c-0.7-5-0.8-1.4-2.6-3.1c-1-1,1.2-8.2,1.5-9.5h-0.9c-0.1,2.8-2.4,6.3-2.4,9c0,0.7,2.1,1.4,2.8,1.9
			c0,2.2,1.3,8,2.8,8c1.5,0,4.6-1.3,5.7-1.9c0.3,1.1,0.5,1.1,0.5,2.4v4.7c0,2.2-0.3,3.1-0.7,5c-0.1,0.6-0.3,1.7-0.4,2.4
			c-0.1,0.1-0.3,0.8-0.4,1c-0.1,0.1-0.5,0.4-0.5,0.6L472.6,64.9z M507.6,61c1.2,0,1-0.1,2.1,0.2c0.2,0.1,0.5,0.2,0.6,0.3
			c0.1,0,0.4,0.5,0.6,0.4l0.5-0.4c-2.1-1-3.7-2-6.7-2h-1.4c-7.9,0-13,2.2-19.3,3.9c-8,2.1-9.7,2.7-20.4,2.7c1.4,1.3,4,1.9,6.6,1.9
			h1.9c13.3,0,23.3-7.1,34.5-7.1H507.6z"/>
		<path class="st0" d="M529.8,22.8c0,2.2-0.6,3.9-1.8,5.1c-1.2,1.1-2.9,1.7-5.2,1.7h-3.2V16.3h3.6c2.1,0,3.7,0.5,4.8,1.7
			C529.2,19.1,529.8,20.7,529.8,22.8L529.8,22.8z M528.7,22.9c0-1.9-0.5-3.3-1.4-4.3c-1-1-2.4-1.4-4.3-1.4h-2.4v11.7h2.2
			C526.8,28.8,528.7,26.8,528.7,22.9L528.7,22.9z M542.6,16.3v8.6c0,1.5-0.4,2.7-1.3,3.6c-0.9,0.9-2.1,1.3-3.7,1.3
			c-1.5,0-2.7-0.4-3.6-1.3c-0.9-0.9-1.3-2.1-1.3-3.6v-8.6h0.9v8.6c0,1.3,0.4,2.3,1.1,3c0.7,0.7,1.7,1.1,3,1.1c1.3,0,2.3-0.3,2.9-1
			c0.7-0.7,1-1.7,1-2.9v-8.7H542.6z M546.2,16.3h3.6c1.6,0,2.8,0.3,3.6,0.8c0.8,0.6,1.1,1.4,1.1,2.5c0,0.8-0.2,1.4-0.7,1.9
			c-0.5,0.5-1.2,0.8-2.1,1v0c1.1,0.2,1.8,0.5,2.3,1c0.5,0.5,0.7,1.2,0.7,2.1c0,1.2-0.4,2.2-1.2,2.8c-0.8,0.7-2,1-3.4,1h-4.1V16.3z
			 M547.1,22.2h2.9c1.2,0,2.1-0.2,2.7-0.6c0.6-0.4,0.8-1.1,0.8-1.9c0-0.9-0.3-1.5-0.9-1.9c-0.6-0.4-1.6-0.6-2.9-0.6h-2.7V22.2z
			 M547.1,23.1v5.7h3.1c2.5,0,3.7-1,3.7-3c0-1.8-1.3-2.7-3.9-2.7H547.1z M563.9,24.9h-5.4l-1.9,4.7h-1l5.4-13.3h0.6l5.2,13.3h-1
			L563.9,24.9z M558.8,24.1h4.8l-1.8-4.8c-0.2-0.4-0.3-0.9-0.5-1.6c-0.2,0.6-0.3,1.1-0.5,1.6L558.8,24.1z M568.7,29.6V16.3h0.9v13.3
			H568.7z M528.2,39c0,1.7-0.4,3-1.3,4c-0.8,1-2,1.5-3.5,1.5c-1.5,0-2.6-0.5-3.5-1.5c-0.8-1-1.3-2.3-1.3-4c0-1.7,0.4-3,1.3-4
			c0.9-1,2-1.5,3.5-1.5c1.5,0,2.6,0.5,3.5,1.5C527.8,36,528.2,37.3,528.2,39L528.2,39z M519.5,39c0,1.5,0.3,2.7,1,3.5
			c0.7,0.8,1.7,1.2,2.9,1.2c1.3,0,2.3-0.4,2.9-1.2c0.7-0.8,1-2,1-3.5c0-1.5-0.3-2.7-1-3.5c-0.7-0.8-1.6-1.2-2.9-1.2
			c-1.3,0-2.2,0.4-2.9,1.2C519.9,36.3,519.5,37.5,519.5,39L519.5,39z M538.3,44.3h-0.7l-6.3-9.4h0c0,1.1,0.1,2,0.1,2.5v6.9h-0.7
			V33.7h0.7l6.3,9.4h0c0-0.9-0.1-1.7-0.1-2.5v-6.9h0.7V44.3z M541.4,44.3V33.7h0.7v9.9h5.1v0.7H541.4z M549,44.3V33.7h0.7v10.6H549z
			 M560.4,44.3h-0.7l-6.3-9.4h-0.1c0.1,1.1,0.1,2,0.1,2.5v6.9h-0.7V33.7h0.7l6.3,9.4h0c0-0.9-0.1-1.7-0.1-2.5v-6.9h0.7V44.3z
			 M569.2,44.3h-5.8V33.7h5.8v0.7h-5.1v4h4.8v0.7h-4.8v4.5h5.1V44.3z M526.6,58.8c0,1.1-0.4,1.9-1.2,2.5c-0.8,0.6-1.8,0.9-3.1,0.9
			c-1.5,0-2.7-0.2-3.6-0.5v-0.9c0.9,0.4,2.1,0.6,3.5,0.6c1,0,1.9-0.2,2.5-0.7c0.6-0.5,0.9-1.1,0.9-1.9c0-0.5-0.1-0.9-0.3-1.2
			c-0.2-0.3-0.5-0.6-1-0.9c-0.5-0.2-1.1-0.5-2-0.8c-1.3-0.4-2.2-0.9-2.7-1.4c-0.5-0.5-0.7-1.2-0.7-2.1c0-0.9,0.4-1.7,1.1-2.3
			c0.7-0.6,1.7-0.9,2.9-0.9c1.2,0,2.3,0.2,3.4,0.7l-0.3,0.8c-1-0.4-2.1-0.7-3-0.7c-0.9,0-1.7,0.2-2.2,0.6c-0.6,0.4-0.8,1-0.8,1.8
			c0,0.5,0.1,0.8,0.2,1.1c0.2,0.3,0.4,0.6,0.8,0.8c0.4,0.2,1.1,0.5,2,0.9c1,0.3,1.7,0.7,2.2,1c0.5,0.3,0.9,0.7,1.1,1.1
			C526.5,57.7,526.6,58.2,526.6,58.8L526.6,58.8z M532.6,62.1h-0.9V50.2h-4.1v-0.8h9.1v0.8h-4.1V62.1z M548.8,55.7
			c0,2-0.5,3.6-1.5,4.8c-1,1.2-2.4,1.8-4.2,1.8c-1.8,0-3.1-0.6-4.2-1.8c-1-1.2-1.5-2.8-1.5-4.8c0-2,0.5-3.6,1.5-4.8
			c1-1.2,2.4-1.7,4.2-1.7c1.8,0,3.2,0.6,4.2,1.7C548.3,52.1,548.8,53.7,548.8,55.7L548.8,55.7z M538.5,55.7c0,1.8,0.4,3.2,1.2,4.2
			c0.8,1,2,1.5,3.5,1.5c1.5,0,2.7-0.5,3.5-1.5c0.8-1,1.2-2.4,1.2-4.2c0-1.8-0.4-3.2-1.2-4.2c-0.8-1-2-1.5-3.5-1.5
			c-1.5,0-2.7,0.5-3.5,1.5C538.9,52.5,538.5,53.9,538.5,55.7L538.5,55.7z M552.7,56.5v5.5h-0.9V49.4h3c1.6,0,2.7,0.3,3.5,0.9
			c0.7,0.6,1.1,1.4,1.1,2.6c0,0.9-0.2,1.6-0.7,2.2c-0.4,0.6-1.1,1-2,1.2l3.4,5.8h-1.1l-3.3-5.5H552.7z M552.7,55.8h2.4
			c1.1,0,1.9-0.2,2.5-0.7c0.6-0.5,0.9-1.2,0.9-2.1c0-1-0.3-1.7-0.9-2.1c-0.6-0.4-1.5-0.7-2.8-0.7h-2.1V55.8z M569.2,62.1h-6.9V49.4
			h6.9v0.8h-6V55h5.7v0.8h-5.7v5.4h6V62.1z M583.1,61.8v0.9h-8.1v-4.5h0.8v3.6h3v-3.3h0.8v3.3H583.1z M579.8,56h3.4v0.9h-8.1v-2.2
			c0-1,0.2-1.7,0.6-2.2c0.4-0.5,0.9-0.7,1.7-0.7c1.1,0,1.8,0.5,2.2,1.6l3.6-2.2v1.1l-3.4,1.9V56z M579,56v-1.3
			c0-0.7-0.1-1.1-0.4-1.5c-0.3-0.3-0.6-0.4-1.2-0.4c-0.5,0-0.9,0.1-1.1,0.5c-0.2,0.3-0.4,0.8-0.4,1.5V56H579z M579.1,42.9
			c1.3,0,2.3,0.3,3,1c0.7,0.7,1.1,1.6,1.1,2.7c0,1.2-0.4,2.1-1.1,2.8c-0.7,0.6-1.7,1-3.1,1c-1.3,0-2.3-0.3-3.1-1
			c-0.7-0.6-1.1-1.6-1.1-2.7c0-1.2,0.4-2.1,1.1-2.7C576.8,43.2,577.8,42.9,579.1,42.9L579.1,42.9z M579.1,49.3
			c1.1,0,1.9-0.2,2.5-0.7c0.6-0.5,0.8-1.1,0.8-2c0-0.9-0.3-1.6-0.8-2c-0.6-0.4-1.4-0.7-2.5-0.7c-1.1,0-1.9,0.2-2.5,0.7
			c-0.5,0.5-0.8,1.1-0.8,2c0,0.9,0.3,1.6,0.8,2C577.2,49.1,578,49.3,579.1,49.3L579.1,49.3z M583.1,37.5l-7.1,2.7v0.1
			c0.6-0.1,1.2-0.1,2-0.1h5.1v0.9h-8.1v-1.4l6.6-2.6v-0.1l-6.6-2.6v-1.4h8.1v0.9h-5.2c-0.6,0-1.2,0-1.9-0.1v0l7.1,2.8V37.5z
			 M583.1,22.9l-2.6,1v3.2l2.6,1v0.9l-8.1-3.2v-0.8l8.1-3.2V22.9z M579.7,24.2l-2.5,0.9c-0.3,0.1-0.7,0.2-1.2,0.4
			c0.3,0.1,0.7,0.2,1.2,0.3l2.5,0.9V24.2z M583.1,16.3v4.5h-8.1v-4.5h0.8v3.6h2.6v-3.3h0.8v3.3h3v-3.6H583.1z M580.4,29.6h2.3v2.5
			h-2.3V29.6z"/>
	</g>
</g>
</svg>
