<?xml version="1.0" encoding="utf-8"?>
<!-- Generator: Adobe Illustrator 19.0.0, SVG Export Plug-In . SVG Version: 6.00 Build 0)  -->
<svg version="1.1" id="Layer_1" xmlns="http://www.w3.org/2000/svg" xmlns:xlink="http://www.w3.org/1999/xlink" x="0px" y="0px"
	 viewBox="0 0 199.2 161.5" style="enable-background:new 0 0 199.2 161.5;" xml:space="preserve">
<style type="text/css">
	
		.st0{fill-rule:evenodd;clip-rule:evenodd;fill:#78CF29;fill-opacity:8.000000e-02;stroke:#78CF29;stroke-miterlimit:10;stroke-opacity:0.3;}
	.st1{fill-rule:evenodd;clip-rule:evenodd;fill:#45CF29;}
	.st2{fill:#FFFFFF;}
	.st3{fill-rule:evenodd;clip-rule:evenodd;fill:#FDC32D;}
	.st4{fill-rule:evenodd;clip-rule:evenodd;fill:#D19200;}
	.st5{fill-rule:evenodd;clip-rule:evenodd;fill:#939291;}
	.st6{fill-rule:evenodd;clip-rule:evenodd;fill:#4E4C42;}
	.st7{fill-rule:evenodd;clip-rule:evenodd;fill:#F8A4B2;}
	.st8{fill-rule:evenodd;clip-rule:evenodd;fill:#F48094;}
	.st9{fill-rule:evenodd;clip-rule:evenodd;fill:#FFFCD7;}
	.st10{fill-rule:evenodd;clip-rule:evenodd;fill:#EBE596;}
	.st11{fill-rule:evenodd;clip-rule:evenodd;fill:#919190;}
	.st12{fill-rule:evenodd;clip-rule:evenodd;fill:#2B2A29;}
	.st13{fill-rule:evenodd;clip-rule:evenodd;fill:#D6BC85;}
	.st14{fill-rule:evenodd;clip-rule:evenodd;fill:#DBC392;}
	.st15{fill-rule:evenodd;clip-rule:evenodd;fill:#9D8A62;}
	.st16{fill-rule:evenodd;clip-rule:evenodd;fill:#A2906C;}
	.st17{fill-rule:evenodd;clip-rule:evenodd;fill:#DFC99D;}
	.st18{fill-rule:evenodd;clip-rule:evenodd;fill:#B7A462;}
	.st19{fill-rule:evenodd;clip-rule:evenodd;fill:#BBA96C;}
	.st20{fill-rule:evenodd;clip-rule:evenodd;fill:#C1AA78;}
	.st21{fill-rule:evenodd;clip-rule:evenodd;fill:#C6B084;}
	.st22{fill-rule:evenodd;clip-rule:evenodd;fill:#C8B386;}
	.st23{fill-rule:evenodd;clip-rule:evenodd;fill:#CCB891;}
	.st24{fill-rule:evenodd;clip-rule:evenodd;fill:#E8D2A7;}
	.st25{fill-rule:evenodd;clip-rule:evenodd;fill:#EDDBB8;}
	.st26{fill-rule:evenodd;clip-rule:evenodd;fill:#B9512C;}
	.st27{fill-rule:evenodd;clip-rule:evenodd;fill:#0071BC;}
	.st28{fill-rule:evenodd;clip-rule:evenodd;fill:#258999;}
	.st29{fill-rule:evenodd;clip-rule:evenodd;fill:#E6F7FA;}
	.st30{fill-rule:evenodd;clip-rule:evenodd;fill:#CAE6EB;}
	.st31{fill-rule:evenodd;clip-rule:evenodd;fill:#FFD100;}
	.st32{fill-rule:evenodd;clip-rule:evenodd;fill:#FFFFFF;}
	.st33{fill-rule:evenodd;clip-rule:evenodd;fill:#FC6E3A;}
	.st34{fill-rule:evenodd;clip-rule:evenodd;fill:#B6DCE3;}
</style>
<g id="XMLID_156_">
	<circle id="XMLID_440_" class="st0" cx="102.2" cy="74.4" r="73.7"/>
	<circle id="XMLID_439_" class="st1" cx="103.5" cy="147" r="14.5"/>
	<g id="XMLID_6_">
		<g id="XMLID_64_">
			<path id="XMLID_65_" class="st2" d="M107,150.2h-1.3v2.2h-2.2v-2.2H99v-1.6l4.7-6.9h2.1v6.7h1.3V150.2z M103.5,148.5v-1.8
				c0-0.3,0-0.7,0-1.3s0-0.9,0.1-1h-0.1c-0.2,0.4-0.4,0.8-0.7,1.2l-2,3H103.5z"/>
		</g>
	</g>
	<g id="XMLID_157_">
		<g id="XMLID_425_">
			<rect id="XMLID_435_" x="173.4" y="21.9" class="st3" width="6.3" height="64.8"/>
			<rect id="XMLID_434_" x="176.6" y="21.9" class="st4" width="3.1" height="64.8"/>
			<rect id="XMLID_433_" x="173.4" y="19.5" class="st5" width="6.3" height="2.4"/>
			<rect id="XMLID_432_" x="176.6" y="19.5" class="st6" width="3.1" height="2.4"/>
			<rect id="XMLID_431_" x="173.4" y="13.9" class="st7" width="6.3" height="5.6"/>
			<rect id="XMLID_430_" x="176.6" y="13.9" class="st8" width="3.1" height="5.6"/>
			<polygon id="XMLID_429_" class="st9" points="175.5,93.3 173.4,86.7 179.7,86.7 177.7,93.3 			"/>
			<polygon id="XMLID_428_" class="st10" points="176.6,86.7 179.7,86.7 177.7,93.3 176.6,93.3 			"/>
			<polygon id="XMLID_427_" class="st11" points="176.6,96.8 175.3,92.5 178,92.5 			"/>
			<polygon id="XMLID_426_" class="st12" points="176.6,96.8 176.6,96.8 176.6,92.5 178,92.5 			"/>
		</g>
		<g id="XMLID_158_">
			<g id="XMLID_188_">
				<g id="XMLID_189_">
					<g id="XMLID_390_">
						<rect id="XMLID_424_" x="37.4" y="36.1" class="st13" width="96.5" height="84.9"/>
						<path id="XMLID_391_" class="st14" d="M45.7,36.1V121h-0.4V36.1H45.7L45.7,36.1z M48.7,36.1V121h-0.4V36.1H48.7L48.7,36.1z
							 M51.7,36.1V121h-0.4V36.1H51.7L51.7,36.1z M54.7,36.1V121h-0.4V36.1H54.7L54.7,36.1z M57.6,36.1V121h-0.4V36.1H57.6
							L57.6,36.1z M60.6,36.1V121h-0.4V36.1H60.6L60.6,36.1z M63.6,36.1V121h-0.4V36.1H63.6L63.6,36.1z M66.5,36.1V121h-0.4V36.1
							H66.5L66.5,36.1z M69.5,36.1V121h-0.4V36.1H69.5L69.5,36.1z M72.5,36.1V121h-0.4V36.1H72.5L72.5,36.1z M75.4,36.1V121h-0.4
							V36.1H75.4L75.4,36.1z M78.4,36.1V121H78V36.1H78.4L78.4,36.1z M81.4,36.1V121H81V36.1H81.4L81.4,36.1z M84.3,36.1V121H84
							V36.1H84.3L84.3,36.1z M87.3,36.1V121h-0.4V36.1H87.3L87.3,36.1z M90.3,36.1V121h-0.4V36.1H90.3L90.3,36.1z M93.2,36.1V121
							h-0.4V36.1H93.2L93.2,36.1z M96.2,36.1V121h-0.4V36.1H96.2L96.2,36.1z M99.2,36.1V121h-0.4V36.1H99.2L99.2,36.1z M102.1,36.1
							V121h-0.4V36.1H102.1L102.1,36.1z M105.1,36.1V121h-0.4V36.1H105.1L105.1,36.1z M108.1,36.1V121h-0.4V36.1H108.1L108.1,36.1z
							 M111,36.1V121h-0.4V36.1H111L111,36.1z M114,36.1V121h-0.4V36.1H114L114,36.1z M117,36.1V121h-0.4V36.1H117L117,36.1z
							 M119.9,36.1V121h-0.4V36.1H119.9L119.9,36.1z M122.9,36.1V121h-0.4V36.1H122.9L122.9,36.1z M125.9,36.1V121h-0.4V36.1H125.9
							L125.9,36.1z M128.8,36.1V121h-0.4V36.1H128.8L128.8,36.1z M131.8,36.1V121h-0.4V36.1H131.8L131.8,36.1z M39.8,36.1V121h-0.4
							V36.1H39.8L39.8,36.1z M42.8,36.1V121h-0.4V36.1H42.8z"/>
					</g>
					<g id="XMLID_352_">
						<path id="XMLID_380_" class="st15" d="M120.4,103.7v-4.4h0.7l-1.2-1.2l-1.2,1.2h0.7v4.4h-0.7v0.6h4.9v-0.6h-0.7v-4.4h0.7
							l-1.2-1.2l-1.2,1.2h0.7v4.4H120.4L120.4,103.7z M107,96h5.6v0l0,0v0c0.7,0,1.3,0.3,1.7,0.7c0.4,0.4,0.7,1,0.7,1.7h0v0h0v5.6h0
							v0h0c0,0.7-0.3,1.3-0.7,1.7c-0.4,0.4-1,0.7-1.7,0.7l0,0l0,0l0,0H107l0,0l0,0l0,0c-0.7,0-1.3-0.3-1.7-0.7
							c-0.4-0.4-0.7-1-0.7-1.7h0v0h0v-5.6h0v0h0c0-0.7,0.3-1.3,0.7-1.7C105.7,96.2,106.3,96,107,96L107,96L107,96L107,96L107,96z
							 M109.8,98.2L109.8,98.2c-1.4,0.1-2.6,1.4-2.6,2.8c0,0,0,0.1,0,0.1c0.2-0.3,0.5-0.5,0.9-0.5c0.4,0,0.8,0.2,0.9,0.6h0
							c0.2-0.2,0.4-0.3,0.7-0.4v2.4h0l0,0h0c0,0.2-0.1,0.4-0.2,0.5c-0.1,0.1-0.3,0.2-0.5,0.2l0,0h0l0,0l0,0c-0.2,0-0.4-0.1-0.5-0.2
							c-0.1-0.1-0.2-0.3-0.2-0.5l0,0l0,0c0-0.2-0.1-0.3-0.3-0.3c-0.2,0-0.3,0.1-0.3,0.3l0,0h0c0,0.4,0.2,0.7,0.4,0.9
							c0.2,0.2,0.6,0.4,1,0.4l0,0l0,0h0l0,0c0.4,0,0.7-0.2,0.9-0.4c0.2-0.2,0.4-0.6,0.4-1h0l0,0h0v-2.4c0.2,0.1,0.4,0.2,0.6,0.4h0
							c0.2-0.3,0.5-0.6,0.9-0.6c0.4,0,0.8,0.2,0.9,0.5c0,0,0-0.1,0-0.1c0-1.4-1.1-2.6-2.5-2.8v0c0-0.2-0.1-0.3-0.3-0.3
							C109.9,97.9,109.8,98.1,109.8,98.2L109.8,98.2z M112.6,97H107v0l0,0v0c-0.4,0-0.7,0.2-1,0.4c-0.2,0.3-0.4,0.6-0.4,1l0,0v0l0,0
							v5.6l0,0v0l0,0c0,0.4,0.2,0.7,0.4,1c0.3,0.3,0.6,0.4,1,0.4v0l0,0v0h5.6v0l0,0v0c0.4,0,0.7-0.2,1-0.4c0.3-0.2,0.4-0.6,0.4-1h0
							v0h0v-5.6h0v0h0c0-0.4-0.2-0.7-0.4-1C113.4,97.2,113,97,112.6,97L112.6,97L112.6,97L112.6,97L112.6,97z M95.7,96h5.6v0l0,0v0
							c0.7,0,1.3,0.3,1.7,0.7c0.4,0.4,0.7,1,0.7,1.7h0v0h0v5.6h0v0h0c0,0.7-0.3,1.3-0.7,1.7c-0.4,0.4-1,0.7-1.7,0.7l0,0l0,0l0,0
							h-5.6l0,0l0,0l0,0c-0.7,0-1.3-0.3-1.7-0.7c-0.4-0.4-0.7-1-0.7-1.7h0v0h0v-5.6h0v0h0c0-0.7,0.3-1.3,0.7-1.7
							C94.4,96.2,95,96,95.7,96L95.7,96L95.7,96L95.7,96L95.7,96z M100.4,98.1h-3.8v1.2c0,1,0.7,1.7,1.6,1.9v2.6h-0.7v0.6h2v-0.6
							h-0.7v-2.6c0.9-0.1,1.6-0.9,1.6-1.9V98.1L100.4,98.1z M101.3,97h-5.6v0l0,0v0c-0.4,0-0.7,0.2-1,0.4c-0.2,0.3-0.4,0.6-0.4,1h0
							v0h0v5.6h0v0h0c0,0.4,0.2,0.7,0.4,1c0.2,0.3,0.6,0.4,1,0.4v0l0,0v0h5.6v0l0,0v0c0.4,0,0.7-0.2,1-0.4c0.2-0.2,0.4-0.6,0.4-1h0
							v0h0v-5.6h0v0h0c0-0.4-0.2-0.7-0.4-1C102,97.2,101.7,97,101.3,97L101.3,97L101.3,97L101.3,97L101.3,97z M118.3,96h5.6v0l0,0v0
							c0.7,0,1.3,0.3,1.7,0.7s0.7,1,0.7,1.7l0,0v0l0,0v5.6l0,0v0l0,0c0,0.7-0.3,1.3-0.7,1.7s-1,0.7-1.7,0.7l0,0l0,0l0,0h-5.6l0,0
							l0,0l0,0c-0.7,0-1.3-0.3-1.7-0.7s-0.7-1-0.7-1.7l0,0v0l0,0v-5.6l0,0v0l0,0c0-0.7,0.3-1.3,0.7-1.7S117.6,96,118.3,96L118.3,96
							L118.3,96L118.3,96L118.3,96z M124,97L124,97L124,97L124,97c0.4,0,0.7,0.2,1,0.4c0.2,0.3,0.4,0.6,0.4,1h0v0h0v5.6h0v0h0
							c0,0.4-0.2,0.7-0.4,1c-0.3,0.3-0.6,0.4-1,0.4v0l0,0v0h-5.6v0l0,0v0c-0.4,0-0.7-0.2-1-0.4c-0.2-0.2-0.4-0.6-0.4-1h0v0h0v-5.6h0
							v0h0c0-0.4,0.2-0.7,0.4-1c0.3-0.2,0.6-0.4,1-0.4v0h0v0H124z"/>
						<path id="XMLID_353_" class="st16" d="M119.9,98.2L119.9,98.2l-0.4,0.3v5.9h0.4V98.2L119.9,98.2z M122.5,104.3h0.4v-5.7
							l-0.4-0.4V104.3L122.5,104.3z M107.7,96h0.4v1h-0.4V96L107.7,96z M110.7,96h0.4v1h-0.4V96L110.7,96z M113.6,96.2
							c0.1,0.1,0.3,0.1,0.4,0.2v1.8c0-0.3-0.2-0.5-0.4-0.7V96.2L113.6,96.2z M114,106c-0.1,0.1-0.2,0.1-0.4,0.2V105
							c0.2-0.2,0.3-0.5,0.4-0.7V106L114,106z M111,106.5h-0.4v-1h0.4V106.5L111,106.5z M108.1,106.5h-0.4v-1h0.4V106.5L108.1,106.5z
							 M105.1,105.5c-0.2-0.2-0.3-0.4-0.4-0.7v-7.3c0.1-0.2,0.2-0.5,0.4-0.7V105.5L105.1,105.5z M110.7,98.3c0.1,0,0.2,0.1,0.4,0.1
							v2.7l0,0.1h0c-0.1-0.1-0.2-0.2-0.3-0.3V98.3L110.7,98.3z M108.1,104.1c-0.2-0.2-0.3-0.5-0.4-0.8v-0.2c0-0.1,0.1-0.2,0.3-0.2
							c0,0,0.1,0,0.1,0V104.1L108.1,104.1z M108.1,100.6c-0.1,0-0.3,0.1-0.4,0.1v-1.2c0.1-0.2,0.2-0.3,0.4-0.5V100.6L108.1,100.6z
							 M95.8,96h0.4v1h-0.4V96L95.8,96z M98.8,96h0.4v1h-0.4V96L98.8,96z M101.8,96c0.1,0,0.3,0.1,0.4,0.1v1.2
							c-0.1-0.1-0.2-0.2-0.4-0.2V96L101.8,96z M102.1,106.3c-0.1,0-0.2,0.1-0.4,0.1v-1.1c0.1,0,0.3-0.1,0.4-0.2V106.3L102.1,106.3z
							 M99.2,106.5h-0.4v-1h0.4V106.5L99.2,106.5z M96.2,106.5h-0.4v-1h0.4V106.5L96.2,106.5z M99.2,101.1c-0.1,0-0.2,0.1-0.4,0.1
							v-3.1h0.4V101.1L99.2,101.1z M98.8,103.8h0.4v0.6h-0.4V103.8L98.8,103.8z M119.6,96h0.4v1h-0.4V96L119.6,96z M122.5,96h0.4v1
							h-0.4V96L122.5,96z M125.5,96.5c0.1,0,0.1,0.1,0.2,0.2c0.1,0.1,0.1,0.1,0.2,0.2v8.6c-0.1,0.1-0.1,0.2-0.2,0.2
							c-0.1,0.1-0.1,0.1-0.2,0.2V96.5L125.5,96.5z M122.9,106.5h-0.4v-1h0.4V106.5L122.9,106.5z M119.9,106.5h-0.4v-1h0.4V106.5
							L119.9,106.5z M117,106c-0.1-0.1-0.3-0.2-0.4-0.3l0,0v-9.1l0,0c0.1-0.1,0.2-0.2,0.4-0.3v1.7c0,0.1,0,0.2,0,0.3h0v0h0v5.6h0v0
							h0c0,0.1,0,0.2,0,0.3V106z"/>
					</g>
					<g id="XMLID_333_">
						<rect id="XMLID_351_" x="37.4" y="36.1" class="st14" width="47.8" height="84.9"/>
						<path id="XMLID_334_" class="st17" d="M45.7,36.1V121h-0.4V36.1L45.7,36.1L45.7,36.1z M48.7,36.1V121h-0.4V36.1H48.7
							L48.7,36.1z M51.7,36.1V121h-0.4V36.1H51.7L51.7,36.1z M54.7,36.1V121h-0.4V36.1H54.7L54.7,36.1z M57.6,36.1V121h-0.4l0-84.9
							H57.6L57.6,36.1z M60.6,36.1V121h-0.4l0-84.9H60.6L60.6,36.1z M63.6,36.1V121h-0.4V36.1H63.6L63.6,36.1z M66.5,36.1V121h-0.4
							V36.1H66.5L66.5,36.1z M69.5,36.1V121h-0.4V36.1H69.5L69.5,36.1z M72.5,36.1V121h-0.4V36.1H72.5L72.5,36.1z M75.4,36.1V121
							h-0.4V36.1H75.4L75.4,36.1z M78.4,36.1V121H78V36.1H78.4L78.4,36.1z M81.4,36.1V121H81V36.1L81.4,36.1L81.4,36.1z M84.3,36.1
							V121H84V36.1H84.3L84.3,36.1z M39.8,36.1V121h-0.4V36.1H39.8L39.8,36.1z M42.8,36.1V121h-0.4V36.1H42.8z"/>
					</g>
					<g id="XMLID_323_">
						<rect id="XMLID_332_" x="43.6" y="92.3" class="st18" width="20.4" height="7.8"/>
						<path id="XMLID_324_" class="st19" d="M46.2,92.3h0.4v7.8h-0.4V92.3L46.2,92.3z M49.2,92.3h0.4v7.8h-0.4V92.3L49.2,92.3z
							 M52.2,92.3h0.4v7.8h-0.4V92.3L52.2,92.3z M55.1,92.3h0.4v7.8h-0.4V92.3L55.1,92.3z M58.1,92.3h0.4v7.8h-0.4V92.3L58.1,92.3z
							 M61.1,92.3h0.4v7.8h-0.4V92.3L61.1,92.3z M64,92.3L64,92.3v7.8l0,0V92.3z"/>
					</g>
					<g id="XMLID_314_">
						<rect id="XMLID_322_" x="78.4" y="111.6" class="st20" width="17.7" height="9.4"/>
						<path id="XMLID_315_" class="st21" d="M81,111.6h0.4v9.4H81V111.6L81,111.6z M84,111.6h0.4v9.4H84V111.6L84,111.6z
							 M86.9,111.6h0.4v9.4h-0.4V111.6L86.9,111.6z M89.9,111.6h0.4v9.4h-0.4V111.6L89.9,111.6z M92.9,111.6h0.4v9.4h-0.4V111.6
							L92.9,111.6z M95.8,111.6h0.3v9.4h-0.3V111.6z"/>
					</g>
					<g id="XMLID_279_">
						<polygon id="XMLID_313_" class="st20" points="134,42.9 134,52.7 37.4,52.7 37.4,38.9 133.2,38.9 						"/>
						<path id="XMLID_280_" class="st21" d="M45.7,38.9v13.7h-0.4V38.9H45.7L45.7,38.9z M39.4,52.7h0.4V38.9h-0.4V52.7L39.4,52.7z
							 M42.4,52.7h0.4V38.9h-0.4V52.7L42.4,52.7z M48.3,52.7h0.4V38.9h-0.4V52.7L48.3,52.7z M51.3,52.7h0.4V38.9h-0.4V52.7
							L51.3,52.7z M54.3,52.7h0.4V38.9h-0.4V52.7L54.3,52.7z M57.2,52.7h0.4V38.9h-0.4V52.7L57.2,52.7z M60.2,52.7h0.4V38.9h-0.4
							V52.7L60.2,52.7z M63.2,52.7h0.4V38.9h-0.4V52.7L63.2,52.7z M66.2,52.7h0.4V38.9h-0.4V52.7L66.2,52.7z M69.1,52.7h0.4V38.9
							h-0.4V52.7L69.1,52.7z M72.1,52.7h0.4V38.9h-0.4V52.7L72.1,52.7z M75.1,52.7h0.4V38.9h-0.4V52.7L75.1,52.7z M78,52.7h0.4V38.9
							H78V52.7L78,52.7z M81,52.7h0.4V38.9H81V52.7L81,52.7z M84,52.7h0.4V38.9H84V52.7L84,52.7z M86.9,52.7h0.4V38.9h-0.4V52.7
							L86.9,52.7z M89.9,52.7h0.4V38.9h-0.4V52.7L89.9,52.7z M92.9,52.7h0.4V38.9h-0.4V52.7L92.9,52.7z M95.8,52.7h0.4V38.9h-0.4
							V52.7L95.8,52.7z M98.8,52.7h0.4V38.9h-0.4V52.7L98.8,52.7z M101.8,52.7h0.4V38.9h-0.4V52.7L101.8,52.7z M104.7,52.7h0.4V38.9
							h-0.4V52.7L104.7,52.7z M107.7,52.7h0.4V38.9h-0.4V52.7L107.7,52.7z M110.7,52.7h0.4V38.9h-0.4V52.7L110.7,52.7z M113.6,52.7
							h0.4V38.9h-0.4V52.7L113.6,52.7z M116.6,52.7h0.4V38.9h-0.4V52.7L116.6,52.7z M119.6,52.7h0.4V38.9h-0.4V52.7L119.6,52.7z
							 M122.5,52.7h0.4V38.9h-0.4V52.7L122.5,52.7z M125.5,52.7h0.4V38.9h-0.4V52.7L125.5,52.7z M128.5,52.7h0.4V38.9h-0.4V52.7
							L128.5,52.7z M131.4,52.7h0.4V38.9h-0.4V52.7z"/>
					</g>
					<g id="XMLID_196_">
						<rect id="XMLID_278_" x="37.4" y="38.9" class="st22" width="47.8" height="13.7"/>
						<path id="XMLID_197_" class="st23" d="M45.7,38.9v13.7h-0.4V38.9H45.7L45.7,38.9z M39.4,52.7h0.4V38.9h-0.4V52.7L39.4,52.7z
							 M42.4,52.7h0.4V38.9h-0.4V52.7L42.4,52.7z M48.3,52.7h0.4V38.9h-0.4V52.7L48.3,52.7z M51.3,52.7h0.4V38.9h-0.4V52.7
							L51.3,52.7z M54.3,52.7h0.4V38.9h-0.4V52.7L54.3,52.7z M57.2,52.7h0.4V38.9h-0.4V52.7L57.2,52.7z M60.2,52.7h0.4V38.9h-0.4
							V52.7L60.2,52.7z M63.2,52.7h0.4V38.9h-0.4V52.7L63.2,52.7z M66.2,52.7h0.4V38.9h-0.4V52.7L66.2,52.7z M69.1,52.7h0.4V38.9
							h-0.4V52.7L69.1,52.7z M72.1,52.7h0.4V38.9h-0.4V52.7L72.1,52.7z M75.1,52.7h0.4V38.9h-0.4V52.7L75.1,52.7z M78,52.7h0.4V38.9
							H78V52.7L78,52.7z M81,52.7h0.4V38.9H81V52.7L81,52.7z M84,52.7h0.4V38.9H84V52.7z"/>
					</g>
					<polygon id="XMLID_195_" class="st24" points="37.4,36.1 33.4,49.8 136.6,49.8 134,36.1 					"/>
					<polygon id="XMLID_194_" class="st25" points="37.4,36.1 33.4,49.8 85.2,49.8 85.2,36.1 					"/>
					<path id="XMLID_190_" class="st26" d="M98.8,68.7h27.1v2.1H98.8V68.7L98.8,68.7z M114,77.5h11.8v2.1H114V77.5L114,77.5z
						 M107.7,73.1h18.2v2.1h-18.2V73.1z"/>
				</g>
			</g>
			<g id="XMLID_159_">
				
					<rect id="XMLID_187_" x="98.2" y="20.3" transform="matrix(-1 3.519310e-03 -3.519310e-03 -1 258.8029 117.7539)" class="st27" width="62.2" height="77.7"/>
				<polygon id="XMLID_186_" class="st28" points="105,28.7 156.1,28.5 156.3,81.5 145.5,92.3 105.3,92.5 				"/>
				<polygon id="XMLID_185_" class="st29" points="103.7,27.3 154.7,27.1 154.9,80.1 144.1,91 103.9,91.1 				"/>
				<polygon id="XMLID_184_" class="st30" points="144.1,91 144.1,80.1 154.9,80.1 				"/>
				<polygon id="XMLID_183_" class="st31" points="118.1,23.7 140.2,23.6 137.7,31.1 120.7,31.1 				"/>
				<polygon id="XMLID_182_" class="st31" points="139,27.3 137.7,31.1 120.7,31.1 119.4,27.4 				"/>
				
					<rect id="XMLID_178_" x="124.6" y="41.9" transform="matrix(-1 3.521483e-03 -3.521483e-03 -1 262.4274 84.6886)" class="st32" width="13" height="1.3"/>
				
					<rect id="XMLID_177_" x="113.1" y="45.6" transform="matrix(-1 3.455638e-03 -3.455638e-03 -1 250.9323 91.9934)" class="st32" width="24.6" height="1.3"/>
				
					<rect id="XMLID_176_" x="113.1" y="38.3" transform="matrix(-1 3.459708e-03 -3.459708e-03 -1 250.8528 77.5244)" class="st32" width="24.6" height="1.3"/>
				<path id="XMLID_174_" class="st33" d="M143.5,41.5c0,0.4,0,0.8-0.1,1.2c0,0.4,0,0.8,0,1.1c0,0.2,0,0.5,0.1,0.7
					c0,0.1,0.1,0.2,0.2,0.3l0,0c0.5,0,1.4-1.1,2.3-2.5c0.9-1.4,1.7-2.9,1.9-3.6l0,0c0-0.1,0-0.1,0-0.1l0.9,0c0,0.1,0,0.2,0,0.3v0
					c-0.2,0.8-1,2.5-2,3.9c-1,1.5-2.2,2.8-3,2.8c-0.1,0-0.1,0-0.2,0l0,0c-0.5-0.1-0.7-0.5-0.8-0.9c-0.1-0.3-0.1-0.7-0.1-0.9
					c0-0.4,0-0.8,0-1.2c0-0.4,0-0.8,0.1-1.2L143.5,41.5z"/>
				<path id="XMLID_169_" class="st34" d="M113.5,59l24.6-0.1l0,1.3l-24.6,0.1L113.5,59L113.5,59z M113.5,51.8l24.6-0.1l0,1.3
					L113.5,53L113.5,51.8L113.5,51.8z M125,55.4l13,0l0,1.3l-13,0L125,55.4z"/>
				<path id="XMLID_168_" class="st33" d="M143.9,54.9c0,0.4,0,0.8-0.1,1.2c0,0.4,0,0.8,0,1.1c0,0.2,0,0.5,0.1,0.7
					c0,0.1,0.1,0.2,0.1,0.3h0c0.5,0,1.4-1.1,2.3-2.5c0.9-1.4,1.7-2.9,1.9-3.6l0,0c0-0.1,0-0.1,0-0.2l0.9,0c0,0.1,0,0.2,0,0.3l0,0
					c-0.2,0.8-1,2.5-2,3.9c-1,1.5-2.2,2.8-3,2.8c-0.1,0-0.1,0-0.2,0h0c-0.5-0.1-0.7-0.5-0.8-0.9c-0.1-0.3-0.1-0.7-0.1-0.9
					c0-0.4,0-0.8,0-1.2c0-0.4,0-0.8,0.1-1.2L143.9,54.9z"/>
				
					<rect id="XMLID_163_" x="125.6" y="68.5" transform="matrix(-1 3.443997e-03 -3.443997e-03 -1 264.3886 137.7354)" class="st32" width="13" height="1.3"/>
				
					<rect id="XMLID_162_" x="114" y="72.1" transform="matrix(-1 3.455638e-03 -3.455638e-03 -1 252.8961 145.0281)" class="st32" width="24.6" height="1.3"/>
				
					<rect id="XMLID_161_" x="114" y="64.9" transform="matrix(-1 3.459708e-03 -3.459708e-03 -1 252.8205 130.559)" class="st32" width="24.6" height="1.3"/>
				<path id="XMLID_160_" class="st33" d="M144.4,68.1c0,0.4,0,0.8-0.1,1.2c0,0.4,0,0.8,0,1.1c0,0.2,0,0.5,0.1,0.7
					c0,0.1,0.1,0.2,0.1,0.3v0c0.5,0,1.4-1.1,2.3-2.5c0.9-1.4,1.7-2.9,1.9-3.6l0,0c0-0.1,0-0.1,0-0.1l0.9,0c0,0.1,0,0.2,0,0.3l0,0
					c-0.2,0.8-1,2.5-2,3.9c-1,1.5-2.2,2.8-3,2.8c-0.1,0-0.1,0-0.2,0h0c-0.5-0.1-0.7-0.5-0.8-0.9c-0.1-0.3-0.1-0.7-0.1-0.9
					c0-0.4,0-0.8,0-1.2c0-0.4,0-0.8,0.1-1.2L144.4,68.1z"/>
			</g>
		</g>
	</g>
</g>
</svg>
