<?xml version="1.0" encoding="utf-8"?>
<!-- Generator: Adobe Illustrator 19.0.0, SVG Export Plug-In . SVG Version: 6.00 Build 0)  -->
<svg version="1.1" id="Layer_1" xmlns="http://www.w3.org/2000/svg" xmlns:xlink="http://www.w3.org/1999/xlink" x="0px" y="0px"
	 viewBox="0 0 195 17" style="enable-background:new 0 0 195 17;" xml:space="preserve">
<style type="text/css">
	.st0{fill:#FFFFFF;}
</style>
<g>
	<path class="st0" d="M183.3,5.4l-5.7,5.1l5.7,5.1h-3.9l-4.6-4.1v-1v-1l4.6-4.1H183.3z M174.2,5.5v10.3h-2.5V5.5H174.2z M150.7,6.6
		l12.8-5.8v3.9L155,8.6l8.5,3.9v2.3v1.4v0.3l-12.8-6L138,16.2v-3.9l8.4-3.7L138,4.6V0.6L150.7,6.6z M106.5,6.9h16.2v3.6h-16.2V6.9z
		 M106.5,12.9h27.5v3.6h-27.5V12.9z M106.5,0.7h27.5v3.6h-27.5V0.7z M70,0.3l16,5.4l17.8-5.5v16h-3.6V5L86.5,9.2l-0.6,0.2l-0.5-0.2
		L70,4V0.3z M65.1,8.5V4.3H40.9l0,0l0,0c-1.4,0-2.7,0.6-3.6,1.5c-0.7,0.7-1.3,1.7-1.4,2.7H65.1z M65.1,16.1v-4H35.9v4h-3.6V9.3l0,0
		l0,0c0-2.4,1-4.6,2.5-6.1c1.6-1.6,3.7-2.6,6.1-2.6l0,0l0,0H67h1.8v1.8v13.5H65.1z M29.4,16.4H7.9H7.9l0,0c-2.1,0-4.1-0.9-5.5-2.3
		c-1.4-1.4-2.3-3.4-2.3-5.5l0,0l0,0l0,0l0,0c0-2.2,0.9-4.1,2.3-5.6l0,0c1.4-1.4,3.4-2.3,5.5-2.3l0,0h0.1h21.5v3.6H7.9H7.9l0,0
		c-1.2,0-2.2,0.5-2.9,1.3H4.9c-0.7,0.7-1.2,1.8-1.2,3l0,0l0,0l0,0l0,0c0,1.2,0.5,2.2,1.3,2.9c0.7,0.8,1.8,1.3,2.9,1.3l0,0h0.1h21.5
		V16.4z M184.3,5.4H195v2.8l-6.9,5h6.9v2.5h-10.8v-2.8l6.9-5h-6.8V5.4z M166.5,13.1h2.8v2.7h-2.8V13.1z"/>
</g>
</svg>
