<?xml version="1.0" encoding="utf-8"?>
<!-- Generator: Adobe Illustrator 19.0.0, SVG Export Plug-In . SVG Version: 6.00 Build 0)  -->
<svg version="1.1" id="Layer_1" xmlns="http://www.w3.org/2000/svg" xmlns:xlink="http://www.w3.org/1999/xlink" x="0px" y="0px"
	 viewBox="0 0 310 25.9" style="enable-background:new 0 0 310 25.9;" xml:space="preserve">
<style type="text/css">
	.st0{fill:#0061A9;}
</style>
<g id="XMLID_14_">
	<path id="XMLID_15_" class="st0" d="M290.4,8.4l-9.1,8.1l9.1,8.2h-6.1l-7.3-6.6v-1.6V15l7.3-6.6H290.4z M276,8.6v16.4h-4V8.6H276z
		 M238.8,10.2l20.3-9.1v6.2l-13.5,6.1l13.5,6.2v3.6v2.2v0.5l-20.4-9.5l-20.1,9v-6.2l13.3-5.9l-13.3-6.2V0.8L238.8,10.2z M168.7,10.7
		h25.7v5.7h-25.7V10.7z M168.7,20.2h43.6v5.7h-43.6V20.2z M168.7,0.9h43.6v5.7h-43.6V0.9z M110.8,0.2l25.4,8.5L164.3,0v25.3h-5.7
		V7.7L137,14.5l-0.9,0.3l-0.8-0.3l-24.4-8.2V0.2z M103.1,13.3V6.7H64.7l0,0l0,0c-2.2,0-4.2,0.9-5.7,2.3c-1.2,1.2-2,2.7-2.2,4.3
		H103.1z M103.1,25.3V19H56.8v6.3H51V14.6l0,0l0,0c0-3.8,1.6-7.2,4-9.6c2.5-2.5,5.9-4.1,9.7-4.1l0,0l0,0h41.3h2.8v2.9v21.5H103.1z
		 M46.5,25.8h-34h-0.1l0,0c-3.4,0-6.5-1.4-8.7-3.7C1.4,19.9,0,16.8,0,13.4l0,0l0,0l0,0l0,0c0-3.5,1.4-6.6,3.7-8.8l0,0
		C5.9,2.3,9,0.9,12.4,0.9l0,0h0.1h34v5.7h-34h-0.1l0,0c-1.8,0-3.5,0.7-4.7,2H7.6c-1.2,1.2-1.9,2.8-1.9,4.7l0,0l0,0l0,0l0,0
		c0,1.8,0.7,3.5,2,4.7c1.2,1.2,2.8,2,4.7,2l0,0h0.1h34V25.8z M292,8.3h17v4.5l-11,7.9h10.9v4h-17.1v-4.5l11-7.9H292V8.3z
		 M263.8,20.6h4.4v4.3h-4.4V20.6z"/>
</g>
</svg>
