<?xml version="1.0" encoding="utf-8"?>
<!-- Generator: Adobe Illustrator 19.0.0, SVG Export Plug-In . SVG Version: 6.00 Build 0)  -->
<svg version="1.1" id="Layer_1" xmlns="http://www.w3.org/2000/svg" xmlns:xlink="http://www.w3.org/1999/xlink" x="0px" y="0px"
	 viewBox="0 0 199.2 161.5" style="enable-background:new 0 0 199.2 161.5;" xml:space="preserve">
<style type="text/css">
	
		.st0{fill-rule:evenodd;clip-rule:evenodd;fill:#78CF29;fill-opacity:8.000000e-02;stroke:#78CF29;stroke-miterlimit:10;stroke-opacity:0.3;}
	.st1{fill-rule:evenodd;clip-rule:evenodd;fill:#45CF29;}
	.st2{fill:#FFFFFF;}
	.st3{fill:#E6E6E6;}
	.st4{fill:#003161;}
	.st5{fill:#1B75BB;}
	.st6{fill:#CCCCCC;}
	.st7{fill:#DEDEDE;}
	.st8{fill:#F2F2F2;}
	.st9{fill:#FAFAFA;}
	.st10{fill:#D9D9D9;}
	.st11{fill:#1868A6;}
	.st12{fill:#CBC7CC;}
	.st13{fill:#3A3A38;}
	.st14{fill:#231F20;}
	.st15{fill:#0071BC;}
	.st16{fill:#34373E;}
	.st17{fill:#BAF3FA;}
	.st18{opacity:0.2;fill:#359EB3;stroke:#41464F;stroke-width:3.2758;stroke-miterlimit:10;}
	.st19{fill:#FBCB43;}
	.st20{fill:#359EB3;}
	.st21{fill:#41464F;}
	.st22{opacity:0.4;}
	.st23{opacity:0.4;fill:#E85725;}
	.st24{fill:#302B2D;}
	.st25{fill:#808285;}
	.st26{fill:#D1D3D4;}
	.st27{opacity:0.2;fill:#34373E;}
	.st28{opacity:0.5;fill:#34373E;}
	.st29{opacity:0.21;fill:#FFFF00;}
</style>
<g id="XMLID_6_">
	<circle id="XMLID_265_" class="st0" cx="102.1" cy="74.4" r="73.7"/>
	<circle id="XMLID_264_" class="st1" cx="103.4" cy="147" r="14.5"/>
	<g id="XMLID_152_">
		<g id="XMLID_179_">
			<path id="XMLID_180_" class="st2" d="M106.3,144.1c0,0.7-0.2,1.2-0.6,1.7s-1,0.8-1.7,1v0c0.9,0.1,1.5,0.4,2,0.8
				c0.4,0.4,0.7,1,0.7,1.7c0,1-0.4,1.8-1.1,2.4c-0.7,0.6-1.8,0.9-3.2,0.9c-1.2,0-2.2-0.2-3.1-0.6v-1.9c0.4,0.2,0.9,0.4,1.4,0.5
				s1,0.2,1.5,0.2c0.7,0,1.3-0.1,1.7-0.4c0.4-0.3,0.5-0.7,0.5-1.2c0-0.5-0.2-0.9-0.6-1.1s-1.1-0.3-2-0.3h-0.8v-1.7h0.8
				c0.8,0,1.4-0.1,1.8-0.3c0.4-0.2,0.6-0.6,0.6-1.1c0-0.8-0.5-1.2-1.5-1.2c-0.4,0-0.7,0.1-1.1,0.2c-0.4,0.1-0.8,0.3-1.2,0.6l-1-1.6
				c1-0.7,2.1-1.1,3.5-1.1c1.1,0,2,0.2,2.6,0.7S106.3,143.3,106.3,144.1z"/>
		</g>
	</g>
	<g id="XMLID_74_">
		<g id="XMLID_124_">
			<path id="XMLID_260_" class="st3" d="M7.6,60.9l36,1.3c0,0,12.2,0.6,26.8-2.3l101.9-20.2c3.9-0.8,13.6-2.7,21.5-8.3
				c6.2-4.3,2.7-6.6-0.4-7c-5-5.1-20-4.1-28.7-2.4L52.1,44.4c0,0-32.2,7.4-45.2,13L7.6,60.9z"/>
			<path id="XMLID_256_" class="st4" d="M190.4,23.3l1.4,1.1l1.4-0.2c-0.5-0.5-1.1-0.9-1.8-1.3L190.4,23.3z M189.1,23.6l1.1,1.7
				l1.3-0.8l-1.4-1.1L189.1,23.6z M187.8,23.9l0.3,1.3l1.8,0.3l-1.1-1.8L187.8,23.9z"/>
			<path id="XMLID_255_" class="st5" d="M190.6,33.4c-7.2,4.1-15.1,5.7-18.5,6.4L70.3,59.9c-11.5,2.3-21.6,2.4-25.3,2.3L190.6,33.4z
				"/>
			<path id="XMLID_135_" class="st4" d="M171.8,28.2l0.1,0.6c0.1,0.3,0.3,0.5,0.6,0.4c0.3-0.1,0.5-0.3,0.4-0.6l-0.1-0.6
				c-0.1-0.3-0.3-0.5-0.6-0.4C171.9,27.7,171.8,27.9,171.8,28.2z M170.3,28.5l0.1,0.6c0.1,0.3,0.3,0.5,0.6,0.4
				c0.3-0.1,0.5-0.3,0.4-0.6l-0.1-0.6c-0.1-0.3-0.3-0.5-0.6-0.4C170.4,28,170.2,28.2,170.3,28.5z M168.7,28.8l0.1,0.6
				c0.1,0.3,0.3,0.5,0.6,0.4c0.3-0.1,0.5-0.3,0.4-0.6l-0.1-0.6c-0.1-0.3-0.3-0.5-0.6-0.4C168.8,28.3,168.6,28.6,168.7,28.8z
				 M167.2,29.1l0.1,0.6c0.1,0.3,0.3,0.5,0.6,0.4c0.3-0.1,0.5-0.3,0.4-0.6l-0.1-0.6c-0.1-0.3-0.3-0.5-0.6-0.4
				C167.3,28.6,167.1,28.9,167.2,29.1z M165.6,29.5l0.1,0.6c0.1,0.3,0.3,0.5,0.6,0.4c0.3-0.1,0.5-0.3,0.4-0.6l-0.1-0.6
				c-0.1-0.3-0.3-0.5-0.6-0.4C165.7,28.9,165.5,29.2,165.6,29.5z M164,29.8l0.1,0.6c0.1,0.3,0.3,0.5,0.6,0.4
				c0.3-0.1,0.5-0.3,0.4-0.6l-0.1-0.6c-0.1-0.3-0.3-0.5-0.6-0.4C164.2,29.2,164,29.5,164,29.8z M162.5,30.1l0.1,0.6
				c0.1,0.3,0.3,0.5,0.6,0.4c0.3-0.1,0.5-0.3,0.4-0.6l-0.1-0.6c-0.1-0.3-0.3-0.5-0.6-0.4C162.6,29.5,162.4,29.8,162.5,30.1z
				 M160.9,30.4l0.1,0.6c0.1,0.3,0.3,0.5,0.6,0.4c0.3-0.1,0.5-0.3,0.4-0.6l-0.1-0.6c-0.1-0.3-0.3-0.5-0.6-0.4
				C161.1,29.8,160.9,30.1,160.9,30.4z M159.4,30.7l0.1,0.6c0.1,0.3,0.3,0.5,0.6,0.4c0.3-0.1,0.5-0.3,0.4-0.6l-0.1-0.6
				c-0.1-0.3-0.3-0.5-0.6-0.4C159.5,30.1,159.3,30.4,159.4,30.7z M157.8,31l0.1,0.6c0.1,0.3,0.3,0.5,0.6,0.4
				c0.3-0.1,0.5-0.3,0.4-0.6l-0.1-0.6c-0.1-0.3-0.3-0.5-0.6-0.4C158,30.4,157.8,30.7,157.8,31z M156.3,31.3l0.1,0.6
				c0.1,0.3,0.3,0.5,0.6,0.4c0.3-0.1,0.5-0.3,0.4-0.6l-0.1-0.6c-0.1-0.3-0.3-0.5-0.6-0.4C156.4,30.7,156.2,31,156.3,31.3z
				 M154.7,31.6l0.1,0.6c0.1,0.3,0.3,0.5,0.6,0.4c0.3-0.1,0.5-0.3,0.4-0.6l-0.1-0.6c-0.1-0.3-0.3-0.5-0.6-0.4
				C154.9,31.1,154.7,31.3,154.7,31.6z M153.2,31.9l0.1,0.6c0.1,0.3,0.3,0.5,0.6,0.4c0.3-0.1,0.5-0.3,0.4-0.6l-0.1-0.6
				c-0.1-0.3-0.3-0.5-0.6-0.4C153.3,31.4,153.1,31.6,153.2,31.9z M151.6,32.2l0.1,0.6c0.1,0.3,0.3,0.5,0.6,0.4
				c0.3-0.1,0.5-0.3,0.4-0.6l-0.1-0.6c-0.1-0.3-0.3-0.5-0.6-0.4C151.8,31.7,151.6,31.9,151.6,32.2z M135.3,35.5l0.1,0.6
				c0.1,0.3,0.3,0.5,0.6,0.4c0.3-0.1,0.5-0.3,0.4-0.6l-0.1-0.6c-0.1-0.3-0.3-0.5-0.6-0.4C135.5,34.9,135.3,35.2,135.3,35.5z
				 M133.8,35.8l0.1,0.6c0.1,0.3,0.3,0.5,0.6,0.4c0.3-0.1,0.5-0.3,0.4-0.6l-0.1-0.6c-0.1-0.3-0.3-0.5-0.6-0.4
				C133.9,35.2,133.7,35.5,133.8,35.8z M132.2,36.1l0.1,0.6c0.1,0.3,0.3,0.5,0.6,0.4c0.3-0.1,0.5-0.3,0.4-0.6l-0.1-0.6
				c-0.1-0.3-0.3-0.5-0.6-0.4C132.4,35.5,132.2,35.8,132.2,36.1z M130.7,36.4l0.1,0.6c0.1,0.3,0.3,0.5,0.6,0.4
				c0.3-0.1,0.5-0.3,0.4-0.6l-0.1-0.6c-0.1-0.3-0.3-0.5-0.6-0.4C130.8,35.8,130.6,36.1,130.7,36.4z M129.1,36.7l0.1,0.6
				c0.1,0.3,0.3,0.5,0.6,0.4c0.3-0.1,0.5-0.3,0.4-0.6l-0.1-0.6c-0.1-0.3-0.3-0.5-0.6-0.4C129.3,36.1,129.1,36.4,129.1,36.7z
				 M127.6,37l0.1,0.6c0.1,0.3,0.3,0.5,0.6,0.4c0.3-0.1,0.5-0.3,0.4-0.6l-0.1-0.6c-0.1-0.3-0.3-0.5-0.6-0.4
				C127.7,36.5,127.5,36.7,127.6,37z M126,37.3l0.1,0.6c0.1,0.3,0.3,0.5,0.6,0.4c0.3-0.1,0.5-0.3,0.4-0.6l-0.1-0.6
				c-0.1-0.3-0.3-0.5-0.6-0.4C126.1,36.8,126,37,126,37.3z M124.5,37.6l0.1,0.6c0.1,0.3,0.3,0.5,0.6,0.4c0.3-0.1,0.5-0.3,0.4-0.6
				l-0.1-0.6c-0.1-0.3-0.3-0.5-0.6-0.4C124.6,37.1,124.4,37.3,124.5,37.6z M122.9,37.9l0.1,0.6c0.1,0.3,0.3,0.5,0.6,0.4
				c0.3-0.1,0.5-0.3,0.4-0.6l-0.1-0.6c-0.1-0.3-0.3-0.5-0.6-0.4C123,37.4,122.9,37.7,122.9,37.9z M121.4,38.2l0.1,0.6
				c0.1,0.3,0.3,0.5,0.6,0.4c0.3-0.1,0.5-0.3,0.4-0.6l-0.1-0.6c-0.1-0.3-0.3-0.5-0.6-0.4C121.5,37.7,121.3,38,121.4,38.2z
				 M119.8,38.5l0.1,0.6c0.1,0.3,0.3,0.5,0.6,0.4c0.3-0.1,0.5-0.3,0.4-0.6l-0.1-0.6c-0.1-0.3-0.3-0.5-0.6-0.4
				C119.9,38,119.8,38.3,119.8,38.5z M118.3,38.9l0.1,0.6c0.1,0.3,0.3,0.5,0.6,0.4c0.3-0.1,0.5-0.3,0.4-0.6l-0.1-0.6
				c-0.1-0.3-0.3-0.5-0.6-0.4C118.4,38.3,118.2,38.6,118.3,38.9z M116.7,39.2l0.1,0.6c0.1,0.3,0.3,0.5,0.6,0.4
				c0.3-0.1,0.5-0.3,0.4-0.6l-0.1-0.6c-0.1-0.3-0.3-0.5-0.6-0.4C116.8,38.6,116.7,38.9,116.7,39.2z M115.2,39.5l0.1,0.6
				c0.1,0.3,0.3,0.5,0.6,0.4c0.3-0.1,0.5-0.3,0.4-0.6l-0.1-0.6c-0.1-0.3-0.3-0.5-0.6-0.4C115.3,38.9,115.1,39.2,115.2,39.5z
				 M113.6,39.8l0.1,0.6c0.1,0.3,0.3,0.5,0.6,0.4c0.3-0.1,0.5-0.3,0.4-0.6l-0.1-0.6c-0.1-0.3-0.3-0.5-0.6-0.4
				C113.7,39.2,113.5,39.5,113.6,39.8z M112.1,40.1l0.1,0.6c0.1,0.3,0.3,0.5,0.6,0.4c0.3-0.1,0.5-0.3,0.4-0.6l-0.1-0.6
				c-0.1-0.3-0.3-0.5-0.6-0.4C112.2,39.5,112,39.8,112.1,40.1z M108.9,40.7l0.1,0.6c0.1,0.3,0.3,0.5,0.6,0.4
				c0.3-0.1,0.5-0.3,0.4-0.6l-0.1-0.6c-0.1-0.3-0.3-0.5-0.6-0.4C109.1,40.2,108.9,40.4,108.9,40.7z M107.4,41l0.1,0.6
				c0.1,0.3,0.3,0.5,0.6,0.4c0.3-0.1,0.5-0.3,0.4-0.6l-0.1-0.6c-0.1-0.3-0.3-0.5-0.6-0.4C107.5,40.5,107.3,40.7,107.4,41z
				 M105.8,41.3l0.1,0.6c0.1,0.3,0.3,0.5,0.6,0.4c0.3-0.1,0.5-0.3,0.4-0.6l-0.1-0.6c-0.1-0.3-0.3-0.5-0.6-0.4
				C106,40.8,105.8,41,105.8,41.3z M104.3,41.6l0.1,0.6c0.1,0.3,0.3,0.5,0.6,0.4c0.3-0.1,0.5-0.3,0.4-0.6l-0.1-0.6
				c-0.1-0.3-0.3-0.5-0.6-0.4C104.4,41.1,104.2,41.3,104.3,41.6z M102.7,41.9l0.1,0.6c0.1,0.3,0.3,0.5,0.6,0.4
				c0.3-0.1,0.5-0.3,0.4-0.6l-0.1-0.6c-0.1-0.3-0.3-0.5-0.6-0.4C102.9,41.4,102.7,41.7,102.7,41.9z M101.2,42.2l0.1,0.6
				c0.1,0.3,0.3,0.5,0.6,0.4c0.3-0.1,0.5-0.3,0.4-0.6l-0.1-0.6c-0.1-0.3-0.3-0.5-0.6-0.4C101.3,41.7,101.1,42,101.2,42.2z
				 M99.6,42.6l0.1,0.6c0.1,0.3,0.3,0.5,0.6,0.4c0.3-0.1,0.5-0.3,0.4-0.6l-0.1-0.6c-0.1-0.3-0.3-0.5-0.6-0.4
				C99.8,42,99.6,42.3,99.6,42.6z M98.1,42.9l0.1,0.6c0.1,0.3,0.3,0.5,0.6,0.4c0.3-0.1,0.5-0.3,0.4-0.6l-0.1-0.6
				c-0.1-0.3-0.3-0.5-0.6-0.4C98.2,42.3,98,42.6,98.1,42.9z M96.5,43.2l0.1,0.6c0.1,0.3,0.3,0.5,0.6,0.4c0.3-0.1,0.5-0.3,0.4-0.6
				L97.5,43c-0.1-0.3-0.3-0.5-0.6-0.4C96.7,42.6,96.5,42.9,96.5,43.2z M95,43.5l0.1,0.6c0.1,0.3,0.3,0.5,0.6,0.4
				c0.3-0.1,0.5-0.3,0.4-0.6L96,43.3c-0.1-0.3-0.3-0.5-0.6-0.4C95.1,42.9,94.9,43.2,95,43.5z M93.4,43.8l0.1,0.6
				c0.1,0.3,0.3,0.5,0.6,0.4c0.3-0.1,0.5-0.3,0.4-0.6l-0.1-0.6c-0.1-0.3-0.3-0.5-0.6-0.4C93.6,43.2,93.4,43.5,93.4,43.8z M91.9,44.1
				l0.1,0.6c0.1,0.3,0.3,0.5,0.6,0.4c0.3-0.1,0.5-0.3,0.4-0.6l-0.1-0.6c-0.1-0.3-0.3-0.5-0.6-0.4C92,43.5,91.8,43.8,91.9,44.1z
				 M90.3,44.4l0.1,0.6c0.1,0.3,0.3,0.5,0.6,0.4c0.3-0.1,0.5-0.3,0.4-0.6l-0.1-0.6c-0.1-0.3-0.3-0.5-0.6-0.4
				C90.4,43.8,90.3,44.1,90.3,44.4z M88.8,44.7l0.1,0.6c0.1,0.3,0.3,0.5,0.6,0.4c0.3-0.1,0.5-0.3,0.4-0.6l-0.1-0.6
				c-0.1-0.3-0.3-0.5-0.6-0.4C88.9,44.2,88.7,44.4,88.8,44.7z M87.2,45l0.1,0.6c0.1,0.3,0.3,0.5,0.6,0.4c0.3-0.1,0.5-0.3,0.4-0.6
				l-0.1-0.6c-0.1-0.3-0.3-0.5-0.6-0.4C87.3,44.5,87.2,44.7,87.2,45z M85.7,45.3l0.1,0.6c0.1,0.3,0.3,0.5,0.6,0.4
				c0.3-0.1,0.5-0.3,0.4-0.6l-0.1-0.6c-0.1-0.3-0.3-0.5-0.6-0.4C85.8,44.8,85.6,45,85.7,45.3z M74.2,47.6l0.1,0.6
				c0.1,0.3,0.3,0.5,0.6,0.4c0.3-0.1,0.5-0.3,0.4-0.6l-0.1-0.6c-0.1-0.3-0.3-0.5-0.6-0.4C74.3,47,74.2,47.3,74.2,47.6z M72.7,47.9
				l0.1,0.6c0.1,0.3,0.3,0.5,0.6,0.4c0.3-0.1,0.5-0.3,0.4-0.6l-0.1-0.6c-0.1-0.3-0.3-0.5-0.6-0.4C72.8,47.4,72.6,47.6,72.7,47.9z
				 M71.1,48.2l0.1,0.6c0.1,0.3,0.3,0.5,0.6,0.4c0.3-0.1,0.5-0.3,0.4-0.6L72.1,48c-0.1-0.3-0.3-0.5-0.6-0.4
				C71.2,47.7,71.1,47.9,71.1,48.2z M69.6,48.5l0.1,0.6c0.1,0.3,0.3,0.5,0.6,0.4c0.3-0.1,0.5-0.3,0.4-0.6l-0.1-0.6
				c-0.1-0.3-0.3-0.5-0.6-0.4C69.7,48,69.5,48.2,69.6,48.5z M68,48.8l0.1,0.6c0.1,0.3,0.3,0.5,0.6,0.4c0.3-0.1,0.5-0.3,0.4-0.6
				L69,48.6c-0.1-0.3-0.3-0.5-0.6-0.4C68.1,48.3,68,48.6,68,48.8z M66.5,49.1l0.1,0.6c0.1,0.3,0.3,0.5,0.6,0.4
				c0.3-0.1,0.5-0.3,0.4-0.6l-0.1-0.6c-0.1-0.3-0.3-0.5-0.6-0.4C66.6,48.6,66.4,48.9,66.5,49.1z M64.9,49.5L65,50
				c0.1,0.3,0.3,0.5,0.6,0.4c0.3-0.1,0.5-0.3,0.4-0.6l-0.1-0.6c-0.1-0.3-0.3-0.5-0.6-0.4C65,48.9,64.8,49.2,64.9,49.5z M63.3,49.8
				l0.1,0.6c0.1,0.3,0.3,0.5,0.6,0.4c0.3-0.1,0.5-0.3,0.4-0.6l-0.1-0.6c-0.1-0.3-0.3-0.5-0.6-0.4C63.5,49.2,63.3,49.5,63.3,49.8z
				 M61.8,50.1l0.1,0.6c0.1,0.3,0.3,0.5,0.6,0.4c0.3-0.1,0.5-0.3,0.4-0.6l-0.1-0.6c-0.1-0.3-0.3-0.5-0.6-0.4
				C61.9,49.5,61.7,49.8,61.8,50.1z M60.2,50.4l0.1,0.6c0.1,0.3,0.3,0.5,0.6,0.4c0.3-0.1,0.5-0.3,0.4-0.6l-0.1-0.6
				c-0.1-0.3-0.3-0.5-0.6-0.4C60.4,49.8,60.2,50.1,60.2,50.4z M58.7,50.7l0.1,0.6c0.1,0.3,0.3,0.5,0.6,0.4c0.3-0.1,0.5-0.3,0.4-0.6
				l-0.1-0.6c-0.1-0.3-0.3-0.5-0.6-0.4C58.8,50.1,58.6,50.4,58.7,50.7z M57.1,51l0.1,0.6c0.1,0.3,0.3,0.5,0.6,0.4
				c0.3-0.1,0.5-0.3,0.4-0.6l-0.1-0.6c-0.1-0.3-0.3-0.5-0.6-0.4C57.3,50.4,57.1,50.7,57.1,51z M55.6,51.3l0.1,0.6
				c0.1,0.3,0.3,0.5,0.6,0.4c0.3-0.1,0.5-0.3,0.4-0.6l-0.1-0.6c-0.1-0.3-0.3-0.5-0.6-0.4C55.7,50.7,55.5,51,55.6,51.3z M54,51.6
				l0.1,0.6c0.1,0.3,0.3,0.5,0.6,0.4c0.3-0.1,0.5-0.3,0.4-0.6l-0.1-0.6c-0.1-0.3-0.3-0.5-0.6-0.4C54.2,51.1,54,51.3,54,51.6z
				 M52.5,51.9l0.1,0.6c0.1,0.3,0.3,0.5,0.6,0.4c0.3-0.1,0.5-0.3,0.4-0.6l-0.1-0.6c-0.1-0.3-0.3-0.5-0.6-0.4
				C52.6,51.4,52.4,51.6,52.5,51.9z M50.9,52.2l0.1,0.6c0.1,0.3,0.3,0.5,0.6,0.4c0.3-0.1,0.5-0.3,0.4-0.6L52,52
				c-0.1-0.3-0.3-0.5-0.6-0.4C51.1,51.7,50.9,51.9,50.9,52.2z"/>
			<path id="XMLID_134_" class="st6" d="M34.3,55.2l-4.4,6.5l-11.8-0.4C22.6,57.8,29.1,56.1,34.3,55.2z"/>
			<path id="XMLID_126_" class="st5" d="M48.9,54.5L46.4,55l0.2,1l2.5-0.5L48.9,54.5z M146.9,35.1l-2.5,0.5l0.2,1l2.5-0.5
				L146.9,35.1z M143.4,35.8L49.9,54.3l0.2,1l93.5-18.6L143.4,35.8z M178.4,28.8l-2.5,0.5l0.2,1l2.5-0.5L178.4,28.8z M15.4,61.2
				l4.3,0.2l26-5.2l-0.2-1L15.4,61.2z M179.3,28.6l0.2,1l17.3-3.4c-0.2-0.3-0.5-0.6-0.8-0.8L179.3,28.6z M174.9,29.5l-27,5.4l0.2,1
				l27-5.4L174.9,29.5z"/>
			<path id="XMLID_125_" class="st7" d="M6.9,57.4c0.3-0.1,0.6-0.2,0.9-0.4l0.8,3.9l-1,0L6.9,57.4z"/>
		</g>
		<g id="XMLID_119_">
			<path id="XMLID_123_" class="st3" d="M11.6,55.6l-8.9-4.1c0,0,3.6-1.9,7.2-1.7c1.7,0.1,7.2,1.2,12.5,2.3
				C18.6,53.2,14.9,54.4,11.6,55.6z"/>
			<path id="XMLID_122_" class="st7" d="M11.6,55.6l-8.9-4.1c0,0,0.4-0.2,1.1-0.5l9,4.2C12.5,55.3,12,55.4,11.6,55.6z"/>
			<path id="XMLID_121_" class="st6" d="M22,52c0.2,0,0.3,0.1,0.5,0.1c-3.9,1.1-7.6,2.3-10.8,3.5l-0.3-0.1
				C14.5,54.3,18.2,53.1,22,52z"/>
			<path id="XMLID_120_" class="st8" d="M9.9,49.8c1.7,0.1,7.2,1.2,12.5,2.3c-0.5,0.1-1,0.3-1.4,0.4c-5-1-9.8-1.9-11.4-2.1
				c-2.5-0.2-5,0.7-6.3,1.3l-0.6-0.3C2.8,51.5,6.4,49.5,9.9,49.8z"/>
		</g>
		<g id="XMLID_114_">
			<path id="XMLID_118_" class="st3" d="M90.2,36.8l-17.2-8.2c0,0,7.5-1.8,11.9-2.4c3.3-0.4,6.8,0.3,8.4,0.5
				c0.9,0.1,13.8,2.5,24.8,4.6L90.2,36.8z"/>
			<path id="XMLID_117_" class="st9" d="M114.9,31.9c-10.3-1.9-21.4-4-22.2-4.1c-1.7-0.2-5.2-0.9-8.4-0.5c-3,0.4-7.4,1.4-10,1.9
				l-1.4-0.7c0,0,7.5-1.8,11.9-2.4c3.3-0.4,6.8,0.3,8.4,0.5c0.9,0.1,13.8,2.5,24.8,4.6L114.9,31.9z"/>
			<path id="XMLID_116_" class="st7" d="M90.2,36.8l-17.2-8.2c0,0,0.7-0.2,1.9-0.4l17.3,8.3L90.2,36.8z"/>
			<path id="XMLID_115_" class="st6" d="M89.6,36.6l0.6,0.3l27.9-5.5c-0.3-0.1-0.7-0.1-1-0.2L89.6,36.6z"/>
		</g>
		<g id="XMLID_110_">
			<path id="XMLID_113_" class="st10" d="M125.3,40.9c-5.3,1-23.9,4-36.4,9.8c-11.2,5.3-7.1,6-5.7,6.3c1.3,0.3,2.1,1.1,16.4-1.6
				l32-6.4c4.2-0.8,7-3.1,6.4-5.8C137.5,40.6,133.1,39.5,125.3,40.9z"/>
			<path id="XMLID_112_" class="st9" d="M125.4,41.5c-5.3,1-23.9,4-36.4,9.8c-5.6,2.6-7.4,4.1-7.6,5c-0.6-0.7,0.4-2.3,7.5-5.6
				c12.4-5.9,31.1-8.9,36.4-9.8c7.8-1.5,12.2-0.3,12.7,2.3c0,0.1,0,0.2,0,0.3C137.3,41.1,133,40.1,125.4,41.5z"/>
			<path id="XMLID_111_" class="st11" d="M131.6,49.1l-32,6.4c-14.3,2.8-15.1,2-16.4,1.6c-0.9-0.2-2.8-0.6-1.3-2.2l56.2-11.2
				C138.2,46.2,135.5,48.3,131.6,49.1z"/>
		</g>
		<g id="XMLID_106_">
			<path id="XMLID_109_" class="st5" d="M136.6,45.8c0.4,0,0.8,0.3,0.9,0.7l1.6,8.1c0.1,0.4-0.2,0.8-0.5,1c-0.1,0-0.3,0.1-0.5,0.2
				l-2-9.9C136.3,45.8,136.5,45.8,136.6,45.8z"/>
			<path id="XMLID_108_" class="st3" d="M136.1,45.8l2,9.9c-2.8,1-10.1,3.2-17.2,3.3l8.3-12.4C132.1,46.1,134.7,45.9,136.1,45.8z"/>
			<path id="XMLID_107_" class="st6" d="M129.1,46.6L120.8,59c-4.1,0-8.1-0.7-11.3-2.8C113.5,50.3,122.5,47.7,129.1,46.6z"/>
		</g>
		<g id="XMLID_102_">
			<path id="XMLID_105_" class="st3" d="M135.4,42.6c0,0-21.7-1.1-34.9,7.2L81.4,71.1c0,0,7.6-1.2,11.9-2.4c3.2-0.8,6.2-2.8,7.6-3.7
				C102.3,64.2,135.4,42.6,135.4,42.6z"/>
			<path id="XMLID_104_" class="st8" d="M92.3,67.9c3.2-0.8,6.2-2.8,7.6-3.7c1.3-0.7,27.5-17.9,33.4-21.7c1.3,0,2.1,0,2.1,0
				S102.3,64.2,100.9,65c-1.5,0.8-4.4,2.8-7.6,3.7c-4.3,1.1-11.9,2.4-11.9,2.4l1-1.1C84.9,69.5,89.4,68.7,92.3,67.9z"/>
			<path id="XMLID_103_" class="st7" d="M83.2,70.8c-1.1,0.2-1.9,0.3-1.9,0.3l19.2-21.3c1-0.6,2.1-1.2,3.2-1.7L83.2,70.8z"/>
		</g>
		<g id="XMLID_98_">
			<path id="XMLID_101_" class="st3" d="M17.4,53.7L0,25.9c0,0,2.1-0.5,4.4-1c2.4-0.5,3.8,0.4,5,1.2C10.7,27,36,44,38.6,45.9
				c1,0.7,2.2,1,3.2,1C34.8,48.7,25.3,51.1,17.4,53.7z"/>
			<path id="XMLID_100_" class="st7" d="M1.9,25.5l17.3,27.6c-0.6,0.2-1.2,0.4-1.9,0.6L0,25.9C0,25.9,0.8,25.7,1.9,25.5z"/>
			<path id="XMLID_99_" class="st6" d="M40.7,46.8c0.4,0.1,0.8,0.1,1.1,0.1c-7,1.8-16.5,4.2-24.4,6.8l-0.2-0.4
				C24.8,50.9,33.7,48.5,40.7,46.8z"/>
		</g>
		<g id="XMLID_92_">
			<path id="XMLID_95_" class="st12" d="M49.2,56.3l-2.3,0.5l0,0c-0.4,0.1-0.7-0.2-0.8-0.5h0l-1-4.9l0,0c-0.1-0.4,0.2-0.7,0.5-0.8
				l2.3-0.5l0,0c0.4-0.1,0.7,0.2,0.8,0.5l1,4.9l0,0C49.8,55.9,49.6,56.2,49.2,56.3L49.2,56.3z M48.6,50.7c-0.1-0.3-0.3-0.4-0.6-0.4
				l-2.3,0.5l0,0c-0.3,0.1-0.4,0.3-0.4,0.6l1,4.9l0,0l0,0c0.1,0.3,0.3,0.4,0.6,0.4l2.3-0.5l0,0c0.3-0.1,0.4-0.3,0.4-0.6L48.6,50.7
				L48.6,50.7z"/>
			<g id="XMLID_93_">
				<path id="XMLID_94_" class="st4" d="M46.1,53.9c0,0.2,0.2,0.3,0.3,0.2l0.1,0c0.2,0,0.3-0.2,0.2-0.3l-0.1-0.7
					c0-0.2-0.2-0.3-0.4-0.2l-0.1,0c-0.2,0-0.3,0.2-0.2,0.3L46.1,53.9z"/>
			</g>
		</g>
		<g id="XMLID_86_">
			<path id="XMLID_89_" class="st12" d="M147.7,36c0.1,0.4-0.2,0.7-0.5,0.8l-2.3,0.5l0,0c-0.4,0.1-0.7-0.2-0.8-0.5l-1-4.9l0,0
				c-0.1-0.4,0.2-0.7,0.5-0.8l2.3-0.5l0,0c0.4-0.1,0.7,0.2,0.8,0.5L147.7,36L147.7,36z M146.6,31.2c-0.1-0.3-0.3-0.4-0.6-0.4
				l-2.3,0.5l0,0c-0.3,0.1-0.4,0.3-0.4,0.6l1,4.8l0,0c0.1,0.3,0.3,0.4,0.6,0.4l2.3-0.5l0,0c0.3-0.1,0.4-0.3,0.4-0.6L146.6,31.2
				L146.6,31.2z"/>
			<g id="XMLID_87_">
				<path id="XMLID_88_" class="st4" d="M144.1,34.5c0,0.2,0.2,0.3,0.3,0.2l0.1,0c0.2,0,0.3-0.2,0.2-0.3l-0.1-0.7
					c0-0.2-0.2-0.3-0.4-0.2l-0.1,0c-0.2,0-0.3,0.2-0.2,0.3L144.1,34.5z"/>
			</g>
		</g>
		<g id="XMLID_80_">
			<path id="XMLID_83_" class="st12" d="M178.6,30.6l-2.3,0.5l0,0c-0.4,0.1-0.7-0.2-0.8-0.5l-1-4.9l0,0c-0.1-0.4,0.2-0.7,0.5-0.8
				l2.3-0.5l0,0c0.4-0.1,0.7,0.2,0.8,0.5l1,4.8l0,0C179.2,30.2,179,30.5,178.6,30.6L178.6,30.6z M178,25c-0.1-0.3-0.3-0.4-0.6-0.4
				l-2.3,0.5l0,0c-0.3,0.1-0.4,0.3-0.4,0.6l1,4.8l0,0l0,0c0.1,0.3,0.3,0.4,0.6,0.4l2.3-0.5l0,0c0.3-0.1,0.4-0.3,0.4-0.6L178,25
				L178,25z"/>
			<g id="XMLID_81_">
				<path id="XMLID_82_" class="st4" d="M175.5,28.2c0,0.2,0.2,0.3,0.4,0.2l0.1,0c0.2,0,0.3-0.2,0.2-0.3l-0.1-0.7
					c0-0.2-0.2-0.3-0.4-0.2l-0.1,0c-0.2,0-0.3,0.2-0.2,0.3L175.5,28.2z"/>
			</g>
		</g>
		<g id="XMLID_75_">
			<path id="XMLID_79_" class="st3" d="M34.3,55.2c0,0-17.4,12.1-20.6,13.7c-3.2,1.6-7.2,1.2-7.2,1.2l10.6-11.5
				C21.4,57,29.9,55.4,34.3,55.2z"/>
			<path id="XMLID_78_" class="st8" d="M13.2,68.4C16,67,29.4,57.8,32.9,55.3c0.5,0,0.9-0.1,1.4-0.1c0,0-17.4,12.1-20.6,13.7
				c-3.2,1.6-7.2,1.2-7.2,1.2l0.4-0.5C8.3,69.7,11,69.5,13.2,68.4z"/>
			<path id="XMLID_77_" class="st7" d="M7.7,70.1c-0.7,0-1.2,0-1.2,0l10.6-11.5c0.5-0.2,1.1-0.4,1.8-0.6L7.7,70.1z"/>
			<path id="XMLID_76_" class="st6" d="M16.9,58.9l0.2-0.2c4.3-1.6,12.8-3.2,17.2-3.4c0,0-0.1,0.1-0.3,0.2
				C29.5,55.7,21.2,57.3,16.9,58.9z"/>
		</g>
	</g>
	<g id="XMLID_7_">
		<g id="XMLID_49_">
			<rect id="XMLID_73_" x="32.4" y="51.9" class="st13" width="4.9" height="45.3"/>
			<rect id="XMLID_69_" x="51" y="99.6" class="st14" width="61.4" height="6.7"/>
			<g id="XMLID_60_">
				<path id="XMLID_66_" class="st15" d="M117.1,61.9v47.5h49c0,0,0-9.2,0-15.3c0-3.9-14.8-8.7-14.8-8.7s-14.3-18.5-15.7-20
					c-3.2-3.6-6.5-3.5-7.8-3.5C122.5,61.9,117.1,61.9,117.1,61.9z"/>
				<rect id="XMLID_65_" x="47.9" y="103.5" class="st16" width="120.2" height="7.6"/>
				<rect id="XMLID_64_" x="47.9" y="104.2" class="st13" width="69.2" height="6.7"/>
				<path id="XMLID_63_" class="st16" d="M131.2,88.8c0,0.6-0.5,1-1,1h-3.4c-0.6,0-1-0.5-1-1l0,0c0-0.6,0.5-1,1-1h3.4
					C130.8,87.8,131.2,88.2,131.2,88.8L131.2,88.8z"/>
				<path id="XMLID_62_" class="st17" d="M166.4,100.8c0,0-0.5,0-1.1,0s-1.4-1.4-1.8-3c-0.4-1.7,0.1-3,1.1-3c1,0,1.8,0,1.8,0"/>
				<rect id="XMLID_61_" x="114.4" y="62" class="st13" width="2.7" height="45.7"/>
			</g>
			<line id="XMLID_59_" class="st18" x1="123.5" y1="75.1" x2="123.5" y2="103.6"/>
			<rect id="XMLID_58_" x="35.2" y="51.5" class="st19" width="77.5" height="45.7"/>
			<rect id="XMLID_57_" x="32.4" y="95.8" class="st13" width="81.2" height="4.8"/>
			<g id="XMLID_52_">
				<path id="XMLID_56_" class="st20" d="M125,85.4c-0.8,0-1.4-0.6-1.4-1.4V70.9c0-0.8,0.6-1.4,1.4-1.4h9.4c0.7,0,1.4,0.4,1.8,0.9
					l9.7,13.4c0.3,0.4,0.3,0.8,0.1,1.1c-0.2,0.3-0.5,0.5-1,0.5H125z"/>
				<path id="XMLID_53_" class="st21" d="M134.4,70c0.5,0,1.1,0.3,1.4,0.7l9.7,13.4c0.3,0.4,0.1,0.7-0.4,0.7H125
					c-0.5,0-0.9-0.4-0.9-0.9V70.9c0-0.5,0.4-0.9,0.9-0.9H134.4 M134.4,68.9H125c-1.1,0-2,0.9-2,2V84c0,1.1,0.9,2,2,2h20.1
					c0.7,0,1.2-0.3,1.5-0.8c0.3-0.5,0.2-1.1-0.2-1.7l-9.7-13.4C136.2,69.4,135.2,68.9,134.4,68.9L134.4,68.9z"/>
			</g>
			<g id="XMLID_50_" class="st22">
				<path id="XMLID_51_" class="st20" d="M126.3,73.1c0-0.4,0.3-0.6,0.6-0.6h7.1c0.4,0,0.8,0.2,1,0.5l7.3,10.1
					c0.2,0.3,0.1,0.5-0.3,0.5h-15.1c-0.4,0-0.6-0.3-0.6-0.6V73.1z"/>
			</g>
		</g>
		<path id="XMLID_48_" class="st23" d="M151.4,85.4c0,0-14.3-18.5-15.7-20c-3.2-3.6-6.5-3.5-7.8-3.5c-5.4,0-10.7,0-10.7,0v3.7
			c3.1,0,7.8,0.1,10.9,0.1c3.3,0,5.7,0.3,7.7,2.4c2,2.1,11.8,15,12.8,16.3c1,1.3,1.4,2.1,3.5,2.8c2.1,0.7,11.9,4.7,12.1,7
			c0.1,2.3,0,9.3,0,9.3h2.1c0-3.2,0-5.8,0-9.5C166.1,90.2,151.4,85.4,151.4,85.4z"/>
		<g id="XMLID_42_">
			<path id="XMLID_47_" class="st16" d="M135.7,110.8c-0.3-1-0.5-0.7-0.5-1.9c0-6.7,5.4-12.1,12.1-12.1c6.7,0,12.1,5.4,12.1,12.1
				c0,1.1-0.2,0.8-0.5,1.9H135.7z"/>
			<path id="XMLID_46_" class="st14" d="M147.3,99.7c-5.7,0-10.4,4.6-10.4,10.4c0,0.2,0,0.5,0,0.7h20.7c0-0.2,0-0.5,0-0.7
				C157.7,104.4,153.1,99.7,147.3,99.7z"/>
			<circle id="XMLID_45_" class="st24" cx="147.3" cy="110.1" r="8.7"/>
			<circle id="XMLID_44_" class="st25" cx="147.3" cy="110.1" r="5.4"/>
			<circle id="XMLID_43_" class="st26" cx="147.3" cy="110.1" r="4"/>
		</g>
		<g id="XMLID_35_">
			<path id="XMLID_41_" class="st16" d="M56.3,110.8c-0.3-1-0.5-0.7-0.5-1.9c0-6.7,5.4-12.1,12.1-12.1S80,102.3,80,109
				c0,1.1-0.2,0.8-0.5,1.9H56.3z"/>
			<path id="XMLID_40_" class="st14" d="M67.9,99.7c-5.7,0-10.4,4.6-10.4,10.4c0,0.2,0,0.5,0,0.7h20.7c0-0.2,0-0.5,0-0.7
				C78.2,104.4,73.6,99.7,67.9,99.7z"/>
			<circle id="XMLID_39_" class="st24" cx="67.9" cy="110.1" r="8.7"/>
			<circle id="XMLID_38_" class="st25" cx="67.9" cy="110.1" r="5.4"/>
			<circle id="XMLID_37_" class="st26" cx="67.9" cy="110.1" r="4"/>
		</g>
		<polygon id="XMLID_34_" class="st21" points="142.3,79.1 146,83.9 146,84.8 144.8,85.6 141.3,85.4 		"/>
		<path id="XMLID_31_" class="st27" d="M137.6,82.2h3.6c0.5,0,2.3,0.4,2.3,0.9v5c0,0.5-0.4,0.9-0.9,0.9h-5"/>
		<path id="XMLID_30_" class="st16" d="M139.5,76h3.6c0.5,0,0.9,0.4,0.9,0.9V87c0,0.5-0.4,0.9-0.9,0.9h-3.6"/>
		<path id="XMLID_15_" class="st28" d="M141.9,78.1v9.7h1.1c0.5,0,0.9-0.4,0.9-0.9V76.8c0-0.5-0.4-0.9-0.9-0.9h-3.6v2.2H141.9z"/>
		<polygon id="XMLID_14_" class="st29" points="109.9,61.2 38.1,81.1 38.1,54.4 109.9,54.4 		"/>
	</g>
</g>
</svg>
