<?xml version="1.0" encoding="utf-8"?>
<!-- Generator: Adobe Illustrator 19.0.0, SVG Export Plug-In . SVG Version: 6.00 Build 0)  -->
<svg version="1.1" id="Layer_1" xmlns="http://www.w3.org/2000/svg" xmlns:xlink="http://www.w3.org/1999/xlink" x="0px" y="0px"
	 viewBox="0 0 190 161.5" style="enable-background:new 0 0 190 161.5;" xml:space="preserve">
<style type="text/css">
	
		.st0{fill-rule:evenodd;clip-rule:evenodd;fill:#78CF29;fill-opacity:8.000000e-02;stroke:#78CF29;stroke-miterlimit:10;stroke-opacity:0.3;}
	.st1{fill:#F3EEE0;}
	.st2{fill:#E6E6E6;}
	.st3{opacity:0.3;fill:#103754;}
	.st4{fill:#103754;}
	.st5{fill:#5880C0;}
	.st6{fill:#FFFFFF;}
	.st7{fill:#231F30;}
	.st8{fill:#567A82;}
	.st9{fill:#004493;}
	.st10{fill:#FFD100;}
	.st11{fill:#333333;}
	.st12{fill-rule:evenodd;clip-rule:evenodd;fill:#45CF29;}
</style>
<g id="XMLID_2_">
	<circle id="XMLID_140_" class="st0" cx="95.2" cy="74.4" r="73.7"/>
	<g id="XMLID_57_">
		<rect id="XMLID_139_" x="28.3" y="30.9" class="st1" width="133.4" height="90.1"/>
		<rect id="XMLID_138_" x="45.9" y="48.5" class="st2" width="94.5" height="27.8"/>
		<rect id="XMLID_135_" x="45.9" y="105.8" class="st3" width="94.5" height="1"/>
		<rect id="XMLID_132_" x="45.9" y="107.8" class="st3" width="94.5" height="1"/>
		<rect id="XMLID_129_" x="45.9" y="109.8" class="st3" width="94.5" height="1"/>
		<rect id="XMLID_126_" x="45.9" y="111.9" class="st3" width="94.5" height="1"/>
		<g id="XMLID_88_">
			<path id="XMLID_124_" class="st4" d="M55,41.3h0.2v1.4h0.7v0.2H55V41.3z"/>
			<path id="XMLID_121_" class="st4" d="M56.6,41.6c0.3,0,0.5,0.2,0.5,0.6c0,0.4-0.2,0.6-0.5,0.6c-0.3,0-0.5-0.2-0.5-0.6
				C56,41.9,56.3,41.6,56.6,41.6z M56.6,42.7c0.2,0,0.3-0.2,0.3-0.4c0-0.3-0.1-0.4-0.3-0.4c-0.2,0-0.3,0.2-0.3,0.4
				C56.2,42.5,56.4,42.7,56.6,42.7z"/>
			<path id="XMLID_119_" class="st4" d="M57.4,41.7h0.2l0,0.2h0c0.1-0.1,0.2-0.2,0.3-0.2c0,0,0.1,0,0.1,0l0,0.2c0,0-0.1,0-0.1,0
				c-0.1,0-0.2,0.1-0.3,0.3v0.7h-0.2V41.7z"/>
			<path id="XMLID_116_" class="st4" d="M58.6,41.6c0.3,0,0.5,0.2,0.5,0.5c0,0,0,0.1,0,0.1h-0.8c0,0.2,0.2,0.4,0.4,0.4
				c0.1,0,0.2,0,0.3-0.1l0.1,0.1c-0.1,0.1-0.2,0.1-0.4,0.1c-0.3,0-0.5-0.2-0.5-0.6S58.3,41.6,58.6,41.6z M58.9,42.2
				c0-0.2-0.1-0.4-0.3-0.4c-0.2,0-0.3,0.1-0.3,0.4H58.9z"/>
			<path id="XMLID_114_" class="st4" d="M59.3,41.7h0.2l0,0.2h0c0.1-0.1,0.2-0.2,0.4-0.2c0.2,0,0.3,0.1,0.3,0.2
				c0.1-0.1,0.2-0.2,0.4-0.2c0.2,0,0.3,0.2,0.3,0.4v0.7h-0.2v-0.7c0-0.2-0.1-0.3-0.2-0.3c-0.1,0-0.2,0.1-0.3,0.2v0.8H60v-0.7
				c0-0.2-0.1-0.3-0.2-0.3c-0.1,0-0.2,0.1-0.3,0.2v0.8h-0.2V41.7z"/>
			<path id="XMLID_111_" class="st4" d="M61.7,41.3c0-0.1,0.1-0.1,0.1-0.1c0.1,0,0.1,0,0.1,0.1c0,0.1-0.1,0.1-0.1,0.1
				C61.8,41.4,61.7,41.4,61.7,41.3z M61.7,41.7h0.2v1.1h-0.2V41.7z"/>
			<path id="XMLID_108_" class="st4" d="M62.5,42.9v0.4h-0.2v-1.6h0.2l0,0.1h0c0.1-0.1,0.2-0.2,0.4-0.2c0.3,0,0.5,0.2,0.5,0.6
				c0,0.4-0.2,0.6-0.5,0.6c-0.1,0-0.2,0-0.3-0.1L62.5,42.9z M62.8,42.7c0.2,0,0.3-0.2,0.3-0.5c0-0.2-0.1-0.4-0.3-0.4
				c-0.1,0-0.2,0.1-0.3,0.2v0.6C62.6,42.6,62.7,42.7,62.8,42.7z"/>
			<path id="XMLID_106_" class="st4" d="M63.6,42.5c0.1,0.1,0.2,0.1,0.3,0.1c0.1,0,0.2-0.1,0.2-0.2c0-0.1-0.1-0.2-0.3-0.2
				c-0.2-0.1-0.3-0.1-0.3-0.3c0-0.2,0.1-0.3,0.4-0.3c0.1,0,0.3,0.1,0.4,0.1l-0.1,0.1c-0.1-0.1-0.2-0.1-0.3-0.1
				c-0.1,0-0.2,0.1-0.2,0.2c0,0.1,0.1,0.1,0.2,0.2c0.2,0.1,0.3,0.1,0.3,0.3c0,0.2-0.1,0.3-0.4,0.3c-0.2,0-0.3-0.1-0.4-0.2L63.6,42.5
				z"/>
			<path id="XMLID_104_" class="st4" d="M64.6,41.7h0.2v0.7c0,0.2,0.1,0.3,0.2,0.3c0.1,0,0.2-0.1,0.3-0.2v-0.8h0.2v1.1h-0.2l0-0.2h0
				c-0.1,0.1-0.2,0.2-0.4,0.2c-0.2,0-0.3-0.2-0.3-0.4V41.7z"/>
			<path id="XMLID_102_" class="st4" d="M65.9,41.7H66l0,0.2h0c0.1-0.1,0.2-0.2,0.4-0.2c0.2,0,0.3,0.1,0.3,0.2
				c0.1-0.1,0.2-0.2,0.4-0.2c0.2,0,0.3,0.2,0.3,0.4v0.7h-0.2v-0.7c0-0.2-0.1-0.3-0.2-0.3c-0.1,0-0.2,0.1-0.3,0.2v0.8h-0.2v-0.7
				c0-0.2-0.1-0.3-0.2-0.3c-0.1,0-0.2,0.1-0.3,0.2v0.8h-0.2V41.7z"/>
			<path id="XMLID_99_" class="st4" d="M68.7,41.6c0.1,0,0.2,0,0.3,0.1l0-0.2v-0.4h0.2v1.7H69l0-0.1h0c-0.1,0.1-0.2,0.2-0.3,0.2
				c-0.3,0-0.5-0.2-0.5-0.6C68.2,41.9,68.4,41.6,68.7,41.6z M68.7,42.7c0.1,0,0.2-0.1,0.3-0.2v-0.6c-0.1-0.1-0.2-0.1-0.3-0.1
				c-0.2,0-0.3,0.2-0.3,0.4C68.4,42.5,68.5,42.7,68.7,42.7z"/>
			<path id="XMLID_96_" class="st4" d="M70,41.6c0.3,0,0.5,0.2,0.5,0.6c0,0.4-0.2,0.6-0.5,0.6c-0.3,0-0.5-0.2-0.5-0.6
				C69.5,41.9,69.8,41.6,70,41.6z M70,42.7c0.2,0,0.3-0.2,0.3-0.4c0-0.3-0.1-0.4-0.3-0.4c-0.2,0-0.3,0.2-0.3,0.4
				C69.7,42.5,69.8,42.7,70,42.7z"/>
			<path id="XMLID_94_" class="st4" d="M70.9,41.1h0.2v1.5c0,0.1,0,0.1,0.1,0.1c0,0,0,0,0,0l0,0.1c0,0-0.1,0-0.1,0
				c-0.1,0-0.2-0.1-0.2-0.3V41.1z"/>
			<path id="XMLID_91_" class="st4" d="M71.9,41.6c0.3,0,0.5,0.2,0.5,0.6c0,0.4-0.2,0.6-0.5,0.6c-0.3,0-0.5-0.2-0.5-0.6
				C71.4,41.9,71.6,41.6,71.9,41.6z M71.9,42.7c0.2,0,0.3-0.2,0.3-0.4c0-0.3-0.1-0.4-0.3-0.4c-0.2,0-0.3,0.2-0.3,0.4
				C71.6,42.5,71.7,42.7,71.9,42.7z"/>
			<path id="XMLID_89_" class="st4" d="M72.7,41.7h0.2l0,0.2h0c0.1-0.1,0.2-0.2,0.3-0.2c0,0,0.1,0,0.1,0l0,0.2c0,0-0.1,0-0.1,0
				c-0.1,0-0.2,0.1-0.3,0.3v0.7h-0.2V41.7z"/>
		</g>
		<g id="XMLID_85_">
			<rect id="XMLID_87_" x="46" y="83.1" class="st5" width="17.2" height="17.2"/>
			<polygon id="XMLID_86_" class="st6" points="55.3,91.7 63.2,83.8 63.2,83.1 62.5,83.1 54.6,91 46.7,83.1 46,83.1 46,83.8 
				53.9,91.7 46,99.6 46,100.2 46.8,100.2 54.6,92.4 62.5,100.2 63.2,100.2 63.2,99.5 			"/>
		</g>
		<g id="XMLID_82_">
			<rect id="XMLID_84_" x="71.7" y="83.1" class="st5" width="17.2" height="17.2"/>
			<polygon id="XMLID_83_" class="st6" points="81,91.7 88.8,83.8 88.8,83.1 88.1,83.1 80.3,91 72.4,83.1 71.7,83.1 71.7,83.8 
				79.6,91.7 71.7,99.6 71.7,100.2 72.5,100.2 80.3,92.4 88.1,100.2 88.8,100.2 88.8,99.5 			"/>
		</g>
		<g id="XMLID_79_">
			<rect id="XMLID_81_" x="97.3" y="83.1" class="st5" width="17.2" height="17.2"/>
			<polygon id="XMLID_80_" class="st6" points="106.7,91.7 114.5,83.8 114.5,83.1 113.8,83.1 106,91 98,83.1 97.3,83.1 97.3,83.8 
				105.3,91.7 97.3,99.6 97.3,100.2 98.1,100.2 106,92.4 113.8,100.2 114.5,100.2 114.5,99.5 			"/>
		</g>
		<g id="XMLID_76_">
			<rect id="XMLID_78_" x="122" y="83.1" class="st5" width="17.2" height="17.2"/>
			<polygon id="XMLID_77_" class="st6" points="131.3,91.7 139.2,83.8 139.2,83.1 138.5,83.1 130.6,91 122.7,83.1 122,83.1 
				122,83.8 129.9,91.7 122,99.6 122,100.2 122.8,100.2 130.6,92.4 138.5,100.2 139.2,100.2 139.2,99.5 			"/>
		</g>
		<circle id="XMLID_75_" class="st5" cx="48.9" cy="42.1" r="3.5"/>
		<path id="XMLID_67_" class="st7" d="M163.3,25.9H26.1c-2.9,0-5,2.3-5,5.2v94.4h147.2V31.1C168.3,28.3,166.2,25.9,163.3,25.9z
			 M161.5,119.3H28.7V31.7h132.7V119.3z"/>
		<polygon id="XMLID_66_" class="st8" points="2,132.3 6.7,135.5 182.7,135.5 187.4,132.3 		"/>
		<path id="XMLID_65_" class="st1" d="M0,125.6v2.6c0,2.9,2.2,5.2,5,5.2h179.4c2.8,0,5-2.3,5-5.2v-2.6H0z"/>
		<path id="XMLID_64_" class="st8" d="M116.1,129.5c0,0.6-0.4,1.1-1,1.1H74.6c-0.5,0-1-0.5-1-1.1l0,0c0-0.6,0.4-1.1,1-1.1h40.5
			C115.7,128.4,116.1,128.9,116.1,129.5L116.1,129.5z"/>
		<rect id="XMLID_61_" x="98.5" y="41.3" class="st3" width="17.7" height="1.5"/>
		<rect id="XMLID_58_" x="123" y="41.3" class="st3" width="17.7" height="1.5"/>
	</g>
	<g id="XMLID_38_">
		<path id="XMLID_39_" class="st9" d="M124.7,62.4l-2.1,1.9l2.1,1.9h-1.4l-1.7-1.5v-0.4v-0.4l1.7-1.5H124.7z M121.3,62.5v3.8h-0.9
			v-3.8H121.3z M112.7,62.8l4.7-2.1v1.5l-3.1,1.4l3.1,1.5v0.8v0.5v0.1l-4.7-2.2l-4.7,2.1v-1.5l3.1-1.4l-3.1-1.5v-1.5L112.7,62.8z
			 M96.3,63h6v1.3h-6V63z M96.3,65.2h10.2v1.3H96.3V65.2z M96.3,60.7h10.2V62H96.3V60.7z M82.9,60.5l5.9,2l6.6-2v5.9H94v-4.1
			L89,63.8l-0.2,0.1l-0.2-0.1l-5.7-1.9V60.5z M81.1,63.6V62h-8.9l0,0l0,0c-0.5,0-1,0.2-1.3,0.5c-0.3,0.3-0.5,0.6-0.5,1H81.1z
			 M81.1,66.3v-1.5H70.3v1.5h-1.3v-2.5l0,0l0,0c0-0.9,0.4-1.7,0.9-2.2c0.6-0.6,1.4-0.9,2.3-0.9l0,0l0,0h9.6h0.7v0.7v5H81.1z
			 M67.9,66.5H60h0l0,0c-0.8,0-1.5-0.3-2-0.9c-0.5-0.5-0.9-1.2-0.9-2l0,0l0,0l0,0l0,0c0-0.8,0.3-1.5,0.9-2.1l0,0
			c0.5-0.5,1.2-0.9,2-0.9l0,0h0h7.9V62H60h0l0,0c-0.4,0-0.8,0.2-1.1,0.5h0c-0.3,0.3-0.4,0.7-0.4,1.1l0,0l0,0l0,0l0,0
			c0,0.4,0.2,0.8,0.5,1.1c0.3,0.3,0.7,0.5,1.1,0.5l0,0h0h7.9V66.5z M125.1,62.4h3.9v1l-2.6,1.8h2.5v0.9h-4v-1l2.6-1.8h-2.5V62.4z
			 M118.5,65.3h1v1h-1V65.3z"/>
	</g>
	<circle id="XMLID_37_" class="st10" cx="154" cy="35.5" r="23"/>
	<g id="XMLID_7_">
		<rect id="XMLID_31_" x="152" y="22.5" class="st11" width="4" height="26"/>
		<rect id="XMLID_30_" x="141" y="33.5" class="st11" width="26" height="4"/>
	</g>
	<circle id="XMLID_6_" class="st12" cx="96.5" cy="147" r="14.5"/>
	<g id="XMLID_1_">
		<g id="XMLID_148_">
			<path id="XMLID_149_" class="st6" d="M97.9,152.5h-2.3v-6.2l0-1l0-1.1c-0.4,0.4-0.6,0.6-0.8,0.7l-1.2,1l-1.1-1.4l3.4-2.7h1.9
				V152.5z"/>
		</g>
	</g>
</g>
</svg>
